{"glyphs":{"0":{"ha":833,"x_min":67,"x_max":767,"o":"m 417 -21 q 223 33 301 -21 q 106 204 144 87 q 67 510 67 321 q 106 811 67 697 q 223 978 144 926 q 417 1030 301 1030 q 611 978 533 1030 q 728 811 689 926 q 767 510 767 697 q 728 204 767 321 q 611 33 689 87 q 417 -21 533 -21 m 417 94 q 511 115 470 94 q 581 182 553 135 q 623 309 608 229 q 637 510 637 390 q 623 707 637 629 q 580 831 608 785 q 511 895 552 876 q 417 915 470 915 q 322 895 363 915 q 253 831 281 876 q 211 707 225 785 q 197 510 197 629 q 211 309 197 390 q 253 182 225 229 q 322 115 281 135 q 417 94 363 94 m 417 412 q 364 437 380 413 q 349 508 349 462 q 364 578 349 553 q 417 603 380 603 q 469 578 453 603 q 485 508 485 553 q 469 437 485 462 q 417 412 453 413 z "},"1":{"ha":833,"x_min":48,"x_max":770,"o":"m 385 49 l 385 738 q 388 824 385 783 q 395 909 390 866 l 397 1010 l 520 1010 l 520 49 l 385 49 m 103 0 l 103 116 l 770 116 l 770 0 l 103 0 m 48 759 l 48 883 q 163 871 108 867 q 264 893 218 874 q 344 942 310 912 q 397 1010 378 972 l 395 909 q 343 810 383 847 q 250 758 303 774 q 143 744 197 743 q 48 759 89 746 z "},"2":{"ha":833,"x_min":54,"x_max":754,"o":"m 54 0 q 92 44 76 25 q 125 81 108 63 q 163 122 142 99 q 215 178 185 145 q 290 260 246 212 q 397 379 335 309 q 510 511 464 453 q 581 621 557 568 q 606 733 606 674 q 561 865 606 815 q 423 915 516 915 q 324 895 369 915 q 250 830 278 875 q 219 709 222 785 q 219 690 219 700 q 221 669 220 680 l 94 669 q 91 694 92 682 q 90 718 90 707 q 115 857 90 799 q 187 955 141 916 q 294 1012 233 993 q 426 1031 356 1031 q 657 953 576 1031 q 738 741 738 876 q 712 600 738 663 q 640 479 685 537 q 535 356 594 421 q 438 247 478 291 q 370 175 397 203 q 324 125 342 146 q 292 86 306 105 q 343 112 313 108 q 425 116 373 116 l 754 116 l 754 0 l 54 0 z "},"3":{"ha":833,"x_min":70,"x_max":776,"o":"m 426 -21 q 285 -2 351 -21 q 171 57 220 17 q 96 159 122 97 q 73 306 70 221 l 206 306 q 260 150 205 207 q 426 94 315 94 q 583 142 522 95 q 644 272 644 188 q 582 420 644 375 q 420 465 520 465 l 309 465 l 309 581 l 422 581 q 519 605 478 581 q 583 668 560 628 q 605 755 605 708 q 557 873 605 831 q 426 915 510 915 q 290 868 341 916 q 244 720 238 821 l 111 720 q 147 894 110 826 q 256 997 185 963 q 426 1031 328 1031 q 599 997 531 1031 q 702 901 668 963 q 736 760 736 840 q 716 659 736 709 q 652 573 696 610 q 535 526 608 537 q 714 452 651 517 q 776 272 776 388 q 732 112 776 178 q 609 13 688 47 q 426 -21 530 -21 z "},"4":{"ha":833,"x_min":40,"x_max":784,"o":"m 40 176 l 379 1010 l 529 1010 l 244 330 l 222 292 l 784 292 l 783 176 l 40 176 m 528 0 l 529 242 l 578 292 q 544 308 554 292 q 531 348 533 324 q 529 397 529 372 l 528 610 l 663 613 l 663 0 l 528 0 z "},"5":{"ha":833,"x_min":64,"x_max":772,"o":"m 416 -21 q 222 24 302 -21 q 103 141 142 69 q 72 293 64 213 l 203 293 q 223 202 202 247 q 293 129 244 158 q 422 100 342 100 q 528 121 479 100 q 607 190 577 142 q 637 318 637 238 q 582 478 637 424 q 422 533 527 533 q 297 511 355 533 q 197 451 238 489 l 92 490 l 159 1010 l 722 1010 l 722 890 l 274 890 l 207 524 q 302 614 235 583 q 462 646 369 646 q 576 630 521 646 q 676 576 632 613 q 746 478 720 540 q 772 327 772 417 q 729 144 772 223 q 607 23 686 66 q 416 -21 527 -21 z "},"6":{"ha":833,"x_min":76,"x_max":779,"o":"m 428 -21 q 251 25 331 -21 q 123 162 171 70 q 76 390 76 253 q 109 602 76 506 q 194 776 142 699 q 300 913 245 854 q 397 1010 355 971 l 592 1010 q 493 930 544 973 q 393 835 442 886 q 304 724 344 784 q 239 596 264 665 q 210 448 213 527 l 203 460 q 239 545 215 508 q 300 610 264 583 q 383 652 337 638 q 483 667 429 667 q 641 625 575 667 q 743 508 708 583 q 779 331 779 433 q 751 184 779 249 q 673 73 722 119 q 560 3 623 27 q 428 -21 497 -21 m 431 97 q 543 124 494 97 q 618 202 591 150 q 645 328 645 253 q 627 445 645 394 q 566 524 608 495 q 453 552 524 552 q 341 535 387 552 q 265 493 295 518 q 216 442 235 467 q 212 414 213 437 q 210 374 210 391 q 233 233 210 296 q 305 134 256 170 q 431 97 353 97 z "},"7":{"ha":833,"x_min":60,"x_max":785,"o":"m 219 0 l 567 799 q 623 872 588 847 q 713 897 658 897 l 722 887 l 60 887 l 60 1010 l 712 1010 l 785 1010 l 365 0 l 219 0 z "},"8":{"ha":833,"x_min":66,"x_max":767,"o":"m 417 -21 q 239 12 319 -21 q 113 110 160 45 q 66 269 66 175 q 127 449 66 384 q 309 526 189 514 q 192 570 238 535 q 126 655 147 606 q 105 752 105 703 q 185 956 105 882 q 417 1031 265 1031 q 649 956 569 1031 q 729 752 729 881 q 708 655 729 703 q 642 570 687 606 q 526 524 597 534 q 706 448 644 513 q 767 269 767 383 q 720 110 767 175 q 593 12 673 45 q 417 -21 514 -21 m 417 97 q 574 143 512 97 q 637 273 637 188 q 575 417 637 370 q 417 465 513 465 q 258 418 320 465 q 196 273 196 372 q 258 143 196 188 q 417 97 320 97 m 417 581 q 514 605 473 581 q 577 668 555 629 q 600 753 600 707 q 551 873 600 831 q 417 915 503 915 q 282 873 331 915 q 233 753 233 831 q 253 668 233 707 q 314 605 273 629 q 417 581 355 581 z "},"9":{"ha":833,"x_min":53,"x_max":761,"o":"m 238 0 q 328 74 278 31 q 430 170 378 117 q 525 286 481 224 q 597 420 569 349 q 627 568 624 490 l 638 567 q 601 475 625 517 q 543 404 577 434 q 466 357 509 374 q 374 341 424 341 q 209 384 281 341 q 95 503 136 427 q 53 680 53 580 q 81 832 53 767 q 160 942 110 898 q 274 1008 210 986 q 407 1031 338 1031 q 586 987 506 1031 q 714 852 666 943 q 761 617 761 760 q 727 404 761 502 q 641 228 693 306 q 535 92 590 150 q 438 0 480 35 l 238 0 m 399 458 q 496 475 454 458 q 569 520 538 492 q 619 580 599 548 q 624 605 623 585 q 625 644 625 624 q 599 783 625 722 q 524 877 574 843 q 403 912 474 912 q 290 886 339 912 q 214 810 241 860 q 187 690 187 760 q 242 522 188 585 q 399 458 297 458 z "},"A":{"ha":833,"x_min":1,"x_max":832,"o":"m 1 0 l 328 1010 l 506 1010 l 832 0 l 696 0 l 601 303 l 676 251 l 174 251 l 222 364 l 641 364 l 599 310 l 476 713 l 419 916 l 415 916 l 358 713 l 138 0 l 1 0 z "},"Á":{"ha":833,"x_min":1,"x_max":832,"o":"m 1 0 l 328 1010 l 506 1010 l 832 0 l 696 0 l 601 303 l 676 251 l 174 251 l 222 364 l 641 364 l 599 310 l 476 713 l 419 916 l 415 916 l 358 713 l 138 0 l 1 0 m 491 1105 l 351 1105 l 501 1327 l 663 1327 l 491 1105 z "},"Ă":{"ha":833,"x_min":1,"x_max":832,"o":"m 1 0 l 328 1010 l 506 1010 l 832 0 l 696 0 l 601 303 l 676 251 l 174 251 l 222 364 l 641 364 l 599 310 l 476 713 l 419 916 l 415 916 l 358 713 l 138 0 l 1 0 m 417 1105 q 258 1166 310 1105 q 214 1328 206 1227 l 326 1328 q 342 1232 319 1264 q 417 1201 366 1201 q 491 1231 466 1201 q 509 1328 516 1262 l 620 1328 q 604 1210 626 1260 q 535 1133 583 1160 q 417 1105 488 1105 z "},"Â":{"ha":833,"x_min":1,"x_max":832,"o":"m 1 0 l 328 1010 l 506 1010 l 832 0 l 696 0 l 601 303 l 676 251 l 174 251 l 222 364 l 641 364 l 599 310 l 476 713 l 419 916 l 415 916 l 358 713 l 138 0 l 1 0 m 193 1105 l 352 1328 l 483 1328 l 642 1105 l 525 1105 l 417 1244 l 310 1105 l 193 1105 z "},"Ä":{"ha":833,"x_min":1,"x_max":832,"o":"m 1 0 l 328 1010 l 506 1010 l 832 0 l 696 0 l 601 303 l 676 251 l 174 251 l 222 364 l 641 364 l 599 310 l 476 713 l 419 916 l 415 916 l 358 713 l 138 0 l 1 0 m 272 1098 q 209 1126 235 1098 q 183 1199 183 1155 q 209 1272 183 1244 q 272 1299 235 1299 q 334 1272 308 1299 q 360 1199 360 1244 q 334 1126 360 1155 q 272 1098 307 1098 m 563 1098 q 500 1126 527 1098 q 474 1199 474 1155 q 500 1272 474 1244 q 563 1299 527 1299 q 625 1272 599 1299 q 652 1199 652 1244 q 625 1126 652 1155 q 563 1098 598 1098 z "},"À":{"ha":833,"x_min":1,"x_max":832,"o":"m 1 0 l 328 1010 l 506 1010 l 832 0 l 696 0 l 601 303 l 676 251 l 174 251 l 222 364 l 641 364 l 599 310 l 476 713 l 419 916 l 415 916 l 358 713 l 138 0 l 1 0 m 349 1105 l 178 1327 l 339 1327 l 488 1105 l 349 1105 z "},"Ā":{"ha":833,"x_min":1,"x_max":832,"o":"m 1 0 l 328 1010 l 506 1010 l 832 0 l 696 0 l 601 303 l 676 251 l 174 251 l 222 364 l 641 364 l 599 310 l 476 713 l 419 916 l 415 916 l 358 713 l 138 0 l 1 0 m 201 1122 l 201 1239 l 634 1240 l 632 1122 l 201 1122 z "},"Ą":{"ha":833,"x_min":1,"x_max":832,"o":"m 1 0 l 328 1010 l 506 1010 l 832 0 l 696 0 l 601 303 l 676 251 l 174 251 l 222 364 l 641 364 l 599 310 l 476 713 l 419 916 l 415 916 l 358 713 l 138 0 l 1 0 m 719 -297 q 652 -282 685 -297 q 597 -237 619 -266 q 575 -169 575 -209 q 608 -69 575 -118 q 701 0 641 -19 l 830 0 q 731 -64 763 -35 q 699 -136 699 -94 q 714 -178 699 -163 q 755 -193 728 -193 q 827 -177 792 -193 l 828 -276 q 778 -292 801 -287 q 719 -297 755 -297 z "},"Å":{"ha":833,"x_min":1,"x_max":832,"o":"m 1 0 l 328 1010 l 506 1010 l 832 0 l 696 0 l 601 303 l 676 251 l 174 251 l 222 364 l 641 364 l 599 310 l 476 713 l 419 916 l 415 916 l 358 713 l 138 0 l 1 0 m 418 996 q 294 1040 340 996 q 247 1160 247 1085 q 294 1278 247 1234 q 418 1322 340 1322 q 542 1278 497 1322 q 588 1160 588 1235 q 542 1040 588 1085 q 418 996 497 996 m 418 1077 q 476 1099 455 1077 q 497 1160 497 1122 q 476 1219 497 1197 q 418 1242 455 1242 q 361 1219 382 1242 q 340 1160 340 1197 q 361 1099 340 1122 q 418 1077 382 1077 z "},"Ǻ":{"ha":833,"x_min":1,"x_max":832,"o":"m 1 0 l 328 1010 l 506 1010 l 832 0 l 696 0 l 601 303 l 676 251 l 174 251 l 222 364 l 641 364 l 599 310 l 476 713 l 419 916 l 415 916 l 358 713 l 138 0 l 1 0 m 418 932 q 294 976 340 932 q 247 1095 247 1020 q 294 1214 247 1170 q 418 1258 340 1258 q 542 1214 497 1258 q 588 1095 588 1170 q 542 976 588 1020 q 418 932 497 932 m 418 1013 q 476 1035 455 1013 q 497 1095 497 1057 q 476 1155 497 1133 q 418 1177 455 1177 q 361 1155 382 1177 q 340 1095 340 1133 q 361 1035 340 1057 q 418 1013 382 1013 m 440 1198 l 524 1328 l 652 1328 l 530 1176 l 440 1198 z "},"Ã":{"ha":833,"x_min":1,"x_max":832,"o":"m 1 0 l 328 1010 l 506 1010 l 832 0 l 696 0 l 601 303 l 676 251 l 174 251 l 222 364 l 641 364 l 599 310 l 476 713 l 419 916 l 415 916 l 358 713 l 138 0 l 1 0 m 522 1090 q 446 1109 474 1090 q 398 1153 417 1128 q 362 1198 379 1178 q 319 1217 344 1217 q 273 1183 285 1217 q 269 1090 260 1149 l 169 1090 q 195 1253 155 1197 q 313 1308 235 1308 q 389 1289 360 1308 q 436 1245 417 1270 q 472 1201 455 1220 q 515 1182 490 1182 q 562 1214 549 1182 q 565 1308 574 1245 l 665 1308 q 640 1144 680 1198 q 522 1090 600 1090 z "},"Æ":{"ha":833,"x_min":-78,"x_max":829,"o":"m -78 0 l 318 1010 l 402 1010 l 417 991 l 406 915 l 397 915 l 353 792 l 49 0 l -78 0 m 402 0 l 402 1010 l 822 1010 l 822 888 l 472 888 l 515 950 l 515 548 l 472 585 l 794 585 l 794 465 l 483 465 l 515 506 l 515 58 l 472 123 l 829 123 l 829 0 l 402 0 m 85 264 l 126 381 l 431 381 l 431 264 l 85 264 z "},"Ǽ":{"ha":833,"x_min":-78,"x_max":829,"o":"m -78 0 l 318 1010 l 402 1010 l 417 991 l 406 915 l 397 915 l 353 792 l 49 0 l -78 0 m 402 0 l 402 1010 l 822 1010 l 822 888 l 472 888 l 515 950 l 515 548 l 472 585 l 794 585 l 794 465 l 483 465 l 515 506 l 515 58 l 472 123 l 829 123 l 829 0 l 402 0 m 85 264 l 126 381 l 431 381 l 431 264 l 85 264 m 542 1105 l 403 1105 l 553 1327 l 714 1327 l 542 1105 z "},"B":{"ha":833,"x_min":106,"x_max":785,"o":"m 106 0 l 106 1010 l 407 1010 q 602 976 530 1010 q 706 886 674 943 q 737 760 737 830 q 689 607 737 668 q 565 532 640 547 q 669 505 619 531 q 753 431 720 480 q 785 308 785 382 q 738 132 785 201 q 611 32 691 64 q 433 0 531 0 l 106 0 m 234 111 l 420 111 q 587 158 528 111 q 646 299 646 205 q 617 406 646 369 q 541 455 589 442 q 435 467 494 467 l 234 467 l 234 111 m 234 575 l 410 575 q 511 593 468 575 q 578 649 554 610 q 602 749 602 687 q 560 860 603 820 q 407 899 517 899 l 234 899 l 234 575 z "},"C":{"ha":833,"x_min":63,"x_max":754,"o":"m 425 -19 q 230 46 311 -19 q 106 231 149 111 q 63 512 63 350 q 107 784 63 668 q 235 965 152 901 q 429 1029 317 1029 q 601 986 529 1029 q 712 860 673 944 q 754 653 751 777 l 616 653 q 593 793 613 735 q 534 880 573 850 q 431 910 494 910 q 301 865 353 910 q 223 731 249 819 q 196 513 196 642 q 257 209 196 319 q 431 99 317 99 q 531 125 492 99 q 592 194 571 151 q 617 287 613 237 l 749 287 q 718 155 744 212 q 649 59 692 97 q 549 0 606 20 q 425 -19 492 -19 z "},"Ć":{"ha":833,"x_min":63,"x_max":754,"o":"m 425 -19 q 230 46 311 -19 q 106 231 149 111 q 63 512 63 350 q 107 784 63 668 q 235 965 152 901 q 429 1029 317 1029 q 601 986 529 1029 q 712 860 673 944 q 754 653 751 777 l 616 653 q 593 793 613 735 q 534 880 573 850 q 431 910 494 910 q 301 865 353 910 q 223 731 249 819 q 196 513 196 642 q 257 209 196 319 q 431 99 317 99 q 531 125 492 99 q 592 194 571 151 q 617 287 613 237 l 749 287 q 718 155 744 212 q 649 59 692 97 q 549 0 606 20 q 425 -19 492 -19 m 518 1105 l 378 1105 l 528 1327 l 690 1327 l 518 1105 z "},"Č":{"ha":833,"x_min":63,"x_max":754,"o":"m 425 -19 q 230 46 311 -19 q 106 231 149 111 q 63 512 63 350 q 107 784 63 668 q 235 965 152 901 q 429 1029 317 1029 q 601 986 529 1029 q 712 860 673 944 q 754 653 751 777 l 616 653 q 593 793 613 735 q 534 880 573 850 q 431 910 494 910 q 301 865 353 910 q 223 731 249 819 q 196 513 196 642 q 257 209 196 319 q 431 99 317 99 q 531 125 492 99 q 592 194 571 151 q 617 287 613 237 l 749 287 q 718 155 744 212 q 649 59 692 97 q 549 0 606 20 q 425 -19 492 -19 m 379 1103 l 220 1326 l 338 1326 l 444 1187 l 552 1326 l 669 1326 l 510 1103 l 379 1103 z "},"Ç":{"ha":833,"x_min":63,"x_max":754,"o":"m 425 -19 q 230 46 311 -19 q 106 231 149 111 q 63 512 63 350 q 107 784 63 668 q 235 965 152 901 q 429 1029 317 1029 q 601 986 529 1029 q 712 860 673 944 q 754 653 751 777 l 616 653 q 593 793 613 735 q 534 880 573 850 q 431 910 494 910 q 301 865 353 910 q 223 731 249 819 q 196 513 196 642 q 257 209 196 319 q 431 99 317 99 q 531 125 492 99 q 592 194 571 151 q 617 287 613 237 l 749 287 q 718 155 744 212 q 649 59 692 97 q 549 0 606 20 q 425 -19 492 -19 m 449 -307 q 389 -301 418 -307 q 331 -282 359 -294 l 331 -182 q 372 -197 350 -192 q 413 -203 393 -203 q 456 -186 441 -203 q 472 -142 472 -169 q 440 -67 472 -103 q 349 0 409 -31 l 476 0 q 569 -70 538 -26 q 600 -165 600 -113 q 559 -267 600 -228 q 449 -307 519 -307 z "},"Ċ":{"ha":833,"x_min":63,"x_max":754,"o":"m 425 -19 q 230 46 311 -19 q 106 231 149 111 q 63 512 63 350 q 107 784 63 668 q 235 965 152 901 q 429 1029 317 1029 q 601 986 529 1029 q 712 860 673 944 q 754 653 751 777 l 616 653 q 593 793 613 735 q 534 880 573 850 q 431 910 494 910 q 301 865 353 910 q 223 731 249 819 q 196 513 196 642 q 257 209 196 319 q 431 99 317 99 q 531 125 492 99 q 592 194 571 151 q 617 287 613 237 l 749 287 q 718 155 744 212 q 649 59 692 97 q 549 0 606 20 q 425 -19 492 -19 m 443 1103 q 373 1131 401 1103 q 346 1203 346 1160 q 374 1275 346 1247 q 443 1303 401 1303 q 512 1275 484 1303 q 540 1203 540 1247 q 512 1131 540 1160 q 443 1103 484 1103 z "},"D":{"ha":833,"x_min":98,"x_max":780,"o":"m 227 0 l 196 121 l 351 121 q 510 166 444 121 q 613 297 577 210 q 648 510 648 384 q 614 726 648 642 q 514 849 581 810 q 350 889 448 889 l 190 889 l 227 1010 l 335 1010 q 662 890 544 1010 q 780 511 780 771 q 723 229 780 343 q 566 58 666 115 q 335 0 466 0 l 227 0 m 98 0 l 98 1010 l 227 1010 l 227 0 l 98 0 z "},"Ð":{"ha":833,"x_min":13,"x_max":780,"o":"m 227 0 l 196 121 l 351 121 q 510 166 444 121 q 613 297 577 210 q 648 510 648 384 q 614 726 648 642 q 514 849 581 810 q 350 889 448 889 l 190 889 l 227 1010 l 335 1010 q 662 890 544 1010 q 780 511 780 771 q 723 229 780 343 q 566 58 666 115 q 335 0 466 0 l 227 0 m 98 0 l 98 1010 l 227 1010 l 227 0 l 98 0 m 13 447 l 13 566 l 411 566 l 409 447 l 13 447 z "},"Ď":{"ha":833,"x_min":98,"x_max":780,"o":"m 227 0 l 196 121 l 351 121 q 510 166 444 121 q 613 297 577 210 q 648 510 648 384 q 614 726 648 642 q 514 849 581 810 q 350 889 448 889 l 190 889 l 227 1010 l 335 1010 q 662 890 544 1010 q 780 511 780 771 q 723 229 780 343 q 566 58 666 115 q 335 0 466 0 l 227 0 m 98 0 l 98 1010 l 227 1010 l 227 0 l 98 0 m 348 1103 l 189 1326 l 306 1326 l 413 1187 l 521 1326 l 638 1326 l 478 1103 l 348 1103 z "},"Đ":{"ha":833,"x_min":13,"x_max":780,"o":"m 227 0 l 196 121 l 351 121 q 510 166 444 121 q 613 297 577 210 q 648 510 648 384 q 614 726 648 642 q 514 849 581 810 q 350 889 448 889 l 190 889 l 227 1010 l 335 1010 q 662 890 544 1010 q 780 511 780 771 q 723 229 780 343 q 566 58 666 115 q 335 0 466 0 l 227 0 m 98 0 l 98 1010 l 227 1010 l 227 0 l 98 0 m 13 447 l 13 566 l 411 566 l 409 447 l 13 447 z "},"E":{"ha":833,"x_min":124,"x_max":733,"o":"m 124 0 l 124 1010 l 703 1010 l 703 898 l 197 898 l 253 951 l 253 548 l 197 585 l 654 585 l 654 474 l 216 474 l 253 515 l 253 47 l 197 114 l 733 114 l 733 0 l 124 0 z "},"É":{"ha":833,"x_min":124,"x_max":733,"o":"m 124 0 l 124 1010 l 703 1010 l 703 898 l 197 898 l 253 951 l 253 548 l 197 585 l 654 585 l 654 474 l 216 474 l 253 515 l 253 47 l 197 114 l 733 114 l 733 0 l 124 0 m 497 1105 l 357 1105 l 507 1327 l 668 1327 l 497 1105 z "},"Ĕ":{"ha":833,"x_min":124,"x_max":733,"o":"m 124 0 l 124 1010 l 703 1010 l 703 898 l 197 898 l 253 951 l 253 548 l 197 585 l 654 585 l 654 474 l 216 474 l 253 515 l 253 47 l 197 114 l 733 114 l 733 0 l 124 0 m 422 1105 q 264 1166 316 1105 q 219 1328 211 1227 l 331 1328 q 348 1232 324 1264 q 422 1201 372 1201 q 497 1231 472 1201 q 515 1328 522 1262 l 626 1328 q 610 1210 631 1260 q 541 1133 588 1160 q 422 1105 494 1105 z "},"Ě":{"ha":833,"x_min":124,"x_max":733,"o":"m 124 0 l 124 1010 l 703 1010 l 703 898 l 197 898 l 253 951 l 253 548 l 197 585 l 654 585 l 654 474 l 216 474 l 253 515 l 253 47 l 197 114 l 733 114 l 733 0 l 124 0 m 358 1103 l 199 1326 l 316 1326 l 423 1187 l 531 1326 l 647 1326 l 488 1103 l 358 1103 z "},"Ê":{"ha":833,"x_min":124,"x_max":733,"o":"m 124 0 l 124 1010 l 703 1010 l 703 898 l 197 898 l 253 951 l 253 548 l 197 585 l 654 585 l 654 474 l 216 474 l 253 515 l 253 47 l 197 114 l 733 114 l 733 0 l 124 0 m 199 1105 l 358 1328 l 488 1328 l 647 1105 l 531 1105 l 423 1244 l 316 1105 l 199 1105 z "},"Ë":{"ha":833,"x_min":124,"x_max":733,"o":"m 124 0 l 124 1010 l 703 1010 l 703 898 l 197 898 l 253 951 l 253 548 l 197 585 l 654 585 l 654 474 l 216 474 l 253 515 l 253 47 l 197 114 l 733 114 l 733 0 l 124 0 m 277 1098 q 215 1126 241 1098 q 188 1199 188 1155 q 215 1272 188 1244 q 277 1299 241 1299 q 340 1272 313 1299 q 366 1199 366 1244 q 339 1126 366 1155 q 277 1098 313 1098 m 569 1098 q 506 1126 533 1098 q 479 1199 479 1155 q 506 1272 479 1244 q 569 1299 533 1299 q 631 1272 604 1299 q 658 1199 658 1244 q 631 1126 658 1155 q 569 1098 603 1098 z "},"Ė":{"ha":833,"x_min":124,"x_max":733,"o":"m 124 0 l 124 1010 l 703 1010 l 703 898 l 197 898 l 253 951 l 253 548 l 197 585 l 654 585 l 654 474 l 216 474 l 253 515 l 253 47 l 197 114 l 733 114 l 733 0 l 124 0 m 422 1103 q 352 1131 379 1103 q 324 1203 324 1160 q 352 1275 324 1247 q 422 1303 380 1303 q 491 1275 463 1303 q 519 1203 519 1247 q 491 1131 519 1160 q 422 1103 463 1103 z "},"È":{"ha":833,"x_min":124,"x_max":733,"o":"m 124 0 l 124 1010 l 703 1010 l 703 898 l 197 898 l 253 951 l 253 548 l 197 585 l 654 585 l 654 474 l 216 474 l 253 515 l 253 47 l 197 114 l 733 114 l 733 0 l 124 0 m 355 1105 l 183 1327 l 344 1327 l 494 1105 l 355 1105 z "},"Ē":{"ha":833,"x_min":124,"x_max":733,"o":"m 124 0 l 124 1010 l 703 1010 l 703 898 l 197 898 l 253 951 l 253 548 l 197 585 l 654 585 l 654 474 l 216 474 l 253 515 l 253 47 l 197 114 l 733 114 l 733 0 l 124 0 m 206 1122 l 206 1239 l 640 1240 l 638 1122 l 206 1122 z "},"Ę":{"ha":833,"x_min":124,"x_max":733,"o":"m 124 0 l 124 1010 l 703 1010 l 703 898 l 197 898 l 253 951 l 253 548 l 197 585 l 654 585 l 654 474 l 216 474 l 253 515 l 253 47 l 197 114 l 733 114 l 733 0 l 124 0 m 622 -297 q 556 -282 589 -297 q 500 -237 522 -266 q 478 -169 478 -209 q 511 -69 478 -118 q 605 0 544 -19 l 733 0 q 634 -64 666 -35 q 602 -136 602 -94 q 617 -178 602 -163 q 658 -193 632 -193 q 731 -177 696 -193 l 732 -276 q 681 -292 704 -287 q 622 -297 658 -297 z "},"F":{"ha":833,"x_min":118,"x_max":731,"o":"m 118 0 l 118 1010 l 731 1010 l 731 898 l 194 898 l 249 952 l 249 531 l 198 569 l 672 569 l 672 457 l 227 457 l 249 488 l 249 0 l 118 0 z "},"G":{"ha":833,"x_min":59,"x_max":751,"o":"m 432 -20 q 227 44 310 -20 q 101 227 144 108 q 59 508 59 346 q 104 788 59 672 q 236 966 149 904 q 451 1028 324 1028 q 592 999 529 1028 q 697 902 655 970 q 751 719 738 835 l 624 719 q 596 817 618 775 q 536 884 574 860 q 440 908 497 908 q 298 858 353 908 q 216 719 242 809 q 190 508 190 629 q 220 289 190 381 q 303 149 249 198 q 431 101 358 101 q 544 118 496 101 q 627 165 593 135 l 627 406 l 446 406 l 446 526 l 748 526 l 747 103 q 653 38 701 65 q 551 -5 606 10 q 432 -20 497 -20 z "},"Ǵ":{"ha":833,"x_min":59,"x_max":751,"o":"m 432 -20 q 227 44 310 -20 q 101 227 144 108 q 59 508 59 346 q 104 788 59 672 q 236 966 149 904 q 451 1028 324 1028 q 592 999 529 1028 q 697 902 655 970 q 751 719 738 835 l 624 719 q 596 817 618 775 q 536 884 574 860 q 440 908 497 908 q 298 858 353 908 q 216 719 242 809 q 190 508 190 629 q 220 289 190 381 q 303 149 249 198 q 431 101 358 101 q 544 118 496 101 q 627 165 593 135 l 627 406 l 446 406 l 446 526 l 748 526 l 747 103 q 653 38 701 65 q 551 -5 606 10 q 432 -20 497 -20 m 496 1105 l 356 1105 l 506 1327 l 667 1327 l 496 1105 z "},"Ğ":{"ha":833,"x_min":59,"x_max":751,"o":"m 432 -20 q 227 44 310 -20 q 101 227 144 108 q 59 508 59 346 q 104 788 59 672 q 236 966 149 904 q 451 1028 324 1028 q 592 999 529 1028 q 697 902 655 970 q 751 719 738 835 l 624 719 q 596 817 618 775 q 536 884 574 860 q 440 908 497 908 q 298 858 353 908 q 216 719 242 809 q 190 508 190 629 q 220 289 190 381 q 303 149 249 198 q 431 101 358 101 q 544 118 496 101 q 627 165 593 135 l 627 406 l 446 406 l 446 526 l 748 526 l 747 103 q 653 38 701 65 q 551 -5 606 10 q 432 -20 497 -20 m 422 1105 q 263 1166 315 1105 q 219 1328 210 1227 l 331 1328 q 347 1232 324 1264 q 422 1201 371 1201 q 496 1231 471 1201 q 514 1328 521 1262 l 625 1328 q 609 1210 631 1260 q 540 1133 588 1160 q 422 1105 493 1105 z "},"Ǧ":{"ha":833,"x_min":59,"x_max":751,"o":"m 432 -20 q 227 44 310 -20 q 101 227 144 108 q 59 508 59 346 q 104 788 59 672 q 236 966 149 904 q 451 1028 324 1028 q 592 999 529 1028 q 697 902 655 970 q 751 719 738 835 l 624 719 q 596 817 618 775 q 536 884 574 860 q 440 908 497 908 q 298 858 353 908 q 216 719 242 809 q 190 508 190 629 q 220 289 190 381 q 303 149 249 198 q 431 101 358 101 q 544 118 496 101 q 627 165 593 135 l 627 406 l 446 406 l 446 526 l 748 526 l 747 103 q 653 38 701 65 q 551 -5 606 10 q 432 -20 497 -20 m 357 1103 l 198 1326 l 315 1326 l 422 1187 l 530 1326 l 647 1326 l 488 1103 l 357 1103 z "},"Ģ":{"ha":833,"x_min":59,"x_max":751,"o":"m 432 -20 q 227 44 310 -20 q 101 227 144 108 q 59 508 59 346 q 104 788 59 672 q 236 966 149 904 q 451 1028 324 1028 q 592 999 529 1028 q 697 902 655 970 q 751 719 738 835 l 624 719 q 596 817 618 775 q 536 884 574 860 q 440 908 497 908 q 298 858 353 908 q 216 719 242 809 q 190 508 190 629 q 220 289 190 381 q 303 149 249 198 q 431 101 358 101 q 544 118 496 101 q 627 165 593 135 l 627 406 l 446 406 l 446 526 l 748 526 l 747 103 q 653 38 701 65 q 551 -5 606 10 q 432 -20 497 -20 m 344 -362 q 355 -292 350 -334 q 362 -206 359 -250 q 365 -130 365 -162 l 365 -89 l 497 -89 l 497 -138 q 492 -219 497 -177 q 479 -298 487 -260 q 463 -362 471 -335 l 344 -362 z "},"Ġ":{"ha":833,"x_min":59,"x_max":751,"o":"m 432 -20 q 227 44 310 -20 q 101 227 144 108 q 59 508 59 346 q 104 788 59 672 q 236 966 149 904 q 451 1028 324 1028 q 592 999 529 1028 q 697 902 655 970 q 751 719 738 835 l 624 719 q 596 817 618 775 q 536 884 574 860 q 440 908 497 908 q 298 858 353 908 q 216 719 242 809 q 190 508 190 629 q 220 289 190 381 q 303 149 249 198 q 431 101 358 101 q 544 118 496 101 q 627 165 593 135 l 627 406 l 446 406 l 446 526 l 748 526 l 747 103 q 653 38 701 65 q 551 -5 606 10 q 432 -20 497 -20 m 421 1103 q 351 1131 378 1103 q 324 1203 324 1160 q 351 1275 324 1247 q 421 1303 379 1303 q 490 1275 462 1303 q 518 1203 518 1247 q 490 1131 518 1160 q 421 1103 462 1103 z "},"H":{"ha":833,"x_min":93,"x_max":740,"o":"m 610 0 l 610 1010 l 740 1010 l 740 0 l 610 0 m 93 0 l 93 1010 l 223 1010 l 223 0 l 93 0 m 187 460 l 187 577 l 634 577 l 633 460 l 187 460 z "},"Ħ":{"ha":833,"x_min":-10,"x_max":843,"o":"m 610 0 l 610 1010 l 740 1010 l 740 0 l 610 0 m 94 0 l 94 1010 l 223 1010 l 223 0 l 94 0 m 166 356 l 166 470 l 656 470 l 653 356 l 166 356 m -10 644 l -10 759 l 843 759 l 842 644 l -10 644 z "},"I":{"ha":833,"x_min":110,"x_max":724,"o":"m 110 0 l 110 119 l 350 119 l 350 828 q 360 869 350 853 q 386 890 370 885 l 110 890 l 110 1010 l 724 1010 l 724 890 l 483 890 l 483 181 q 473 141 483 158 q 447 119 463 125 l 724 119 l 724 0 l 110 0 z "},"Ĳ":{"ha":833,"x_min":34,"x_max":769,"o":"m 34 370 l 34 489 l 165 489 l 165 829 q 174 869 165 853 q 201 891 184 885 l 34 891 l 34 1010 l 432 1010 l 432 891 l 297 891 l 297 551 q 287 511 297 527 q 260 489 277 494 l 428 489 l 428 370 l 34 370 m 458 -21 q 243 53 322 -21 q 160 274 163 127 l 287 274 q 337 145 296 190 q 459 99 378 99 q 551 117 511 99 q 613 183 591 134 q 635 328 635 233 l 635 1010 l 769 1010 l 769 320 q 688 59 769 139 q 458 -21 607 -21 z "},"Í":{"ha":833,"x_min":110,"x_max":724,"o":"m 110 0 l 110 119 l 350 119 l 350 828 q 360 869 350 853 q 386 890 370 885 l 110 890 l 110 1010 l 724 1010 l 724 890 l 483 890 l 483 181 q 473 141 483 158 q 447 119 463 125 l 724 119 l 724 0 l 110 0 m 490 1105 l 351 1105 l 501 1327 l 662 1327 l 490 1105 z "},"Ĭ":{"ha":833,"x_min":110,"x_max":724,"o":"m 110 0 l 110 119 l 350 119 l 350 828 q 360 869 350 853 q 386 890 370 885 l 110 890 l 110 1010 l 724 1010 l 724 890 l 483 890 l 483 181 q 473 141 483 158 q 447 119 463 125 l 724 119 l 724 0 l 110 0 m 416 1105 q 257 1166 310 1105 q 213 1328 205 1227 l 325 1328 q 342 1232 318 1264 q 416 1201 365 1201 q 490 1231 465 1201 q 508 1328 515 1262 l 619 1328 q 603 1210 625 1260 q 535 1133 582 1160 q 416 1105 488 1105 z "},"Î":{"ha":833,"x_min":110,"x_max":724,"o":"m 110 0 l 110 119 l 350 119 l 350 828 q 360 869 350 853 q 386 890 370 885 l 110 890 l 110 1010 l 724 1010 l 724 890 l 483 890 l 483 181 q 473 141 483 158 q 447 119 463 125 l 724 119 l 724 0 l 110 0 m 192 1105 l 351 1328 l 482 1328 l 641 1105 l 524 1105 l 417 1244 l 310 1105 l 192 1105 z "},"Ï":{"ha":833,"x_min":110,"x_max":724,"o":"m 110 0 l 110 119 l 350 119 l 350 828 q 360 869 350 853 q 386 890 370 885 l 110 890 l 110 1010 l 724 1010 l 724 890 l 483 890 l 483 181 q 473 141 483 158 q 447 119 463 125 l 724 119 l 724 0 l 110 0 m 271 1098 q 208 1126 235 1098 q 182 1199 182 1155 q 208 1272 182 1244 q 271 1299 235 1299 q 333 1272 307 1299 q 360 1199 360 1244 q 333 1126 360 1155 q 271 1098 306 1098 m 563 1098 q 500 1126 526 1098 q 473 1199 473 1155 q 500 1272 473 1244 q 563 1299 526 1299 q 625 1272 598 1299 q 651 1199 651 1244 q 624 1126 651 1155 q 563 1098 597 1098 z "},"İ":{"ha":833,"x_min":110,"x_max":724,"o":"m 110 0 l 110 119 l 350 119 l 350 828 q 360 869 350 853 q 386 890 370 885 l 110 890 l 110 1010 l 724 1010 l 724 890 l 483 890 l 483 181 q 473 141 483 158 q 447 119 463 125 l 724 119 l 724 0 l 110 0 m 415 1103 q 345 1131 373 1103 q 318 1203 318 1160 q 346 1275 318 1247 q 415 1303 374 1303 q 484 1275 456 1303 q 513 1203 513 1247 q 484 1131 513 1160 q 415 1103 456 1103 z "},"Ị":{"ha":833,"x_min":110,"x_max":724,"o":"m 110 0 l 110 119 l 350 119 l 350 828 q 360 869 350 853 q 386 890 370 885 l 110 890 l 110 1010 l 724 1010 l 724 890 l 483 890 l 483 181 q 473 141 483 158 q 447 119 463 125 l 724 119 l 724 0 l 110 0 m 417 -319 q 346 -291 374 -319 q 318 -218 318 -262 q 346 -146 318 -174 q 417 -118 374 -118 q 487 -146 459 -118 q 515 -218 515 -174 q 487 -291 515 -262 q 417 -319 459 -319 z "},"Ì":{"ha":833,"x_min":110,"x_max":724,"o":"m 110 0 l 110 119 l 350 119 l 350 828 q 360 869 350 853 q 386 890 370 885 l 110 890 l 110 1010 l 724 1010 l 724 890 l 483 890 l 483 181 q 473 141 483 158 q 447 119 463 125 l 724 119 l 724 0 l 110 0 m 349 1105 l 177 1327 l 338 1327 l 488 1105 l 349 1105 z "},"Ī":{"ha":833,"x_min":110,"x_max":724,"o":"m 110 0 l 110 119 l 350 119 l 350 828 q 360 869 350 853 q 386 890 370 885 l 110 890 l 110 1010 l 724 1010 l 724 890 l 483 890 l 483 181 q 473 141 483 158 q 447 119 463 125 l 724 119 l 724 0 l 110 0 m 200 1122 l 200 1239 l 633 1240 l 631 1122 l 200 1122 z "},"Į":{"ha":833,"x_min":110,"x_max":724,"o":"m 110 0 l 110 119 l 350 119 l 350 828 q 360 869 350 853 q 386 890 370 885 l 110 890 l 110 1010 l 724 1010 l 724 890 l 483 890 l 483 181 q 473 141 483 158 q 447 119 463 125 l 724 119 l 724 0 l 110 0 m 613 -297 q 546 -282 579 -297 q 491 -237 513 -266 q 469 -169 469 -209 q 502 -69 469 -118 q 595 0 535 -19 l 724 0 q 624 -64 656 -35 q 592 -136 592 -94 q 607 -178 592 -163 q 649 -193 622 -193 q 721 -177 686 -193 l 722 -276 q 672 -292 694 -287 q 613 -297 649 -297 z "},"Ĩ":{"ha":833,"x_min":110,"x_max":724,"o":"m 110 0 l 110 119 l 350 119 l 350 828 q 360 869 350 853 q 386 890 370 885 l 110 890 l 110 1010 l 724 1010 l 724 890 l 483 890 l 483 181 q 473 141 483 158 q 447 119 463 125 l 724 119 l 724 0 l 110 0 m 521 1090 q 445 1109 474 1090 q 398 1153 417 1128 q 361 1198 378 1178 q 319 1217 344 1217 q 272 1183 284 1217 q 269 1090 260 1149 l 169 1090 q 194 1253 154 1197 q 313 1308 235 1308 q 388 1289 360 1308 q 435 1245 417 1270 q 472 1201 454 1220 q 514 1182 489 1182 q 561 1214 549 1182 q 565 1308 574 1245 l 665 1308 q 639 1144 679 1198 q 521 1090 599 1090 z "},"J":{"ha":833,"x_min":34,"x_max":723,"o":"m 383 -21 q 241 1 307 -21 q 126 70 174 24 q 56 188 78 116 q 47 358 34 259 l 174 358 q 184 233 168 283 q 230 154 199 183 q 299 112 260 124 q 381 99 339 99 q 486 120 440 99 q 561 197 533 142 q 589 353 589 252 l 589 1010 l 723 1010 l 723 361 q 679 134 723 218 q 558 15 635 51 q 383 -21 481 -21 z "},"K":{"ha":833,"x_min":117,"x_max":827,"o":"m 242 283 l 220 413 l 407 666 l 653 1010 l 808 1010 l 466 546 l 426 508 l 242 283 m 117 0 l 117 1010 l 247 1010 l 247 0 l 117 0 m 683 0 l 365 542 l 466 611 l 827 0 l 683 0 z "},"Ķ":{"ha":833,"x_min":117,"x_max":827,"o":"m 242 283 l 220 413 l 407 666 l 653 1010 l 808 1010 l 466 546 l 426 508 l 242 283 m 117 0 l 117 1010 l 247 1010 l 247 0 l 117 0 m 683 0 l 365 542 l 466 611 l 827 0 l 683 0 m 356 -362 q 366 -292 361 -334 q 373 -206 370 -250 q 376 -130 376 -162 l 376 -89 l 508 -89 l 508 -138 q 503 -219 508 -177 q 490 -298 498 -260 q 474 -362 482 -335 l 356 -362 z "},"L":{"ha":833,"x_min":115,"x_max":741,"o":"m 115 0 l 115 1010 l 246 1010 l 246 58 l 178 121 l 741 121 l 741 0 l 115 0 z "},"Ĺ":{"ha":833,"x_min":103,"x_max":741,"o":"m 115 0 l 115 1010 l 246 1010 l 246 58 l 178 121 l 741 121 l 741 0 l 115 0 m 243 1105 l 103 1105 l 253 1327 l 415 1327 l 243 1105 z "},"Ľ":{"ha":833,"x_min":115,"x_max":741,"o":"m 115 0 l 115 1010 l 246 1010 l 246 58 l 178 121 l 741 121 l 741 0 l 115 0 m 416 827 l 431 1083 l 554 1083 l 523 827 l 416 827 z "},"Ļ":{"ha":833,"x_min":115,"x_max":741,"o":"m 115 0 l 115 1010 l 246 1010 l 246 58 l 178 121 l 741 121 l 741 0 l 115 0 m 334 -362 q 344 -292 340 -334 q 351 -206 349 -250 q 354 -130 354 -162 l 354 -89 l 487 -89 l 487 -138 q 482 -219 487 -177 q 468 -298 476 -260 q 452 -362 460 -335 l 334 -362 z "},"Ŀ":{"ha":833,"x_min":127,"x_max":753,"o":"m 127 0 l 127 1010 l 258 1010 l 258 58 l 190 121 l 753 121 l 753 0 l 127 0 m 608 417 q 528 450 560 417 q 496 538 496 483 q 528 624 496 591 q 608 658 560 658 q 689 624 657 658 q 721 538 721 591 q 689 450 721 483 q 608 417 657 417 z "},"Ł":{"ha":833,"x_min":16,"x_max":741,"o":"m 115 0 l 115 1010 l 246 1010 l 246 58 l 178 121 l 741 121 l 741 0 l 115 0 m 17 421 l 16 553 l 165 628 l 244 615 q 251 651 244 633 q 291 687 258 670 l 443 765 l 440 631 l 216 515 l 142 485 l 17 421 z "},"M":{"ha":833,"x_min":60,"x_max":774,"o":"m 60 0 l 81 1010 l 267 1010 l 378 599 l 417 425 l 419 425 l 458 599 l 565 1010 l 752 1010 l 774 0 l 656 0 l 644 400 l 649 908 l 641 908 l 582 678 l 460 269 l 378 269 l 251 678 l 192 908 l 183 908 l 189 400 l 178 0 l 60 0 z "},"N":{"ha":833,"x_min":93,"x_max":740,"o":"m 93 0 l 93 1010 l 259 1010 l 529 379 l 630 136 l 635 136 l 615 383 l 615 1010 l 740 1010 l 740 0 l 574 0 l 306 626 l 207 867 l 201 867 l 219 616 l 219 0 l 93 0 z "},"Ń":{"ha":833,"x_min":93,"x_max":740,"o":"m 93 0 l 93 1010 l 259 1010 l 529 379 l 630 136 l 635 136 l 615 383 l 615 1010 l 740 1010 l 740 0 l 574 0 l 306 626 l 207 867 l 201 867 l 219 616 l 219 0 l 93 0 m 490 1105 l 350 1105 l 500 1327 l 661 1327 l 490 1105 z "},"Ň":{"ha":833,"x_min":93,"x_max":740,"o":"m 93 0 l 93 1010 l 259 1010 l 529 379 l 630 136 l 635 136 l 615 383 l 615 1010 l 740 1010 l 740 0 l 574 0 l 306 626 l 207 867 l 201 867 l 219 616 l 219 0 l 93 0 m 351 1103 l 192 1326 l 309 1326 l 416 1187 l 524 1326 l 640 1326 l 481 1103 l 351 1103 z "},"Ņ":{"ha":833,"x_min":93,"x_max":740,"o":"m 93 0 l 93 1010 l 259 1010 l 529 379 l 630 136 l 635 136 l 615 383 l 615 1010 l 740 1010 l 740 0 l 574 0 l 306 626 l 207 867 l 201 867 l 219 616 l 219 0 l 93 0 m 330 -362 q 340 -292 335 -334 q 347 -206 344 -250 q 350 -130 350 -162 l 350 -89 l 483 -89 l 483 -138 q 477 -219 483 -177 q 464 -298 472 -260 q 448 -362 456 -335 l 330 -362 z "},"Ŋ":{"ha":833,"x_min":93,"x_max":742,"o":"m 470 -320 q 440 -318 456 -320 q 413 -315 424 -317 l 413 -194 q 440 -198 424 -196 q 471 -200 456 -200 q 532 -183 506 -200 q 575 -139 559 -167 q 592 -76 591 -111 q 577 -3 594 -41 l 305 626 l 209 867 l 203 867 l 219 616 l 219 0 l 93 0 l 93 1010 l 259 1010 l 531 379 l 631 131 l 637 131 l 616 383 l 616 1010 l 742 1010 l 742 0 q 670 -241 740 -162 q 470 -320 601 -320 z "},"Ñ":{"ha":833,"x_min":93,"x_max":740,"o":"m 93 0 l 93 1010 l 259 1010 l 529 379 l 630 136 l 635 136 l 615 383 l 615 1010 l 740 1010 l 740 0 l 574 0 l 306 626 l 207 867 l 201 867 l 219 616 l 219 0 l 93 0 m 520 1090 q 444 1109 473 1090 q 397 1153 416 1128 q 360 1198 378 1178 q 318 1217 343 1217 q 271 1183 283 1217 q 268 1090 259 1149 l 168 1090 q 194 1253 153 1197 q 312 1308 234 1308 q 388 1289 359 1308 q 435 1245 416 1270 q 471 1201 453 1220 q 513 1182 488 1182 q 560 1214 548 1182 q 564 1308 573 1245 l 664 1308 q 639 1144 678 1198 q 520 1090 599 1090 z "},"O":{"ha":833,"x_min":58,"x_max":775,"o":"m 417 -21 q 226 41 307 -21 q 102 221 146 103 q 58 510 58 340 q 155 896 58 762 q 417 1030 252 1030 q 679 896 583 1030 q 775 510 775 762 q 732 221 775 340 q 608 41 688 103 q 417 -21 527 -21 m 417 100 q 583 200 523 100 q 643 510 643 300 q 583 814 643 718 q 417 909 523 909 q 251 814 311 909 q 191 510 191 718 q 251 200 191 300 q 417 100 311 100 z "},"Ó":{"ha":833,"x_min":58,"x_max":775,"o":"m 417 -21 q 226 41 307 -21 q 102 221 146 103 q 58 510 58 340 q 155 896 58 762 q 417 1030 252 1030 q 679 896 583 1030 q 775 510 775 762 q 732 221 775 340 q 608 41 688 103 q 417 -21 527 -21 m 417 100 q 583 200 523 100 q 643 510 643 300 q 583 814 643 718 q 417 909 523 909 q 251 814 311 909 q 191 510 191 718 q 251 200 191 300 q 417 100 311 100 m 490 1105 l 351 1105 l 501 1327 l 662 1327 l 490 1105 z "},"Ŏ":{"ha":833,"x_min":58,"x_max":775,"o":"m 417 -21 q 226 41 307 -21 q 102 221 146 103 q 58 510 58 340 q 155 896 58 762 q 417 1030 252 1030 q 679 896 583 1030 q 775 510 775 762 q 732 221 775 340 q 608 41 688 103 q 417 -21 527 -21 m 417 100 q 583 200 523 100 q 643 510 643 300 q 583 814 643 718 q 417 909 523 909 q 251 814 311 909 q 191 510 191 718 q 251 200 191 300 q 417 100 311 100 m 416 1105 q 257 1166 310 1105 q 213 1328 205 1227 l 325 1328 q 342 1232 318 1264 q 416 1201 365 1201 q 490 1231 465 1201 q 508 1328 515 1262 l 619 1328 q 603 1210 625 1260 q 535 1133 582 1160 q 416 1105 488 1105 z "},"Ô":{"ha":833,"x_min":58,"x_max":775,"o":"m 417 -21 q 226 41 307 -21 q 102 221 146 103 q 58 510 58 340 q 155 896 58 762 q 417 1030 252 1030 q 679 896 583 1030 q 775 510 775 762 q 732 221 775 340 q 608 41 688 103 q 417 -21 527 -21 m 417 100 q 583 200 523 100 q 643 510 643 300 q 583 814 643 718 q 417 909 523 909 q 251 814 311 909 q 191 510 191 718 q 251 200 191 300 q 417 100 311 100 m 192 1105 l 351 1328 l 482 1328 l 641 1105 l 524 1105 l 417 1244 l 310 1105 l 192 1105 z "},"Ö":{"ha":833,"x_min":58,"x_max":775,"o":"m 417 -21 q 226 41 307 -21 q 102 221 146 103 q 58 510 58 340 q 155 896 58 762 q 417 1030 252 1030 q 679 896 583 1030 q 775 510 775 762 q 732 221 775 340 q 608 41 688 103 q 417 -21 527 -21 m 417 100 q 583 200 523 100 q 643 510 643 300 q 583 814 643 718 q 417 909 523 909 q 251 814 311 909 q 191 510 191 718 q 251 200 191 300 q 417 100 311 100 m 271 1098 q 208 1126 235 1098 q 182 1199 182 1155 q 208 1272 182 1244 q 271 1299 235 1299 q 333 1272 307 1299 q 360 1199 360 1244 q 333 1126 360 1155 q 271 1098 306 1098 m 563 1098 q 500 1126 526 1098 q 473 1199 473 1155 q 500 1272 473 1244 q 563 1299 526 1299 q 625 1272 598 1299 q 651 1199 651 1244 q 624 1126 651 1155 q 563 1098 597 1098 z "},"Ọ":{"ha":833,"x_min":58,"x_max":775,"o":"m 417 -21 q 226 41 307 -21 q 102 221 146 103 q 58 510 58 340 q 155 896 58 762 q 417 1030 252 1030 q 679 896 583 1030 q 775 510 775 762 q 732 221 775 340 q 608 41 688 103 q 417 -21 527 -21 m 417 100 q 583 200 523 100 q 643 510 643 300 q 583 814 643 718 q 417 909 523 909 q 251 814 311 909 q 191 510 191 718 q 251 200 191 300 q 417 100 311 100 m 417 -319 q 346 -291 374 -319 q 318 -218 318 -262 q 346 -146 318 -174 q 417 -118 374 -118 q 487 -146 459 -118 q 515 -218 515 -174 q 487 -291 515 -262 q 417 -319 459 -319 z "},"Ò":{"ha":833,"x_min":58,"x_max":775,"o":"m 417 -21 q 226 41 307 -21 q 102 221 146 103 q 58 510 58 340 q 155 896 58 762 q 417 1030 252 1030 q 679 896 583 1030 q 775 510 775 762 q 732 221 775 340 q 608 41 688 103 q 417 -21 527 -21 m 417 100 q 583 200 523 100 q 643 510 643 300 q 583 814 643 718 q 417 909 523 909 q 251 814 311 909 q 191 510 191 718 q 251 200 191 300 q 417 100 311 100 m 349 1105 l 177 1327 l 338 1327 l 488 1105 l 349 1105 z "},"Ő":{"ha":833,"x_min":58,"x_max":775,"o":"m 417 -21 q 226 41 307 -21 q 102 221 146 103 q 58 510 58 340 q 155 896 58 762 q 417 1030 252 1030 q 679 896 583 1030 q 775 510 775 762 q 732 221 775 340 q 608 41 688 103 q 417 -21 527 -21 m 417 100 q 583 200 523 100 q 643 510 643 300 q 583 814 643 718 q 417 909 523 909 q 251 814 311 909 q 191 510 191 718 q 251 200 191 300 q 417 100 311 100 m 470 1105 l 592 1328 l 736 1328 l 596 1105 l 470 1105 m 224 1105 l 347 1328 l 490 1328 l 350 1105 l 224 1105 z "},"Ō":{"ha":833,"x_min":58,"x_max":775,"o":"m 417 -21 q 226 41 307 -21 q 102 221 146 103 q 58 510 58 340 q 155 896 58 762 q 417 1030 252 1030 q 679 896 583 1030 q 775 510 775 762 q 732 221 775 340 q 608 41 688 103 q 417 -21 527 -21 m 417 100 q 583 200 523 100 q 643 510 643 300 q 583 814 643 718 q 417 909 523 909 q 251 814 311 909 q 191 510 191 718 q 251 200 191 300 q 417 100 311 100 m 200 1122 l 200 1239 l 633 1240 l 631 1122 l 200 1122 z "},"Ø":{"ha":833,"x_min":58,"x_max":775,"o":"m 417 -21 q 226 41 307 -21 q 102 221 146 103 q 58 510 58 340 q 155 896 58 762 q 417 1030 252 1030 q 679 896 583 1030 q 775 510 775 762 q 732 221 775 340 q 608 41 688 103 q 417 -21 527 -21 m 417 100 q 583 200 523 100 q 643 510 643 300 q 583 814 643 718 q 417 909 523 909 q 251 814 311 909 q 191 510 191 718 q 251 200 191 300 q 417 100 311 100 m 73 -54 l 156 110 l 183 140 l 564 908 l 572 939 l 634 1063 l 767 1063 l 692 913 l 663 881 l 275 97 l 269 69 l 206 -54 l 73 -54 z "},"Ǿ":{"ha":833,"x_min":58,"x_max":775,"o":"m 417 -21 q 226 41 307 -21 q 102 221 146 103 q 58 510 58 340 q 155 896 58 762 q 417 1030 252 1030 q 679 896 583 1030 q 775 510 775 762 q 732 221 775 340 q 608 41 688 103 q 417 -21 527 -21 m 417 100 q 583 200 523 100 q 643 510 643 300 q 583 814 643 718 q 417 909 523 909 q 251 814 311 909 q 191 510 191 718 q 251 200 191 300 q 417 100 311 100 m 73 -54 l 156 110 l 183 140 l 564 908 l 572 939 l 634 1063 l 767 1063 l 692 913 l 663 881 l 275 97 l 269 69 l 206 -54 l 73 -54 m 490 1105 l 351 1105 l 501 1327 l 662 1327 l 490 1105 z "},"Õ":{"ha":833,"x_min":58,"x_max":775,"o":"m 417 -21 q 226 41 307 -21 q 102 221 146 103 q 58 510 58 340 q 155 896 58 762 q 417 1030 252 1030 q 679 896 583 1030 q 775 510 775 762 q 732 221 775 340 q 608 41 688 103 q 417 -21 527 -21 m 417 100 q 583 200 523 100 q 643 510 643 300 q 583 814 643 718 q 417 909 523 909 q 251 814 311 909 q 191 510 191 718 q 251 200 191 300 q 417 100 311 100 m 521 1090 q 445 1109 474 1090 q 398 1153 417 1128 q 361 1198 378 1178 q 319 1217 344 1217 q 272 1183 284 1217 q 269 1090 260 1149 l 169 1090 q 194 1253 154 1197 q 313 1308 235 1308 q 388 1289 360 1308 q 435 1245 417 1270 q 472 1201 454 1220 q 514 1182 489 1182 q 561 1214 549 1182 q 565 1308 574 1245 l 665 1308 q 639 1144 679 1198 q 521 1090 599 1090 z "},"Œ":{"ha":833,"x_min":26,"x_max":813,"o":"m 276 -14 q 143 50 199 -14 q 57 232 87 114 q 26 512 26 350 q 55 790 26 674 q 139 968 83 906 q 276 1030 194 1030 q 361 1002 324 1030 q 420 928 397 975 q 453 822 444 881 q 458 701 463 763 l 438 701 l 440 1010 l 806 1010 l 806 888 l 539 888 l 539 585 l 783 585 l 783 465 l 539 465 l 539 123 l 813 123 l 813 0 l 440 0 l 438 284 l 453 286 q 437 126 460 193 q 370 22 413 58 q 276 -14 327 -14 m 287 107 q 366 152 332 107 q 419 287 400 198 q 438 507 438 376 q 419 726 438 637 q 367 863 401 816 q 287 909 333 909 q 198 863 231 909 q 149 726 164 816 q 133 508 133 637 q 150 288 133 378 q 200 153 166 199 q 287 107 234 107 z "},"P":{"ha":833,"x_min":110,"x_max":795,"o":"m 289 366 q 253 379 267 366 q 239 413 239 392 l 190 451 l 240 485 l 452 485 q 572 509 526 485 q 640 581 618 534 q 661 694 661 628 q 638 805 661 762 q 567 868 615 847 q 446 888 519 888 l 235 888 l 175 1010 q 236 1010 199 1010 q 311 1010 272 1010 q 385 1010 351 1010 q 442 1010 420 1010 q 708 933 622 1010 q 795 701 795 857 q 776 573 795 633 q 716 466 757 513 q 609 393 675 419 q 449 366 543 366 l 289 366 m 110 0 l 110 1010 l 240 1010 l 240 0 l 110 0 z "},"Þ":{"ha":833,"x_min":109,"x_max":795,"o":"m 293 187 q 252 199 267 187 q 238 224 238 210 l 190 272 l 239 306 l 456 306 q 573 331 527 306 q 640 402 618 356 q 662 513 662 448 q 608 660 662 615 q 444 706 553 706 l 235 706 l 175 826 q 237 826 199 826 q 316 826 275 826 q 393 826 357 826 q 449 826 428 826 q 707 751 619 826 q 795 520 795 676 q 775 393 795 453 q 714 287 756 333 q 608 214 672 240 q 456 187 544 187 l 293 187 m 109 0 l 109 1010 l 239 1010 l 239 0 l 109 0 z "},"Q":{"ha":833,"x_min":58,"x_max":775,"o":"m 417 -21 q 226 41 307 -21 q 102 221 146 103 q 58 510 58 340 q 155 896 58 762 q 417 1030 252 1030 q 679 896 583 1030 q 775 510 775 762 q 732 221 775 340 q 608 41 688 103 q 417 -21 527 -21 m 417 100 q 583 200 523 100 q 643 510 643 300 q 583 814 643 718 q 417 909 523 909 q 251 814 311 909 q 191 510 191 718 q 251 200 191 300 q 417 100 311 100 m 555 -222 l 434 35 l 541 35 q 569 24 553 35 q 597 -10 585 13 l 713 -222 l 555 -222 z "},"R":{"ha":833,"x_min":112,"x_max":799,"o":"m 653 0 l 416 412 l 223 412 l 176 422 l 197 508 l 197 530 l 418 530 q 522 557 483 530 q 577 627 560 583 q 594 722 594 671 q 576 818 594 779 q 515 876 557 856 q 401 895 472 895 l 235 896 l 235 929 l 176 1010 q 247 1010 208 1010 q 325 1010 287 1010 q 391 1010 363 1010 q 644 940 560 1010 q 728 735 728 870 q 717 635 728 685 q 678 542 706 585 q 601 469 650 499 q 478 427 553 439 l 481 444 q 522 440 506 444 q 551 422 538 435 q 578 383 564 408 l 799 0 l 653 0 m 112 0 l 112 1010 l 240 1010 l 240 0 l 112 0 z "},"Ŕ":{"ha":833,"x_min":112,"x_max":799,"o":"m 653 0 l 416 412 l 223 412 l 176 422 l 197 508 l 197 530 l 418 530 q 522 557 483 530 q 577 627 560 583 q 594 722 594 671 q 576 818 594 779 q 515 876 557 856 q 401 895 472 895 l 235 896 l 235 929 l 176 1010 q 247 1010 208 1010 q 325 1010 287 1010 q 391 1010 363 1010 q 644 940 560 1010 q 728 735 728 870 q 717 635 728 685 q 678 542 706 585 q 601 469 650 499 q 478 427 553 439 l 481 444 q 522 440 506 444 q 551 422 538 435 q 578 383 564 408 l 799 0 l 653 0 m 112 0 l 112 1010 l 240 1010 l 240 0 l 112 0 m 451 1105 l 312 1105 l 462 1327 l 623 1327 l 451 1105 z "},"Ř":{"ha":833,"x_min":112,"x_max":799,"o":"m 653 0 l 416 412 l 223 412 l 176 422 l 197 508 l 197 530 l 418 530 q 522 557 483 530 q 577 627 560 583 q 594 722 594 671 q 576 818 594 779 q 515 876 557 856 q 401 895 472 895 l 235 896 l 235 929 l 176 1010 q 247 1010 208 1010 q 325 1010 287 1010 q 391 1010 363 1010 q 644 940 560 1010 q 728 735 728 870 q 717 635 728 685 q 678 542 706 585 q 601 469 650 499 q 478 427 553 439 l 481 444 q 522 440 506 444 q 551 422 538 435 q 578 383 564 408 l 799 0 l 653 0 m 112 0 l 112 1010 l 240 1010 l 240 0 l 112 0 m 313 1103 l 153 1326 l 271 1326 l 378 1187 l 485 1326 l 602 1326 l 443 1103 l 313 1103 z "},"Ŗ":{"ha":833,"x_min":112,"x_max":799,"o":"m 653 0 l 416 412 l 223 412 l 176 422 l 197 508 l 197 530 l 418 530 q 522 557 483 530 q 577 627 560 583 q 594 722 594 671 q 576 818 594 779 q 515 876 557 856 q 401 895 472 895 l 235 896 l 235 929 l 176 1010 q 247 1010 208 1010 q 325 1010 287 1010 q 391 1010 363 1010 q 644 940 560 1010 q 728 735 728 870 q 717 635 728 685 q 678 542 706 585 q 601 469 650 499 q 478 427 553 439 l 481 444 q 522 440 506 444 q 551 422 538 435 q 578 383 564 408 l 799 0 l 653 0 m 112 0 l 112 1010 l 240 1010 l 240 0 l 112 0 m 330 -362 q 340 -292 335 -334 q 347 -206 344 -250 q 350 -130 350 -162 l 350 -89 l 483 -89 l 483 -138 q 477 -219 483 -177 q 464 -298 472 -260 q 448 -362 456 -335 l 330 -362 z "},"S":{"ha":833,"x_min":61,"x_max":766,"o":"m 422 -14 q 236 19 317 -14 q 109 123 156 53 q 61 304 63 193 l 189 304 q 224 185 190 229 q 311 122 257 141 q 426 103 365 103 q 545 124 498 103 q 615 180 592 145 q 639 254 639 215 q 610 347 639 311 q 526 406 581 382 q 398 453 472 430 q 249 520 316 480 q 142 619 182 560 q 103 758 103 678 q 147 907 103 847 q 264 996 190 966 q 425 1026 337 1026 q 640 956 557 1026 q 741 744 724 886 l 617 744 q 589 828 611 791 q 526 888 567 866 q 421 910 485 910 q 280 871 332 910 q 228 763 228 832 q 247 680 228 715 q 314 618 266 646 q 445 559 361 590 q 563 514 506 538 q 666 458 620 490 q 738 378 711 426 q 765 260 765 331 q 723 113 766 174 q 603 19 681 51 q 422 -14 526 -14 z "},"Ś":{"ha":833,"x_min":61,"x_max":766,"o":"m 422 -14 q 236 19 317 -14 q 109 123 156 53 q 61 304 63 193 l 189 304 q 224 185 190 229 q 311 122 257 141 q 426 103 365 103 q 545 124 498 103 q 615 180 592 145 q 639 254 639 215 q 610 347 639 311 q 526 406 581 382 q 398 453 472 430 q 249 520 316 480 q 142 619 182 560 q 103 758 103 678 q 147 907 103 847 q 264 996 190 966 q 425 1026 337 1026 q 640 956 557 1026 q 741 744 724 886 l 617 744 q 589 828 611 791 q 526 888 567 866 q 421 910 485 910 q 280 871 332 910 q 228 763 228 832 q 247 680 228 715 q 314 618 266 646 q 445 559 361 590 q 563 514 506 538 q 666 458 620 490 q 738 378 711 426 q 765 260 765 331 q 723 113 766 174 q 603 19 681 51 q 422 -14 526 -14 m 490 1105 l 351 1105 l 501 1327 l 662 1327 l 490 1105 z "},"Š":{"ha":833,"x_min":61,"x_max":766,"o":"m 422 -14 q 236 19 317 -14 q 109 123 156 53 q 61 304 63 193 l 189 304 q 224 185 190 229 q 311 122 257 141 q 426 103 365 103 q 545 124 498 103 q 615 180 592 145 q 639 254 639 215 q 610 347 639 311 q 526 406 581 382 q 398 453 472 430 q 249 520 316 480 q 142 619 182 560 q 103 758 103 678 q 147 907 103 847 q 264 996 190 966 q 425 1026 337 1026 q 640 956 557 1026 q 741 744 724 886 l 617 744 q 589 828 611 791 q 526 888 567 866 q 421 910 485 910 q 280 871 332 910 q 228 763 228 832 q 247 680 228 715 q 314 618 266 646 q 445 559 361 590 q 563 514 506 538 q 666 458 620 490 q 738 378 711 426 q 765 260 765 331 q 723 113 766 174 q 603 19 681 51 q 422 -14 526 -14 m 351 1103 l 192 1326 l 310 1326 l 417 1187 l 524 1326 l 641 1326 l 482 1103 l 351 1103 z "},"Ş":{"ha":833,"x_min":61,"x_max":766,"o":"m 422 -14 q 236 19 317 -14 q 109 123 156 53 q 61 304 63 193 l 189 304 q 224 185 190 229 q 311 122 257 141 q 426 103 365 103 q 545 124 498 103 q 615 180 592 145 q 639 254 639 215 q 610 347 639 311 q 526 406 581 382 q 398 453 472 430 q 249 520 316 480 q 142 619 182 560 q 103 758 103 678 q 147 907 103 847 q 264 996 190 966 q 425 1026 337 1026 q 640 956 557 1026 q 741 744 724 886 l 617 744 q 589 828 611 791 q 526 888 567 866 q 421 910 485 910 q 280 871 332 910 q 228 763 228 832 q 247 680 228 715 q 314 618 266 646 q 445 559 361 590 q 563 514 506 538 q 666 458 620 490 q 738 378 711 426 q 765 260 765 331 q 723 113 766 174 q 603 19 681 51 q 422 -14 526 -14 m 453 -312 q 393 -306 422 -312 q 335 -287 363 -300 l 335 -187 q 376 -203 354 -197 q 417 -208 397 -208 q 460 -192 445 -208 q 476 -148 476 -175 q 444 -73 476 -109 q 353 -6 413 -36 l 481 -6 q 573 -75 542 -32 q 604 -170 604 -119 q 564 -273 604 -233 q 453 -312 523 -312 z "},"Ș":{"ha":833,"x_min":61,"x_max":766,"o":"m 422 -14 q 236 19 317 -14 q 109 123 156 53 q 61 304 63 193 l 189 304 q 224 185 190 229 q 311 122 257 141 q 426 103 365 103 q 545 124 498 103 q 615 180 592 145 q 639 254 639 215 q 610 347 639 311 q 526 406 581 382 q 398 453 472 430 q 249 520 316 480 q 142 619 182 560 q 103 758 103 678 q 147 907 103 847 q 264 996 190 966 q 425 1026 337 1026 q 640 956 557 1026 q 741 744 724 886 l 617 744 q 589 828 611 791 q 526 888 567 866 q 421 910 485 910 q 280 871 332 910 q 228 763 228 832 q 247 680 228 715 q 314 618 266 646 q 445 559 361 590 q 563 514 506 538 q 666 458 620 490 q 738 378 711 426 q 765 260 765 331 q 723 113 766 174 q 603 19 681 51 q 422 -14 526 -14 m 344 -367 q 354 -298 349 -340 q 361 -212 358 -256 q 364 -135 364 -168 l 364 -94 l 497 -94 l 497 -144 q 491 -224 497 -183 q 478 -303 486 -266 q 462 -367 470 -341 l 344 -367 z "},"ẞ":{"ha":833,"x_min":94,"x_max":785,"o":"m 319 0 l 319 117 q 376 109 345 113 q 447 105 406 105 q 566 130 520 105 q 633 200 611 156 q 654 301 654 244 q 630 399 654 360 q 557 458 605 438 q 438 477 508 477 l 360 477 l 553 849 l 585 899 l 540 890 l 224 890 l 224 0 l 94 0 l 94 1010 l 777 1010 l 583 643 q 555 601 572 619 q 512 579 539 582 q 643 550 591 577 q 727 480 696 522 q 772 390 758 438 q 785 297 785 342 q 745 135 785 204 q 631 29 706 67 q 447 -9 556 -9 q 374 -6 407 -9 q 319 0 342 -3 z "},"Ə":{"ha":833,"x_min":56,"x_max":777,"o":"m 418 -20 q 270 13 337 -20 q 157 105 204 45 q 83 245 109 165 q 58 422 58 326 l 56 524 l 192 472 l 192 413 q 253 182 193 263 q 418 100 313 100 q 548 147 497 100 q 622 285 598 194 q 646 508 646 376 q 621 725 646 635 q 546 861 597 814 q 419 908 496 908 q 303 884 349 908 q 233 819 258 860 q 201 727 208 778 l 68 727 q 111 861 78 805 q 191 955 143 918 q 297 1010 238 992 q 417 1028 355 1028 q 681 894 585 1028 q 777 508 777 760 q 756 294 777 391 q 691 127 735 197 q 580 18 648 56 q 418 -20 512 -20 m 79 406 l 56 524 l 695 524 l 695 406 l 79 406 z "},"T":{"ha":833,"x_min":69,"x_max":764,"o":"m 351 0 l 351 830 q 360 870 351 854 q 387 892 370 886 l 69 892 l 69 1010 l 764 1010 l 764 892 l 483 892 l 483 0 l 351 0 z "},"Ŧ":{"ha":833,"x_min":69,"x_max":764,"o":"m 351 0 l 351 830 q 360 870 351 854 q 387 892 370 886 l 69 892 l 69 1010 l 764 1010 l 764 892 l 483 892 l 483 0 l 351 0 m 159 446 l 159 568 l 677 568 l 674 446 l 159 446 z "},"Ť":{"ha":833,"x_min":69,"x_max":764,"o":"m 351 0 l 351 830 q 360 870 351 854 q 387 892 370 886 l 69 892 l 69 1010 l 764 1010 l 764 892 l 483 892 l 483 0 l 351 0 m 351 1103 l 192 1326 l 310 1326 l 417 1187 l 524 1326 l 641 1326 l 482 1103 l 351 1103 z "},"Ţ":{"ha":833,"x_min":69,"x_max":764,"o":"m 351 0 l 351 830 q 360 870 351 854 q 387 892 370 886 l 69 892 l 69 1010 l 764 1010 l 764 892 l 483 892 l 483 0 l 351 0 m 452 -307 q 392 -301 422 -307 q 334 -282 363 -294 l 335 -182 q 375 -197 353 -192 q 416 -203 397 -203 q 460 -186 444 -203 q 475 -142 475 -169 q 444 -67 475 -103 q 353 0 413 -31 l 480 0 q 573 -70 542 -26 q 603 -165 603 -113 q 563 -267 603 -228 q 452 -307 522 -307 z "},"Ț":{"ha":833,"x_min":69,"x_max":764,"o":"m 351 0 l 351 830 q 360 870 351 854 q 387 892 370 886 l 69 892 l 69 1010 l 764 1010 l 764 892 l 483 892 l 483 0 l 351 0 m 334 -362 q 344 -292 340 -334 q 351 -206 349 -250 q 354 -130 354 -162 l 354 -89 l 487 -89 l 487 -138 q 482 -219 487 -177 q 468 -298 476 -260 q 452 -362 460 -335 l 334 -362 z "},"U":{"ha":833,"x_min":80,"x_max":753,"o":"m 419 -14 q 245 25 322 -14 q 124 148 169 65 q 80 361 80 231 l 80 1011 l 210 1011 l 210 377 q 227 250 210 301 q 274 166 244 198 q 342 121 304 135 q 420 107 380 107 q 495 121 458 107 q 560 166 531 135 q 607 250 590 198 q 624 377 624 301 l 624 1010 l 753 1010 l 753 361 q 708 148 753 231 q 588 25 663 65 q 419 -14 512 -14 z "},"Ú":{"ha":833,"x_min":80,"x_max":753,"o":"m 419 -14 q 245 25 322 -14 q 124 148 169 65 q 80 361 80 231 l 80 1011 l 210 1011 l 210 377 q 227 250 210 301 q 274 166 244 198 q 342 121 304 135 q 420 107 380 107 q 495 121 458 107 q 560 166 531 135 q 607 250 590 198 q 624 377 624 301 l 624 1010 l 753 1010 l 753 361 q 708 148 753 231 q 588 25 663 65 q 419 -14 512 -14 m 491 1105 l 351 1105 l 501 1327 l 663 1327 l 491 1105 z "},"Ŭ":{"ha":833,"x_min":80,"x_max":753,"o":"m 419 -14 q 245 25 322 -14 q 124 148 169 65 q 80 361 80 231 l 80 1011 l 210 1011 l 210 377 q 227 250 210 301 q 274 166 244 198 q 342 121 304 135 q 420 107 380 107 q 495 121 458 107 q 560 166 531 135 q 607 250 590 198 q 624 377 624 301 l 624 1010 l 753 1010 l 753 361 q 708 148 753 231 q 588 25 663 65 q 419 -14 512 -14 m 417 1105 q 258 1166 310 1105 q 214 1328 206 1227 l 326 1328 q 342 1232 319 1264 q 417 1201 366 1201 q 491 1231 466 1201 q 509 1328 516 1262 l 620 1328 q 604 1210 626 1260 q 535 1133 583 1160 q 417 1105 488 1105 z "},"Û":{"ha":833,"x_min":80,"x_max":753,"o":"m 419 -14 q 245 25 322 -14 q 124 148 169 65 q 80 361 80 231 l 80 1011 l 210 1011 l 210 377 q 227 250 210 301 q 274 166 244 198 q 342 121 304 135 q 420 107 380 107 q 495 121 458 107 q 560 166 531 135 q 607 250 590 198 q 624 377 624 301 l 624 1010 l 753 1010 l 753 361 q 708 148 753 231 q 588 25 663 65 q 419 -14 512 -14 m 193 1105 l 352 1328 l 483 1328 l 642 1105 l 525 1105 l 417 1244 l 310 1105 l 193 1105 z "},"Ü":{"ha":833,"x_min":80,"x_max":753,"o":"m 419 -14 q 245 25 322 -14 q 124 148 169 65 q 80 361 80 231 l 80 1011 l 210 1011 l 210 377 q 227 250 210 301 q 274 166 244 198 q 342 121 304 135 q 420 107 380 107 q 495 121 458 107 q 560 166 531 135 q 607 250 590 198 q 624 377 624 301 l 624 1010 l 753 1010 l 753 361 q 708 148 753 231 q 588 25 663 65 q 419 -14 512 -14 m 272 1098 q 209 1126 235 1098 q 183 1199 183 1155 q 209 1272 183 1244 q 272 1299 235 1299 q 334 1272 308 1299 q 360 1199 360 1244 q 334 1126 360 1155 q 272 1098 307 1098 m 563 1098 q 500 1126 527 1098 q 474 1199 474 1155 q 500 1272 474 1244 q 563 1299 527 1299 q 625 1272 599 1299 q 652 1199 652 1244 q 625 1126 652 1155 q 563 1098 598 1098 z "},"Ụ":{"ha":833,"x_min":80,"x_max":753,"o":"m 419 -14 q 245 25 322 -14 q 124 148 169 65 q 80 361 80 231 l 80 1011 l 210 1011 l 210 377 q 227 250 210 301 q 274 166 244 198 q 342 121 304 135 q 420 107 380 107 q 495 121 458 107 q 560 166 531 135 q 607 250 590 198 q 624 377 624 301 l 624 1010 l 753 1010 l 753 361 q 708 148 753 231 q 588 25 663 65 q 419 -14 512 -14 m 416 -319 q 345 -291 374 -319 q 317 -218 317 -262 q 345 -146 317 -174 q 416 -118 374 -118 q 486 -146 458 -118 q 515 -218 515 -174 q 486 -291 515 -262 q 416 -319 458 -319 z "},"Ù":{"ha":833,"x_min":80,"x_max":753,"o":"m 419 -14 q 245 25 322 -14 q 124 148 169 65 q 80 361 80 231 l 80 1011 l 210 1011 l 210 377 q 227 250 210 301 q 274 166 244 198 q 342 121 304 135 q 420 107 380 107 q 495 121 458 107 q 560 166 531 135 q 607 250 590 198 q 624 377 624 301 l 624 1010 l 753 1010 l 753 361 q 708 148 753 231 q 588 25 663 65 q 419 -14 512 -14 m 349 1105 l 178 1327 l 339 1327 l 488 1105 l 349 1105 z "},"Ű":{"ha":833,"x_min":80,"x_max":753,"o":"m 419 -14 q 245 25 322 -14 q 124 148 169 65 q 80 361 80 231 l 80 1011 l 210 1011 l 210 377 q 227 250 210 301 q 274 166 244 198 q 342 121 304 135 q 420 107 380 107 q 495 121 458 107 q 560 166 531 135 q 607 250 590 198 q 624 377 624 301 l 624 1010 l 753 1010 l 753 361 q 708 148 753 231 q 588 25 663 65 q 419 -14 512 -14 m 471 1105 l 593 1328 l 737 1328 l 597 1105 l 471 1105 m 225 1105 l 347 1328 l 490 1328 l 351 1105 l 225 1105 z "},"Ū":{"ha":833,"x_min":80,"x_max":753,"o":"m 419 -14 q 245 25 322 -14 q 124 148 169 65 q 80 361 80 231 l 80 1011 l 210 1011 l 210 377 q 227 250 210 301 q 274 166 244 198 q 342 121 304 135 q 420 107 380 107 q 495 121 458 107 q 560 166 531 135 q 607 250 590 198 q 624 377 624 301 l 624 1010 l 753 1010 l 753 361 q 708 148 753 231 q 588 25 663 65 q 419 -14 512 -14 m 201 1122 l 201 1239 l 634 1240 l 632 1122 l 201 1122 z "},"Ų":{"ha":833,"x_min":97,"x_max":821,"o":"m 462 -14 q 274 31 356 -14 q 144 165 191 75 q 97 393 97 256 l 97 1011 l 229 1011 l 229 392 q 248 256 229 310 q 300 168 267 201 q 375 121 333 135 q 463 107 417 107 q 547 121 506 107 q 619 168 587 135 q 670 256 651 201 q 689 392 689 310 l 689 1010 l 821 1010 l 821 393 q 773 165 821 256 q 644 31 725 75 q 462 -14 563 -14 m 484 -253 q 390 -220 425 -253 q 356 -135 356 -187 q 375 -74 356 -106 q 436 -17 394 -42 q 546 20 478 9 l 584 7 q 494 -51 523 -23 q 465 -112 465 -79 q 516 -161 465 -161 q 582 -147 550 -161 l 583 -233 q 538 -248 558 -244 q 484 -253 517 -253 z "},"Ů":{"ha":833,"x_min":80,"x_max":753,"o":"m 419 -14 q 245 25 322 -14 q 124 148 169 65 q 80 361 80 231 l 80 1011 l 210 1011 l 210 377 q 227 250 210 301 q 274 166 244 198 q 342 121 304 135 q 420 107 380 107 q 495 121 458 107 q 560 166 531 135 q 607 250 590 198 q 624 377 624 301 l 624 1010 l 753 1010 l 753 361 q 708 148 753 231 q 588 25 663 65 q 419 -14 512 -14 m 417 1087 q 310 1130 351 1087 q 269 1235 269 1174 q 310 1341 269 1299 q 417 1382 351 1382 q 524 1341 483 1382 q 565 1235 565 1299 q 547 1160 565 1194 q 495 1107 528 1126 q 417 1087 462 1087 m 417 1162 q 463 1182 444 1162 q 481 1235 481 1202 q 463 1291 481 1272 q 417 1309 444 1309 q 372 1291 390 1309 q 354 1235 354 1272 q 372 1182 354 1202 q 417 1162 390 1162 z "},"Ũ":{"ha":833,"x_min":80,"x_max":753,"o":"m 419 -14 q 245 25 322 -14 q 124 148 169 65 q 80 361 80 231 l 80 1011 l 210 1011 l 210 377 q 227 250 210 301 q 274 166 244 198 q 342 121 304 135 q 420 107 380 107 q 495 121 458 107 q 560 166 531 135 q 607 250 590 198 q 624 377 624 301 l 624 1010 l 753 1010 l 753 361 q 708 148 753 231 q 588 25 663 65 q 419 -14 512 -14 m 522 1090 q 446 1109 474 1090 q 398 1153 417 1128 q 362 1198 379 1178 q 319 1217 344 1217 q 273 1183 285 1217 q 269 1090 260 1149 l 169 1090 q 195 1253 155 1197 q 313 1308 235 1308 q 389 1289 360 1308 q 436 1245 417 1270 q 472 1201 455 1220 q 515 1182 490 1182 q 562 1214 549 1182 q 565 1308 574 1245 l 665 1308 q 640 1144 680 1198 q 522 1090 600 1090 z "},"V":{"ha":833,"x_min":26,"x_max":808,"o":"m 328 0 l 26 1010 l 173 1010 l 367 299 l 413 124 l 422 124 l 467 299 l 660 1010 l 808 1010 l 506 0 l 328 0 z "},"W":{"ha":833,"x_min":-6,"x_max":839,"o":"m 144 0 l -6 1010 l 131 1010 l 202 373 q 219 247 211 308 q 235 112 228 186 l 240 112 l 278 381 l 343 767 l 491 767 l 556 381 l 592 112 l 598 112 q 614 247 605 186 q 631 373 623 308 l 703 1010 l 839 1010 l 690 0 l 528 0 l 462 353 q 438 504 447 433 q 419 655 428 574 l 415 655 q 396 504 406 574 q 372 353 386 433 l 306 0 l 144 0 z "},"Ẃ":{"ha":833,"x_min":-6,"x_max":839,"o":"m 144 0 l -6 1010 l 131 1010 l 202 373 q 219 247 211 308 q 235 112 228 186 l 240 112 l 278 381 l 343 767 l 491 767 l 556 381 l 592 112 l 598 112 q 614 247 605 186 q 631 373 623 308 l 703 1010 l 839 1010 l 690 0 l 528 0 l 462 353 q 438 504 447 433 q 419 655 428 574 l 415 655 q 396 504 406 574 q 372 353 386 433 l 306 0 l 144 0 m 490 1105 l 351 1105 l 501 1327 l 662 1327 l 490 1105 z "},"Ŵ":{"ha":833,"x_min":-6,"x_max":839,"o":"m 144 0 l -6 1010 l 131 1010 l 202 373 q 219 247 211 308 q 235 112 228 186 l 240 112 l 278 381 l 343 767 l 491 767 l 556 381 l 592 112 l 598 112 q 614 247 605 186 q 631 373 623 308 l 703 1010 l 839 1010 l 690 0 l 528 0 l 462 353 q 438 504 447 433 q 419 655 428 574 l 415 655 q 396 504 406 574 q 372 353 386 433 l 306 0 l 144 0 m 192 1105 l 351 1328 l 482 1328 l 641 1105 l 524 1105 l 417 1244 l 310 1105 l 192 1105 z "},"Ẅ":{"ha":833,"x_min":-6,"x_max":839,"o":"m 144 0 l -6 1010 l 131 1010 l 202 373 q 219 247 211 308 q 235 112 228 186 l 240 112 l 278 381 l 343 767 l 491 767 l 556 381 l 592 112 l 598 112 q 614 247 605 186 q 631 373 623 308 l 703 1010 l 839 1010 l 690 0 l 528 0 l 462 353 q 438 504 447 433 q 419 655 428 574 l 415 655 q 396 504 406 574 q 372 353 386 433 l 306 0 l 144 0 m 271 1098 q 208 1126 235 1098 q 182 1199 182 1155 q 208 1272 182 1244 q 271 1299 235 1299 q 333 1272 307 1299 q 360 1199 360 1244 q 333 1126 360 1155 q 271 1098 306 1098 m 563 1098 q 500 1126 526 1098 q 473 1199 473 1155 q 500 1272 473 1244 q 563 1299 526 1299 q 625 1272 598 1299 q 651 1199 651 1244 q 624 1126 651 1155 q 563 1098 597 1098 z "},"Ẁ":{"ha":833,"x_min":-6,"x_max":839,"o":"m 144 0 l -6 1010 l 131 1010 l 202 373 q 219 247 211 308 q 235 112 228 186 l 240 112 l 278 381 l 343 767 l 491 767 l 556 381 l 592 112 l 598 112 q 614 247 605 186 q 631 373 623 308 l 703 1010 l 839 1010 l 690 0 l 528 0 l 462 353 q 438 504 447 433 q 419 655 428 574 l 415 655 q 396 504 406 574 q 372 353 386 433 l 306 0 l 144 0 m 349 1105 l 177 1327 l 338 1327 l 488 1105 l 349 1105 z "},"X":{"ha":833,"x_min":29,"x_max":804,"o":"m 31 0 l 330 503 l 29 1010 l 189 1010 l 301 797 l 418 586 l 533 797 l 642 1010 l 804 1010 l 504 503 l 803 0 l 641 0 l 533 206 l 416 423 l 301 206 l 191 0 l 31 0 z "},"Y":{"ha":833,"x_min":23,"x_max":810,"o":"m 357 339 l 23 1010 l 171 1010 l 298 734 l 411 488 l 422 488 l 535 733 l 663 1010 l 810 1010 l 477 339 l 357 339 m 353 0 l 353 406 l 480 406 l 480 0 l 353 0 z "},"Ý":{"ha":833,"x_min":23,"x_max":810,"o":"m 357 339 l 23 1010 l 171 1010 l 298 734 l 411 488 l 422 488 l 535 733 l 663 1010 l 810 1010 l 477 339 l 357 339 m 353 0 l 353 406 l 480 406 l 480 0 l 353 0 m 490 1105 l 351 1105 l 501 1327 l 662 1327 l 490 1105 z "},"Ŷ":{"ha":833,"x_min":23,"x_max":810,"o":"m 357 339 l 23 1010 l 171 1010 l 298 734 l 411 488 l 422 488 l 535 733 l 663 1010 l 810 1010 l 477 339 l 357 339 m 353 0 l 353 406 l 480 406 l 480 0 l 353 0 m 192 1105 l 351 1328 l 482 1328 l 641 1105 l 524 1105 l 417 1244 l 310 1105 l 192 1105 z "},"Ÿ":{"ha":833,"x_min":23,"x_max":810,"o":"m 357 339 l 23 1010 l 171 1010 l 298 734 l 411 488 l 422 488 l 535 733 l 663 1010 l 810 1010 l 477 339 l 357 339 m 353 0 l 353 406 l 480 406 l 480 0 l 353 0 m 271 1098 q 208 1126 235 1098 q 182 1199 182 1155 q 208 1272 182 1244 q 271 1299 235 1299 q 333 1272 307 1299 q 360 1199 360 1244 q 333 1126 360 1155 q 271 1098 306 1098 m 563 1098 q 500 1126 526 1098 q 473 1199 473 1155 q 500 1272 473 1244 q 563 1299 526 1299 q 625 1272 598 1299 q 651 1199 651 1244 q 624 1126 651 1155 q 563 1098 597 1098 z "},"Ỳ":{"ha":833,"x_min":23,"x_max":810,"o":"m 357 339 l 23 1010 l 171 1010 l 298 734 l 411 488 l 422 488 l 535 733 l 663 1010 l 810 1010 l 477 339 l 357 339 m 353 0 l 353 406 l 480 406 l 480 0 l 353 0 m 349 1105 l 177 1327 l 338 1327 l 488 1105 l 349 1105 z "},"Ȳ":{"ha":833,"x_min":23,"x_max":810,"o":"m 357 339 l 23 1010 l 171 1010 l 298 734 l 411 488 l 422 488 l 535 733 l 663 1010 l 810 1010 l 477 339 l 357 339 m 353 0 l 353 406 l 480 406 l 480 0 l 353 0 m 200 1122 l 200 1239 l 633 1240 l 631 1122 l 200 1122 z "},"Ỹ":{"ha":833,"x_min":23,"x_max":810,"o":"m 357 339 l 23 1010 l 171 1010 l 298 734 l 411 488 l 422 488 l 535 733 l 663 1010 l 810 1010 l 477 339 l 357 339 m 353 0 l 353 406 l 480 406 l 480 0 l 353 0 m 521 1090 q 445 1109 474 1090 q 398 1153 417 1128 q 361 1198 378 1178 q 319 1217 344 1217 q 272 1183 284 1217 q 269 1090 260 1149 l 169 1090 q 194 1253 154 1197 q 313 1308 235 1308 q 388 1289 360 1308 q 435 1245 417 1270 q 472 1201 454 1220 q 514 1182 489 1182 q 561 1214 549 1182 q 565 1308 574 1245 l 665 1308 q 639 1144 679 1198 q 521 1090 599 1090 z "},"Z":{"ha":833,"x_min":71,"x_max":781,"o":"m 71 0 l 534 813 l 601 900 l 482 896 l 126 896 l 126 1010 l 781 1010 l 330 219 l 253 106 l 376 114 l 748 114 l 748 0 l 71 0 z "},"Ź":{"ha":833,"x_min":71,"x_max":781,"o":"m 71 0 l 534 813 l 601 900 l 482 896 l 126 896 l 126 1010 l 781 1010 l 330 219 l 253 106 l 376 114 l 748 114 l 748 0 l 71 0 m 505 1105 l 365 1105 l 515 1327 l 676 1327 l 505 1105 z "},"Ž":{"ha":833,"x_min":71,"x_max":781,"o":"m 71 0 l 534 813 l 601 900 l 482 896 l 126 896 l 126 1010 l 781 1010 l 330 219 l 253 106 l 376 114 l 748 114 l 748 0 l 71 0 m 366 1103 l 207 1326 l 324 1326 l 431 1187 l 539 1326 l 656 1326 l 497 1103 l 366 1103 z "},"Ż":{"ha":833,"x_min":71,"x_max":781,"o":"m 71 0 l 534 813 l 601 900 l 482 896 l 126 896 l 126 1010 l 781 1010 l 330 219 l 253 106 l 376 114 l 748 114 l 748 0 l 71 0 m 430 1103 q 360 1131 388 1103 q 333 1203 333 1160 q 360 1275 333 1247 q 430 1303 388 1303 q 499 1275 471 1303 q 527 1203 527 1247 q 499 1131 527 1160 q 430 1103 471 1103 z "},"a":{"ha":833,"x_min":112,"x_max":713,"o":"m 343 -8 q 174 49 236 -8 q 112 203 112 106 q 167 342 112 288 q 335 417 222 396 q 424 431 379 426 q 512 441 469 437 q 589 446 554 444 l 589 504 q 550 626 589 590 q 428 663 510 663 q 297 627 341 663 q 256 505 253 592 l 135 505 q 161 645 126 585 q 264 739 195 706 q 428 772 333 772 q 641 703 569 772 q 713 500 713 634 l 713 0 l 590 0 l 589 165 q 539 75 574 114 q 453 14 503 35 q 343 -8 403 -8 m 380 94 q 471 111 426 94 q 549 158 516 129 q 589 220 581 187 l 589 367 q 531 362 564 366 q 465 353 498 358 q 408 342 433 348 q 283 292 319 323 q 248 210 248 262 q 282 125 248 156 q 380 94 317 94 z "},"á":{"ha":833,"x_min":112,"x_max":713,"o":"m 343 -8 q 174 49 236 -8 q 112 203 112 106 q 167 342 112 288 q 335 417 222 396 q 424 431 379 426 q 512 441 469 437 q 589 446 554 444 l 589 504 q 550 626 589 590 q 428 663 510 663 q 297 627 341 663 q 256 505 253 592 l 135 505 q 161 645 126 585 q 264 739 195 706 q 428 772 333 772 q 641 703 569 772 q 713 500 713 634 l 713 0 l 590 0 l 589 165 q 539 75 574 114 q 453 14 503 35 q 343 -8 403 -8 m 380 94 q 471 111 426 94 q 549 158 516 129 q 589 220 581 187 l 589 367 q 531 362 564 366 q 465 353 498 358 q 408 342 433 348 q 283 292 319 323 q 248 210 248 262 q 282 125 248 156 q 380 94 317 94 m 367 892 l 516 1115 l 670 1115 l 508 892 l 367 892 z "},"ă":{"ha":833,"x_min":112,"x_max":713,"o":"m 343 -8 q 174 49 236 -8 q 112 203 112 106 q 167 342 112 288 q 335 417 222 396 q 424 431 379 426 q 512 441 469 437 q 589 446 554 444 l 589 504 q 550 626 589 590 q 428 663 510 663 q 297 627 341 663 q 256 505 253 592 l 135 505 q 161 645 126 585 q 264 739 195 706 q 428 772 333 772 q 641 703 569 772 q 713 500 713 634 l 713 0 l 590 0 l 589 165 q 539 75 574 114 q 453 14 503 35 q 343 -8 403 -8 m 380 94 q 471 111 426 94 q 549 158 516 129 q 589 220 581 187 l 589 367 q 531 362 564 366 q 465 353 498 358 q 408 342 433 348 q 283 292 319 323 q 248 210 248 262 q 282 125 248 156 q 380 94 317 94 m 426 885 q 275 938 331 885 q 224 1099 218 990 l 331 1099 q 341 1022 328 1049 q 376 987 353 996 q 426 978 399 978 q 475 987 453 978 q 511 1023 498 997 q 520 1099 524 1049 l 627 1099 q 577 938 634 990 q 426 885 521 885 z "},"â":{"ha":833,"x_min":112,"x_max":713,"o":"m 343 -8 q 174 49 236 -8 q 112 203 112 106 q 167 342 112 288 q 335 417 222 396 q 424 431 379 426 q 512 441 469 437 q 589 446 554 444 l 589 504 q 550 626 589 590 q 428 663 510 663 q 297 627 341 663 q 256 505 253 592 l 135 505 q 161 645 126 585 q 264 739 195 706 q 428 772 333 772 q 641 703 569 772 q 713 500 713 634 l 713 0 l 590 0 l 589 165 q 539 75 574 114 q 453 14 503 35 q 343 -8 403 -8 m 380 94 q 471 111 426 94 q 549 158 516 129 q 589 220 581 187 l 589 367 q 531 362 564 366 q 465 353 498 358 q 408 342 433 348 q 283 292 319 323 q 248 210 248 262 q 282 125 248 156 q 380 94 317 94 m 206 891 l 358 1115 l 493 1115 l 646 891 l 529 891 l 426 1026 l 322 891 l 206 891 z "},"ä":{"ha":833,"x_min":112,"x_max":713,"o":"m 343 -8 q 174 49 236 -8 q 112 203 112 106 q 167 342 112 288 q 335 417 222 396 q 424 431 379 426 q 512 441 469 437 q 589 446 554 444 l 589 504 q 550 626 589 590 q 428 663 510 663 q 297 627 341 663 q 256 505 253 592 l 135 505 q 161 645 126 585 q 264 739 195 706 q 428 772 333 772 q 641 703 569 772 q 713 500 713 634 l 713 0 l 590 0 l 589 165 q 539 75 574 114 q 453 14 503 35 q 343 -8 403 -8 m 380 94 q 471 111 426 94 q 549 158 516 129 q 589 220 581 187 l 589 367 q 531 362 564 366 q 465 353 498 358 q 408 342 433 348 q 283 292 319 323 q 248 210 248 262 q 282 125 248 156 q 380 94 317 94 m 281 888 q 218 916 244 888 q 192 989 192 944 q 218 1061 192 1033 q 281 1089 244 1089 q 343 1061 317 1089 q 369 989 369 1033 q 343 916 369 944 q 281 888 316 888 m 571 888 q 508 916 535 888 q 482 989 482 944 q 508 1061 482 1034 q 571 1089 535 1089 q 633 1061 606 1089 q 660 989 660 1033 q 633 916 660 944 q 571 888 606 888 z "},"à":{"ha":833,"x_min":112,"x_max":713,"o":"m 343 -8 q 174 49 236 -8 q 112 203 112 106 q 167 342 112 288 q 335 417 222 396 q 424 431 379 426 q 512 441 469 437 q 589 446 554 444 l 589 504 q 550 626 589 590 q 428 663 510 663 q 297 627 341 663 q 256 505 253 592 l 135 505 q 161 645 126 585 q 264 739 195 706 q 428 772 333 772 q 641 703 569 772 q 713 500 713 634 l 713 0 l 590 0 l 589 165 q 539 75 574 114 q 453 14 503 35 q 343 -8 403 -8 m 380 94 q 471 111 426 94 q 549 158 516 129 q 589 220 581 187 l 589 367 q 531 362 564 366 q 465 353 498 358 q 408 342 433 348 q 283 292 319 323 q 248 210 248 262 q 282 125 248 156 q 380 94 317 94 m 501 892 l 360 892 l 199 1115 l 352 1115 l 501 892 z "},"ā":{"ha":833,"x_min":112,"x_max":713,"o":"m 343 -8 q 174 49 236 -8 q 112 203 112 106 q 167 342 112 288 q 335 417 222 396 q 424 431 379 426 q 512 441 469 437 q 589 446 554 444 l 589 504 q 550 626 589 590 q 428 663 510 663 q 297 627 341 663 q 256 505 253 592 l 135 505 q 161 645 126 585 q 264 739 195 706 q 428 772 333 772 q 641 703 569 772 q 713 500 713 634 l 713 0 l 590 0 l 589 165 q 539 75 574 114 q 453 14 503 35 q 343 -8 403 -8 m 380 94 q 471 111 426 94 q 549 158 516 129 q 589 220 581 187 l 589 367 q 531 362 564 366 q 465 353 498 358 q 408 342 433 348 q 283 292 319 323 q 248 210 248 262 q 282 125 248 156 q 380 94 317 94 m 240 904 l 240 1017 l 613 1017 l 610 904 l 240 904 z "},"ą":{"ha":833,"x_min":112,"x_max":713,"o":"m 343 -8 q 174 49 236 -8 q 112 203 112 106 q 167 342 112 288 q 335 417 222 396 q 424 431 379 426 q 512 441 469 437 q 589 446 554 444 l 589 504 q 550 626 589 590 q 428 663 510 663 q 297 627 341 663 q 256 505 253 592 l 135 505 q 161 645 126 585 q 264 739 195 706 q 428 772 333 772 q 641 703 569 772 q 713 500 713 634 l 713 0 l 590 0 l 589 165 q 539 75 574 114 q 453 14 503 35 q 343 -8 403 -8 m 380 94 q 471 111 426 94 q 549 158 516 129 q 589 220 581 187 l 589 367 q 531 362 564 366 q 465 353 498 358 q 408 342 433 348 q 283 292 319 323 q 248 210 248 262 q 282 125 248 156 q 380 94 317 94 m 610 -297 q 499 -260 539 -297 q 458 -165 458 -224 q 499 -65 458 -109 q 617 0 540 -20 l 713 0 q 614 -68 646 -35 q 583 -137 583 -101 q 598 -179 583 -165 q 640 -193 613 -193 q 712 -177 676 -193 l 713 -276 q 673 -291 695 -284 q 610 -297 651 -297 z "},"å":{"ha":833,"x_min":112,"x_max":713,"o":"m 343 -8 q 174 49 236 -8 q 112 203 112 106 q 167 342 112 288 q 335 417 222 396 q 424 431 379 426 q 512 441 469 437 q 589 446 554 444 l 589 504 q 550 626 589 590 q 428 663 510 663 q 297 627 341 663 q 256 505 253 592 l 135 505 q 161 645 126 585 q 264 739 195 706 q 428 772 333 772 q 641 703 569 772 q 713 500 713 634 l 713 0 l 590 0 l 589 165 q 539 75 574 114 q 453 14 503 35 q 343 -8 403 -8 m 380 94 q 471 111 426 94 q 549 158 516 129 q 589 220 581 187 l 589 367 q 531 362 564 366 q 465 353 498 358 q 408 342 433 348 q 283 292 319 323 q 248 210 248 262 q 282 125 248 156 q 380 94 317 94 m 426 876 q 302 921 349 876 q 256 1040 256 965 q 302 1159 256 1115 q 426 1203 349 1203 q 551 1159 505 1203 q 597 1040 597 1115 q 551 921 597 965 q 426 876 505 876 m 426 958 q 484 980 463 958 q 506 1040 506 1002 q 484 1100 506 1078 q 426 1122 463 1122 q 369 1100 390 1122 q 348 1040 348 1078 q 369 980 348 1002 q 426 958 390 958 z "},"ǻ":{"ha":833,"x_min":112,"x_max":713,"o":"m 343 -8 q 174 49 236 -8 q 112 203 112 106 q 167 342 112 288 q 335 417 222 396 q 424 431 379 426 q 512 441 469 437 q 589 446 554 444 l 589 504 q 550 626 589 590 q 428 663 510 663 q 297 627 341 663 q 256 505 253 592 l 135 505 q 161 645 126 585 q 264 739 195 706 q 428 772 333 772 q 641 703 569 772 q 713 500 713 634 l 713 0 l 590 0 l 589 165 q 539 75 574 114 q 453 14 503 35 q 343 -8 403 -8 m 380 94 q 471 111 426 94 q 549 158 516 129 q 589 220 581 187 l 589 367 q 531 362 564 366 q 465 353 498 358 q 408 342 433 348 q 283 292 319 323 q 248 210 248 262 q 282 125 248 156 q 380 94 317 94 m 388 1188 l 469 1328 l 600 1328 l 487 1188 l 388 1188 m 426 876 q 302 921 349 876 q 256 1040 256 965 q 302 1159 256 1115 q 426 1203 349 1203 q 551 1159 505 1203 q 597 1040 597 1115 q 551 921 597 965 q 426 876 505 876 m 426 958 q 484 980 463 958 q 506 1040 506 1002 q 484 1100 506 1078 q 426 1122 463 1122 q 369 1100 390 1122 q 348 1040 348 1078 q 369 980 348 1002 q 426 958 390 958 z "},"ã":{"ha":833,"x_min":112,"x_max":713,"o":"m 343 -8 q 174 49 236 -8 q 112 203 112 106 q 167 342 112 288 q 335 417 222 396 q 424 431 379 426 q 512 441 469 437 q 589 446 554 444 l 589 504 q 550 626 589 590 q 428 663 510 663 q 297 627 341 663 q 256 505 253 592 l 135 505 q 161 645 126 585 q 264 739 195 706 q 428 772 333 772 q 641 703 569 772 q 713 500 713 634 l 713 0 l 590 0 l 589 165 q 539 75 574 114 q 453 14 503 35 q 343 -8 403 -8 m 380 94 q 471 111 426 94 q 549 158 516 129 q 589 220 581 187 l 589 367 q 531 362 564 366 q 465 353 498 358 q 408 342 433 348 q 283 292 319 323 q 248 210 248 262 q 282 125 248 156 q 380 94 317 94 m 529 890 q 453 909 482 890 q 406 953 425 928 q 370 997 387 978 q 329 1016 353 1016 q 281 983 293 1016 q 277 890 268 949 l 175 890 q 201 1052 161 997 q 321 1108 241 1108 q 397 1089 368 1108 q 443 1045 425 1069 q 479 1001 462 1020 q 519 982 496 982 q 569 1013 556 982 q 573 1108 582 1044 l 674 1108 q 648 943 688 997 q 529 890 608 890 z "},"æ":{"ha":833,"x_min":31,"x_max":815,"o":"m 204 -9 q 79 49 127 -9 q 31 206 31 108 q 66 339 31 287 q 176 417 102 391 q 268 438 222 433 q 347 446 315 444 l 347 488 q 325 620 347 582 q 251 659 303 659 q 202 647 223 659 q 170 602 181 635 q 160 506 159 569 l 44 506 q 61 652 36 593 q 136 742 86 712 q 249 772 185 772 q 358 739 313 772 q 419 631 402 705 q 490 738 442 703 q 601 773 538 773 q 759 683 704 773 q 815 424 815 593 q 814 390 815 404 q 812 359 813 375 l 463 359 q 480 216 465 274 q 522 129 494 158 q 590 100 550 100 q 659 134 635 100 q 686 215 683 168 l 805 215 q 778 97 803 148 q 707 19 752 47 q 603 -9 663 -9 q 508 14 551 -9 q 433 82 465 37 q 383 193 401 127 q 322 44 366 97 q 204 -9 278 -9 m 231 94 q 285 113 260 94 q 329 160 311 131 q 351 217 347 189 l 351 368 q 302 359 331 366 q 249 342 274 352 q 178 293 201 323 q 156 210 156 264 q 175 127 156 160 q 231 94 195 94 m 461 409 q 479 446 465 435 q 520 456 493 456 l 693 456 q 669 608 693 557 q 590 659 646 659 q 495 594 526 659 q 461 409 465 529 z "},"ǽ":{"ha":833,"x_min":31,"x_max":815,"o":"m 204 -9 q 79 49 127 -9 q 31 206 31 108 q 66 339 31 287 q 176 417 102 391 q 268 438 222 433 q 347 446 315 444 l 347 488 q 325 620 347 582 q 251 659 303 659 q 202 647 223 659 q 170 602 181 635 q 160 506 159 569 l 44 506 q 61 652 36 593 q 136 742 86 712 q 249 772 185 772 q 358 739 313 772 q 419 631 402 705 q 490 738 442 703 q 601 773 538 773 q 759 683 704 773 q 815 424 815 593 q 814 390 815 404 q 812 359 813 375 l 463 359 q 480 216 465 274 q 522 129 494 158 q 590 100 550 100 q 659 134 635 100 q 686 215 683 168 l 805 215 q 778 97 803 148 q 707 19 752 47 q 603 -9 663 -9 q 508 14 551 -9 q 433 82 465 37 q 383 193 401 127 q 322 44 366 97 q 204 -9 278 -9 m 231 94 q 285 113 260 94 q 329 160 311 131 q 351 217 347 189 l 351 368 q 302 359 331 366 q 249 342 274 352 q 178 293 201 323 q 156 210 156 264 q 175 127 156 160 q 231 94 195 94 m 461 409 q 479 446 465 435 q 520 456 493 456 l 693 456 q 669 608 693 557 q 590 659 646 659 q 495 594 526 659 q 461 409 465 529 m 362 892 l 511 1115 l 665 1115 l 503 892 l 362 892 z "},"b":{"ha":833,"x_min":123,"x_max":751,"o":"m 440 -8 q 357 11 399 -8 q 283 64 315 30 q 242 141 252 97 l 202 161 l 248 209 q 284 147 258 171 q 344 113 310 124 q 410 103 378 103 q 517 137 470 103 q 592 237 565 171 q 619 401 619 303 q 576 592 619 525 q 443 660 533 660 q 368 645 408 660 q 296 600 328 631 q 251 521 264 569 l 244 567 l 251 592 q 292 685 259 644 q 376 749 326 726 q 483 772 426 772 q 625 730 565 772 q 718 604 685 687 q 751 400 751 521 q 708 181 751 273 q 594 41 665 90 q 440 -8 524 -8 m 124 0 l 123 1081 l 251 1081 l 251 742 l 251 156 l 264 131 l 251 119 l 247 0 l 124 0 z "},"c":{"ha":833,"x_min":101,"x_max":732,"o":"m 440 -12 q 261 36 337 -12 q 143 172 185 84 q 101 379 101 260 q 144 593 101 505 q 262 726 187 681 q 434 772 338 772 q 595 732 529 772 q 696 625 661 692 q 732 479 731 558 l 603 479 q 592 545 602 513 q 561 603 582 577 q 509 644 541 629 q 431 660 477 660 q 281 586 331 660 q 232 383 232 513 q 286 173 232 246 q 444 101 340 101 q 529 116 495 101 q 581 158 563 132 q 603 215 599 184 l 728 215 q 689 98 726 149 q 586 17 651 47 q 440 -12 522 -12 z "},"ć":{"ha":833,"x_min":101,"x_max":732,"o":"m 440 -12 q 261 36 337 -12 q 143 172 185 84 q 101 379 101 260 q 144 593 101 505 q 262 726 187 681 q 434 772 338 772 q 595 732 529 772 q 696 625 661 692 q 732 479 731 558 l 603 479 q 592 545 602 513 q 561 603 582 577 q 509 644 541 629 q 431 660 477 660 q 281 586 331 660 q 232 383 232 513 q 286 173 232 246 q 444 101 340 101 q 529 116 495 101 q 581 158 563 132 q 603 215 599 184 l 728 215 q 689 98 726 149 q 586 17 651 47 q 440 -12 522 -12 m 365 892 l 514 1115 l 668 1115 l 506 892 l 365 892 z "},"č":{"ha":833,"x_min":101,"x_max":732,"o":"m 440 -12 q 261 36 337 -12 q 143 172 185 84 q 101 379 101 260 q 144 593 101 505 q 262 726 187 681 q 434 772 338 772 q 595 732 529 772 q 696 625 661 692 q 732 479 731 558 l 603 479 q 592 545 602 513 q 561 603 582 577 q 509 644 541 629 q 431 660 477 660 q 281 586 331 660 q 232 383 232 513 q 286 173 232 246 q 444 101 340 101 q 529 116 495 101 q 581 158 563 132 q 603 215 599 184 l 728 215 q 689 98 726 149 q 586 17 651 47 q 440 -12 522 -12 m 356 884 l 203 1108 l 320 1108 l 424 971 l 527 1108 l 644 1108 l 491 884 l 356 884 z "},"ç":{"ha":833,"x_min":101,"x_max":732,"o":"m 440 -12 q 261 36 337 -12 q 143 172 185 84 q 101 379 101 260 q 144 593 101 505 q 262 726 187 681 q 434 772 338 772 q 595 732 529 772 q 696 625 661 692 q 732 479 731 558 l 603 479 q 592 545 602 513 q 561 603 582 577 q 509 644 541 629 q 431 660 477 660 q 281 586 331 660 q 232 383 232 513 q 286 173 232 246 q 444 101 340 101 q 529 116 495 101 q 581 158 563 132 q 603 215 599 184 l 728 215 q 689 98 726 149 q 586 17 651 47 q 440 -12 522 -12 m 424 -306 q 349 -300 377 -306 q 293 -281 321 -294 l 294 -182 q 335 -197 312 -191 q 390 -202 358 -202 q 444 -185 431 -202 q 457 -139 457 -168 q 436 -67 457 -99 q 369 0 416 -35 l 473 0 q 526 -41 501 -16 q 565 -98 550 -66 q 580 -167 580 -129 q 538 -268 580 -231 q 424 -306 496 -306 z "},"ċ":{"ha":833,"x_min":101,"x_max":732,"o":"m 440 -12 q 261 36 337 -12 q 143 172 185 84 q 101 379 101 260 q 144 593 101 505 q 262 726 187 681 q 434 772 338 772 q 595 732 529 772 q 696 625 661 692 q 732 479 731 558 l 603 479 q 592 545 602 513 q 561 603 582 577 q 509 644 541 629 q 431 660 477 660 q 281 586 331 660 q 232 383 232 513 q 286 173 232 246 q 444 101 340 101 q 529 116 495 101 q 581 158 563 132 q 603 215 599 184 l 728 215 q 689 98 726 149 q 586 17 651 47 q 440 -12 522 -12 m 424 891 q 352 920 381 891 q 322 996 322 949 q 352 1073 322 1043 q 424 1102 381 1102 q 495 1073 466 1102 q 525 996 525 1043 q 495 920 525 949 q 424 891 466 891 z "},"d":{"ha":833,"x_min":91,"x_max":718,"o":"m 378 -8 q 229 39 294 -8 q 127 173 164 86 q 91 381 91 260 q 132 589 91 501 q 245 725 174 677 q 406 772 316 772 q 493 752 453 772 q 561 699 533 733 q 598 620 588 665 l 638 597 l 592 545 q 557 609 582 584 q 502 647 533 635 q 440 660 471 660 q 284 587 344 660 q 224 379 224 514 q 247 234 224 297 q 313 136 269 172 q 418 101 356 101 q 488 116 453 101 q 550 162 522 131 q 589 238 577 192 l 596 197 l 590 172 q 551 79 582 119 q 474 15 519 38 q 378 -8 429 -8 m 590 0 l 589 238 l 589 1081 l 717 1081 l 718 0 l 590 0 z "},"ð":{"ha":833,"x_min":86,"x_max":739,"o":"m 419 -10 q 249 34 324 -10 q 130 162 174 78 q 86 362 86 246 q 130 553 86 475 q 244 671 174 631 q 394 712 314 712 q 518 680 467 712 q 599 593 569 648 q 549 752 586 672 q 460 909 513 833 l 315 805 l 315 934 l 401 988 q 336 1062 369 1027 q 267 1128 302 1097 l 422 1143 q 466 1099 445 1122 q 507 1051 488 1076 l 653 1151 l 651 1022 l 567 972 q 693 722 648 856 q 739 428 739 587 q 712 219 739 303 q 640 84 685 135 q 536 12 594 34 q 419 -10 479 -10 m 417 108 q 521 136 478 108 q 585 227 563 165 q 608 393 608 290 q 606 437 608 412 q 603 481 605 462 q 597 503 601 501 q 559 546 583 524 q 500 583 535 568 q 419 599 466 599 q 318 574 363 599 q 245 497 272 550 q 219 358 219 444 q 275 169 219 230 q 417 108 331 108 z "},"ď":{"ha":833,"x_min":91,"x_max":919,"o":"m 378 -8 q 229 39 294 -8 q 127 173 164 86 q 91 381 91 260 q 132 589 91 501 q 245 725 174 677 q 406 772 316 772 q 493 752 453 772 q 561 699 533 733 q 598 620 588 665 l 638 597 l 592 545 q 557 609 582 584 q 502 647 533 635 q 440 660 471 660 q 284 587 344 660 q 224 379 224 514 q 247 234 224 297 q 313 136 269 172 q 418 101 356 101 q 488 116 453 101 q 550 162 522 131 q 589 238 577 192 l 596 197 l 590 172 q 551 79 582 119 q 474 15 519 38 q 378 -8 429 -8 m 590 0 l 589 238 l 589 1081 l 717 1081 l 718 0 l 590 0 m 781 827 l 796 1083 l 919 1083 l 888 827 l 781 827 z "},"đ":{"ha":833,"x_min":91,"x_max":782,"o":"m 396 867 l 396 974 l 782 974 l 781 867 l 396 867 m 378 -8 q 229 39 294 -8 q 127 173 164 86 q 91 381 91 260 q 132 589 91 501 q 245 725 174 677 q 406 772 316 772 q 493 752 453 772 q 561 699 533 733 q 598 620 588 665 l 638 597 l 592 545 q 557 609 582 584 q 502 647 533 635 q 440 660 471 660 q 284 587 344 660 q 224 379 224 514 q 247 234 224 297 q 313 136 269 172 q 418 101 356 101 q 488 116 453 101 q 550 162 522 131 q 589 238 577 192 l 596 197 l 590 172 q 551 79 582 119 q 474 15 519 38 q 378 -8 429 -8 m 590 0 l 589 238 l 589 1081 l 717 1081 l 718 0 l 590 0 z "},"e":{"ha":833,"x_min":102,"x_max":739,"o":"m 440 -10 q 270 35 347 -10 q 148 168 193 80 q 102 383 102 256 q 145 593 102 506 q 262 727 188 681 q 432 773 337 773 q 655 681 571 773 q 739 421 739 589 q 738 384 739 399 q 735 353 736 369 l 228 353 q 260 213 230 268 q 339 130 290 157 q 442 102 387 102 q 550 128 510 102 q 603 215 590 155 l 724 215 q 680 94 717 144 q 582 17 643 44 q 440 -10 521 -10 m 228 401 q 253 441 234 431 q 303 451 272 451 l 608 451 q 564 607 608 554 q 433 660 520 660 q 282 591 333 660 q 228 401 230 522 z "},"é":{"ha":833,"x_min":102,"x_max":739,"o":"m 440 -10 q 270 35 347 -10 q 148 168 193 80 q 102 383 102 256 q 145 593 102 506 q 262 727 188 681 q 432 773 337 773 q 655 681 571 773 q 739 421 739 589 q 738 384 739 399 q 735 353 736 369 l 228 353 q 260 213 230 268 q 339 130 290 157 q 442 102 387 102 q 550 128 510 102 q 603 215 590 155 l 724 215 q 680 94 717 144 q 582 17 643 44 q 440 -10 521 -10 m 228 401 q 253 441 234 431 q 303 451 272 451 l 608 451 q 564 607 608 554 q 433 660 520 660 q 282 591 333 660 q 228 401 230 522 m 378 892 l 528 1115 l 682 1115 l 520 892 l 378 892 z "},"ĕ":{"ha":833,"x_min":102,"x_max":739,"o":"m 440 -10 q 270 35 347 -10 q 148 168 193 80 q 102 383 102 256 q 145 593 102 506 q 262 727 188 681 q 432 773 337 773 q 655 681 571 773 q 739 421 739 589 q 738 384 739 399 q 735 353 736 369 l 228 353 q 260 213 230 268 q 339 130 290 157 q 442 102 387 102 q 550 128 510 102 q 603 215 590 155 l 724 215 q 680 94 717 144 q 582 17 643 44 q 440 -10 521 -10 m 228 401 q 253 441 234 431 q 303 451 272 451 l 608 451 q 564 607 608 554 q 433 660 520 660 q 282 591 333 660 q 228 401 230 522 m 438 885 q 286 938 343 885 q 236 1099 230 990 l 343 1099 q 353 1022 340 1049 q 388 987 365 996 q 438 978 411 978 q 487 987 465 978 q 523 1023 510 997 q 532 1099 535 1049 l 639 1099 q 589 938 646 990 q 438 885 533 885 z "},"ě":{"ha":833,"x_min":102,"x_max":739,"o":"m 440 -10 q 270 35 347 -10 q 148 168 193 80 q 102 383 102 256 q 145 593 102 506 q 262 727 188 681 q 432 773 337 773 q 655 681 571 773 q 739 421 739 589 q 738 384 739 399 q 735 353 736 369 l 228 353 q 260 213 230 268 q 339 130 290 157 q 442 102 387 102 q 550 128 510 102 q 603 215 590 155 l 724 215 q 680 94 717 144 q 582 17 643 44 q 440 -10 521 -10 m 228 401 q 253 441 234 431 q 303 451 272 451 l 608 451 q 564 607 608 554 q 433 660 520 660 q 282 591 333 660 q 228 401 230 522 m 370 884 l 217 1108 l 334 1108 l 438 971 l 541 1108 l 658 1108 l 505 884 l 370 884 z "},"ê":{"ha":833,"x_min":102,"x_max":739,"o":"m 440 -10 q 270 35 347 -10 q 148 168 193 80 q 102 383 102 256 q 145 593 102 506 q 262 727 188 681 q 432 773 337 773 q 655 681 571 773 q 739 421 739 589 q 738 384 739 399 q 735 353 736 369 l 228 353 q 260 213 230 268 q 339 130 290 157 q 442 102 387 102 q 550 128 510 102 q 603 215 590 155 l 724 215 q 680 94 717 144 q 582 17 643 44 q 440 -10 521 -10 m 228 401 q 253 441 234 431 q 303 451 272 451 l 608 451 q 564 607 608 554 q 433 660 520 660 q 282 591 333 660 q 228 401 230 522 m 217 891 l 370 1115 l 505 1115 l 658 891 l 541 891 l 438 1026 l 334 891 l 217 891 z "},"ë":{"ha":833,"x_min":102,"x_max":739,"o":"m 440 -10 q 270 35 347 -10 q 148 168 193 80 q 102 383 102 256 q 145 593 102 506 q 262 727 188 681 q 432 773 337 773 q 655 681 571 773 q 739 421 739 589 q 738 384 739 399 q 735 353 736 369 l 228 353 q 260 213 230 268 q 339 130 290 157 q 442 102 387 102 q 550 128 510 102 q 603 215 590 155 l 724 215 q 680 94 717 144 q 582 17 643 44 q 440 -10 521 -10 m 228 401 q 253 441 234 431 q 303 451 272 451 l 608 451 q 564 607 608 554 q 433 660 520 660 q 282 591 333 660 q 228 401 230 522 m 292 888 q 230 916 256 888 q 203 989 203 944 q 230 1061 203 1033 q 292 1089 256 1089 q 355 1061 328 1089 q 381 989 381 1033 q 355 916 381 944 q 292 888 328 888 m 583 888 q 520 916 547 888 q 494 989 494 944 q 520 1061 494 1034 q 583 1089 547 1089 q 645 1061 618 1089 q 672 989 672 1033 q 644 916 672 944 q 583 888 617 888 z "},"ė":{"ha":833,"x_min":102,"x_max":739,"o":"m 440 -10 q 270 35 347 -10 q 148 168 193 80 q 102 383 102 256 q 145 593 102 506 q 262 727 188 681 q 432 773 337 773 q 655 681 571 773 q 739 421 739 589 q 738 384 739 399 q 735 353 736 369 l 228 353 q 260 213 230 268 q 339 130 290 157 q 442 102 387 102 q 550 128 510 102 q 603 215 590 155 l 724 215 q 680 94 717 144 q 582 17 643 44 q 440 -10 521 -10 m 228 401 q 253 441 234 431 q 303 451 272 451 l 608 451 q 564 607 608 554 q 433 660 520 660 q 282 591 333 660 q 228 401 230 522 m 438 891 q 366 920 395 891 q 336 996 336 949 q 366 1073 336 1043 q 438 1102 395 1102 q 509 1073 480 1102 q 539 996 539 1043 q 509 920 539 949 q 438 891 480 891 z "},"è":{"ha":833,"x_min":102,"x_max":739,"o":"m 440 -10 q 270 35 347 -10 q 148 168 193 80 q 102 383 102 256 q 145 593 102 506 q 262 727 188 681 q 432 773 337 773 q 655 681 571 773 q 739 421 739 589 q 738 384 739 399 q 735 353 736 369 l 228 353 q 260 213 230 268 q 339 130 290 157 q 442 102 387 102 q 550 128 510 102 q 603 215 590 155 l 724 215 q 680 94 717 144 q 582 17 643 44 q 440 -10 521 -10 m 228 401 q 253 441 234 431 q 303 451 272 451 l 608 451 q 564 607 608 554 q 433 660 520 660 q 282 591 333 660 q 228 401 230 522 m 513 892 l 372 892 l 210 1115 l 364 1115 l 513 892 z "},"ē":{"ha":833,"x_min":102,"x_max":739,"o":"m 440 -10 q 270 35 347 -10 q 148 168 193 80 q 102 383 102 256 q 145 593 102 506 q 262 727 188 681 q 432 773 337 773 q 655 681 571 773 q 739 421 739 589 q 738 384 739 399 q 735 353 736 369 l 228 353 q 260 213 230 268 q 339 130 290 157 q 442 102 387 102 q 550 128 510 102 q 603 215 590 155 l 724 215 q 680 94 717 144 q 582 17 643 44 q 440 -10 521 -10 m 228 401 q 253 441 234 431 q 303 451 272 451 l 608 451 q 564 607 608 554 q 433 660 520 660 q 282 591 333 660 q 228 401 230 522 m 251 904 l 251 1017 l 624 1017 l 622 904 l 251 904 z "},"ę":{"ha":833,"x_min":56,"x_max":716,"o":"m 499 -262 q 405 -227 440 -262 q 369 -151 369 -193 q 391 -70 369 -103 q 447 -14 413 -37 q 521 24 482 9 l 575 31 q 519 -16 540 7 q 489 -62 498 -38 q 479 -114 479 -85 q 493 -155 479 -141 q 531 -168 506 -168 q 562 -164 544 -168 q 596 -153 579 -160 l 597 -242 q 547 -257 572 -253 q 499 -262 522 -262 m 402 -10 q 219 35 297 -10 q 99 168 142 80 q 56 383 56 256 q 101 592 56 505 q 223 726 145 680 q 400 773 301 773 q 569 731 499 773 q 678 609 640 688 q 715 421 716 531 q 714 384 715 401 q 712 359 713 367 l 585 456 q 538 606 584 553 q 395 659 491 659 q 238 584 289 659 q 185 378 187 508 q 244 170 185 241 q 397 100 303 100 q 515 132 473 100 q 568 215 557 165 l 694 215 q 650 92 690 143 q 547 16 611 42 q 402 -10 483 -10 m 163 359 l 188 411 q 211 448 192 440 q 255 456 231 456 l 668 456 l 712 359 l 163 359 z "},"ə":{"ha":833,"x_min":94,"x_max":731,"o":"m 393 768 q 564 723 487 768 q 686 590 640 678 q 731 375 731 503 q 689 165 731 252 q 571 31 646 78 q 401 -15 497 -15 q 178 77 263 -15 q 94 337 94 169 q 96 374 94 359 q 98 404 97 389 l 605 404 q 573 545 603 490 q 495 628 543 601 q 391 656 447 656 q 284 629 323 656 q 231 542 244 603 l 109 542 q 153 664 117 613 q 252 741 190 715 q 393 768 313 768 m 605 356 q 581 317 599 327 q 530 307 562 307 l 225 307 q 270 150 226 203 q 400 97 314 97 q 552 167 500 97 q 605 356 604 236 z "},"f":{"ha":833,"x_min":149,"x_max":774,"o":"m 315 17 l 315 526 q 330 607 315 578 q 390 642 345 636 l 315 727 l 315 886 q 352 1036 315 977 q 454 1125 389 1096 q 603 1154 519 1154 q 670 1151 636 1154 q 733 1145 705 1149 q 774 1138 760 1142 l 774 1015 q 733 1025 760 1020 q 673 1033 705 1030 q 612 1036 640 1036 q 526 1023 565 1036 q 464 975 488 1009 q 440 880 440 941 l 440 17 l 315 17 m 166 0 l 166 106 l 681 106 l 681 0 l 166 0 m 149 642 l 149 758 l 684 758 l 684 642 l 149 642 z "},"g":{"ha":833,"x_min":76,"x_max":775,"o":"m 432 -315 q 246 -287 326 -315 q 121 -211 166 -260 q 76 -94 76 -161 q 97 -11 76 -47 q 156 45 118 24 q 244 69 194 66 l 274 66 q 240 39 256 55 q 213 -2 224 23 q 203 -66 203 -28 q 223 -135 203 -103 q 294 -185 244 -166 q 431 -204 344 -204 q 594 -169 544 -204 q 645 -72 645 -135 q 618 -11 645 -31 q 512 19 591 8 l 332 42 q 195 78 240 54 q 136 130 151 102 q 122 182 122 158 q 140 239 122 216 q 185 275 158 262 q 242 294 213 289 q 294 297 272 299 q 256 270 271 288 q 242 223 242 253 q 268 174 242 190 q 359 149 295 158 l 540 127 q 686 84 635 115 q 756 14 738 54 q 775 -70 775 -26 q 750 -176 775 -131 q 680 -253 726 -222 q 572 -299 635 -283 q 432 -315 509 -315 m 427 267 q 217 335 295 267 q 140 518 140 403 q 218 704 140 635 q 428 771 297 772 q 578 740 514 770 q 678 653 642 709 q 715 518 715 597 q 637 334 715 402 q 427 267 560 267 m 428 372 q 552 409 510 372 q 594 519 594 447 q 551 627 594 589 q 426 666 509 666 q 301 628 342 666 q 260 519 260 591 q 303 410 260 449 q 428 372 345 372 m 511 744 l 502 751 q 535 841 508 806 q 601 895 562 877 q 681 913 640 913 q 716 911 703 913 q 737 906 728 910 l 737 782 q 697 788 715 785 q 651 790 678 790 q 599 786 624 790 q 553 773 575 783 q 511 744 532 763 z "},"ǵ":{"ha":833,"x_min":76,"x_max":785,"o":"m 432 -315 q 246 -287 326 -315 q 121 -211 166 -260 q 76 -94 76 -161 q 97 -11 76 -47 q 156 45 118 24 q 244 69 194 66 l 274 66 q 240 39 256 55 q 213 -2 224 23 q 203 -66 203 -28 q 223 -135 203 -103 q 294 -185 244 -166 q 431 -204 344 -204 q 594 -169 544 -204 q 645 -72 645 -135 q 618 -11 645 -31 q 512 19 591 8 l 332 42 q 195 78 240 54 q 136 130 151 102 q 122 182 122 158 q 140 239 122 216 q 185 275 158 262 q 242 294 213 289 q 294 297 272 299 q 256 270 271 288 q 242 223 242 253 q 268 174 242 190 q 359 149 295 158 l 540 127 q 686 85 635 115 q 756 14 738 54 q 775 -70 775 -26 q 750 -176 775 -131 q 680 -253 726 -222 q 572 -299 635 -283 q 432 -315 509 -315 m 427 267 q 217 335 295 267 q 140 518 140 403 q 218 704 140 635 q 428 771 297 772 q 580 740 515 770 q 680 653 644 709 q 715 518 716 597 q 636 334 713 402 q 427 267 560 267 m 428 372 q 552 409 510 372 q 594 519 594 447 q 552 627 594 589 q 426 666 511 666 q 301 628 342 666 q 260 519 260 591 q 303 410 260 449 q 428 372 345 372 m 560 727 l 551 734 q 584 829 558 789 q 650 891 611 869 q 731 913 690 913 q 765 911 753 913 q 785 906 776 910 l 785 782 q 746 788 763 785 q 702 790 728 790 q 650 782 674 790 q 603 760 625 774 q 560 727 581 747 m 349 892 l 498 1115 l 652 1115 l 490 892 l 349 892 z "},"ğ":{"ha":833,"x_min":76,"x_max":785,"o":"m 417 885 q 266 938 322 885 q 215 1099 209 990 l 322 1099 q 332 1022 319 1049 q 367 987 344 996 q 417 978 390 978 q 466 987 444 978 q 502 1023 489 997 q 511 1099 515 1049 l 618 1099 q 568 938 625 990 q 417 885 512 885 m 432 -315 q 246 -287 326 -315 q 121 -211 166 -260 q 76 -94 76 -161 q 97 -11 76 -47 q 156 45 118 24 q 244 69 194 66 l 274 66 q 240 39 256 55 q 213 -2 224 23 q 203 -66 203 -28 q 223 -135 203 -103 q 294 -185 244 -166 q 431 -204 344 -204 q 594 -169 544 -204 q 645 -72 645 -135 q 618 -11 645 -31 q 512 19 591 8 l 332 42 q 195 78 240 54 q 136 130 151 102 q 122 182 122 158 q 140 239 122 216 q 185 275 158 262 q 242 294 213 289 q 294 297 272 299 q 256 270 271 288 q 242 223 242 253 q 268 174 242 190 q 359 149 295 158 l 540 127 q 686 85 635 115 q 756 14 738 54 q 775 -70 775 -26 q 750 -176 775 -131 q 680 -253 726 -222 q 572 -299 635 -283 q 432 -315 509 -315 m 427 267 q 217 335 295 267 q 140 518 140 403 q 218 704 140 635 q 428 771 297 772 q 580 740 515 770 q 680 653 644 709 q 715 518 716 597 q 636 334 713 402 q 427 267 560 267 m 428 372 q 552 409 510 372 q 594 519 594 447 q 552 627 594 589 q 426 666 511 666 q 301 628 342 666 q 260 519 260 591 q 303 410 260 449 q 428 372 345 372 m 560 727 l 551 734 q 584 829 558 789 q 650 891 611 869 q 731 913 690 913 q 765 911 753 913 q 785 906 776 910 l 785 782 q 746 788 763 785 q 702 790 728 790 q 650 782 674 790 q 603 760 625 774 q 560 727 581 747 z "},"ǧ":{"ha":833,"x_min":76,"x_max":785,"o":"m 432 -315 q 246 -287 326 -315 q 121 -211 166 -260 q 76 -94 76 -161 q 97 -11 76 -47 q 156 45 118 24 q 244 69 194 66 l 274 66 q 240 39 256 55 q 213 -2 224 23 q 203 -66 203 -28 q 223 -135 203 -103 q 294 -185 244 -166 q 431 -204 344 -204 q 594 -169 544 -204 q 645 -72 645 -135 q 618 -11 645 -31 q 512 19 591 8 l 332 42 q 195 78 240 54 q 136 130 151 102 q 122 182 122 158 q 140 239 122 216 q 185 275 158 262 q 242 294 213 289 q 294 297 272 299 q 256 270 271 288 q 242 223 242 253 q 268 174 242 190 q 359 149 295 158 l 540 127 q 686 85 635 115 q 756 14 738 54 q 775 -70 775 -26 q 750 -176 775 -131 q 680 -253 726 -222 q 572 -299 635 -283 q 432 -315 509 -315 m 427 267 q 217 335 295 267 q 140 518 140 403 q 218 704 140 635 q 428 771 297 772 q 580 740 515 770 q 680 653 644 709 q 715 518 716 597 q 636 334 713 402 q 427 267 560 267 m 428 372 q 552 409 510 372 q 594 519 594 447 q 552 627 594 589 q 426 666 511 666 q 301 628 342 666 q 260 519 260 591 q 303 410 260 449 q 428 372 345 372 m 560 727 l 551 734 q 584 829 558 789 q 650 891 611 869 q 731 913 690 913 q 765 911 753 913 q 785 906 776 910 l 785 782 q 746 788 763 785 q 702 790 728 790 q 650 782 674 790 q 603 760 625 774 q 560 727 581 747 m 340 884 l 188 1108 l 304 1108 l 408 971 l 511 1108 l 628 1108 l 475 884 l 340 884 z "},"ģ":{"ha":833,"x_min":76,"x_max":785,"o":"m 432 -315 q 246 -287 326 -315 q 121 -211 166 -260 q 76 -94 76 -161 q 97 -11 76 -47 q 156 45 118 24 q 244 69 194 66 l 274 66 q 240 39 256 55 q 213 -2 224 23 q 203 -66 203 -28 q 223 -135 203 -103 q 294 -185 244 -166 q 431 -204 344 -204 q 594 -169 544 -204 q 645 -72 645 -135 q 618 -11 645 -31 q 512 19 591 8 l 332 42 q 195 78 240 54 q 136 130 151 102 q 122 182 122 158 q 140 239 122 216 q 185 275 158 262 q 242 294 213 289 q 294 297 272 299 q 256 270 271 288 q 242 223 242 253 q 268 174 242 190 q 359 149 295 158 l 540 127 q 686 85 635 115 q 756 14 738 54 q 775 -70 775 -26 q 750 -176 775 -131 q 680 -253 726 -222 q 572 -299 635 -283 q 432 -315 509 -315 m 427 267 q 217 335 295 267 q 140 518 140 403 q 218 704 140 635 q 428 771 297 772 q 580 740 515 770 q 680 653 644 709 q 715 518 716 597 q 636 334 713 402 q 427 267 560 267 m 428 372 q 552 409 510 372 q 594 519 594 447 q 552 627 594 589 q 426 666 511 666 q 301 628 342 666 q 260 519 260 591 q 303 410 260 449 q 428 372 345 372 m 560 727 l 551 734 q 584 829 558 789 q 650 891 611 869 q 731 913 690 913 q 765 911 753 913 q 785 906 776 910 l 785 782 q 746 788 763 785 q 702 790 728 790 q 650 782 674 790 q 603 760 625 774 q 560 727 581 747 m 338 884 l 338 915 q 344 983 338 945 q 363 1056 351 1021 q 387 1109 374 1090 l 503 1109 q 485 1020 492 1072 q 477 910 477 967 l 477 884 l 338 884 z "},"ġ":{"ha":833,"x_min":76,"x_max":785,"o":"m 432 -315 q 246 -287 326 -315 q 121 -211 166 -260 q 76 -94 76 -161 q 97 -11 76 -47 q 156 45 118 24 q 244 69 194 66 l 274 66 q 240 39 256 55 q 213 -2 224 23 q 203 -66 203 -28 q 223 -135 203 -103 q 294 -185 244 -166 q 431 -204 344 -204 q 594 -169 544 -204 q 645 -72 645 -135 q 618 -11 645 -31 q 512 19 591 8 l 332 42 q 195 78 240 54 q 136 130 151 102 q 122 182 122 158 q 140 239 122 216 q 185 275 158 262 q 242 294 213 289 q 294 297 272 299 q 256 270 271 288 q 242 223 242 253 q 268 174 242 190 q 359 149 295 158 l 540 127 q 686 85 635 115 q 756 14 738 54 q 775 -70 775 -26 q 750 -176 775 -131 q 680 -253 726 -222 q 572 -299 635 -283 q 432 -315 509 -315 m 427 267 q 217 335 295 267 q 140 518 140 403 q 218 704 140 635 q 428 771 297 772 q 580 740 515 770 q 680 653 644 709 q 715 518 716 597 q 636 334 713 402 q 427 267 560 267 m 428 372 q 552 409 510 372 q 594 519 594 447 q 552 627 594 589 q 426 666 511 666 q 301 628 342 666 q 260 519 260 591 q 303 410 260 449 q 428 372 345 372 m 560 727 l 551 734 q 584 829 558 789 q 650 891 611 869 q 731 913 690 913 q 765 911 753 913 q 785 906 776 910 l 785 782 q 746 788 763 785 q 702 790 728 790 q 650 782 674 790 q 603 760 625 774 q 560 727 581 747 m 408 891 q 336 920 365 891 q 306 996 306 949 q 336 1073 306 1043 q 408 1102 365 1102 q 480 1073 450 1102 q 509 996 509 1043 q 480 920 509 949 q 408 891 450 891 z "},"h":{"ha":833,"x_min":128,"x_max":707,"o":"m 128 0 l 128 1081 l 256 1081 l 256 758 l 241 534 l 251 481 l 236 530 q 273 649 244 593 q 353 739 301 704 q 487 774 406 774 q 651 709 594 774 q 707 515 707 644 l 707 0 l 578 0 l 578 473 q 549 609 578 566 q 443 653 519 653 q 334 621 380 653 q 256 526 288 590 l 256 0 l 128 0 z "},"ħ":{"ha":833,"x_min":43,"x_max":701,"o":"m 117 0 l 117 1080 l 246 1080 l 246 758 l 235 542 l 241 481 l 230 530 q 265 649 238 593 q 343 739 292 704 q 477 774 395 774 q 643 709 585 774 q 701 515 701 644 l 701 0 l 572 0 l 572 473 q 542 609 572 565 q 431 653 513 653 q 323 616 369 653 q 246 518 277 580 l 246 0 l 117 0 m 43 867 l 43 974 l 454 974 l 454 867 l 43 867 z "},"i":{"ha":833,"x_min":139,"x_max":758,"o":"m 407 18 l 407 554 q 419 613 407 589 q 468 640 432 637 l 407 663 l 402 722 l 534 758 l 532 18 l 407 18 m 160 0 l 160 105 l 758 105 l 758 0 l 160 0 m 139 640 l 139 758 l 534 758 l 501 640 l 139 640 m 465 891 q 393 920 422 891 q 363 996 363 949 q 393 1073 363 1043 q 465 1102 422 1102 q 536 1073 507 1102 q 566 996 566 1043 q 536 920 566 949 q 465 891 506 891 z "},"ı":{"ha":833,"x_min":139,"x_max":758,"o":"m 407 18 l 407 554 q 419 613 407 589 q 468 640 432 637 l 407 663 l 402 722 l 534 758 l 532 18 l 407 18 m 160 0 l 160 105 l 758 105 l 758 0 l 160 0 m 139 640 l 139 758 l 534 758 l 501 640 l 139 640 z "},"í":{"ha":833,"x_min":139,"x_max":758,"o":"m 407 18 l 407 554 q 419 613 407 589 q 468 640 432 637 l 407 663 l 402 722 l 534 758 l 532 18 l 407 18 m 160 0 l 160 105 l 758 105 l 758 0 l 160 0 m 139 640 l 139 758 l 534 758 l 501 640 l 139 640 m 406 892 l 556 1115 l 710 1115 l 548 892 l 406 892 z "},"ĭ":{"ha":833,"x_min":139,"x_max":758,"o":"m 407 18 l 407 554 q 419 613 407 589 q 468 640 432 637 l 407 663 l 402 722 l 534 758 l 532 18 l 407 18 m 160 0 l 160 105 l 758 105 l 758 0 l 160 0 m 139 640 l 139 758 l 534 758 l 501 640 l 139 640 m 465 885 q 314 938 371 885 q 264 1099 258 990 l 371 1099 q 381 1022 368 1049 q 416 987 393 996 q 465 978 439 978 q 515 987 492 978 q 550 1023 538 997 q 560 1099 563 1049 l 667 1099 q 617 938 674 990 q 465 885 560 885 z "},"î":{"ha":833,"x_min":139,"x_max":758,"o":"m 407 18 l 407 554 q 419 613 407 589 q 468 640 432 637 l 407 663 l 402 722 l 534 758 l 532 18 l 407 18 m 160 0 l 160 105 l 758 105 l 758 0 l 160 0 m 139 640 l 139 758 l 534 758 l 501 640 l 139 640 m 245 891 l 398 1115 l 533 1115 l 685 891 l 569 891 l 465 1026 l 362 891 l 245 891 z "},"ï":{"ha":833,"x_min":139,"x_max":758,"o":"m 407 18 l 407 554 q 419 613 407 589 q 468 640 432 637 l 407 663 l 402 722 l 534 758 l 532 18 l 407 18 m 160 0 l 160 105 l 758 105 l 758 0 l 160 0 m 139 640 l 139 758 l 534 758 l 501 640 l 139 640 m 320 888 q 258 916 284 888 q 231 989 231 944 q 258 1061 231 1033 q 320 1089 284 1089 q 383 1061 356 1089 q 409 989 409 1033 q 382 916 409 944 q 320 888 356 888 m 610 888 q 548 916 574 888 q 522 989 522 944 q 548 1061 522 1034 q 610 1089 574 1089 q 673 1061 646 1089 q 699 989 699 1033 q 672 916 699 944 q 610 888 645 888 z "},"ị":{"ha":833,"x_min":139,"x_max":758,"o":"m 407 18 l 407 554 q 419 613 407 589 q 468 640 432 637 l 407 663 l 402 722 l 534 758 l 532 18 l 407 18 m 160 0 l 160 105 l 758 105 l 758 0 l 160 0 m 139 640 l 139 758 l 534 758 l 501 640 l 139 640 m 465 891 q 393 920 422 891 q 363 996 363 949 q 393 1073 363 1043 q 465 1102 422 1102 q 536 1073 507 1102 q 566 996 566 1043 q 536 920 566 949 q 465 891 506 891 m 467 -319 q 397 -291 425 -319 q 369 -218 369 -262 q 397 -146 369 -174 q 467 -118 425 -118 q 538 -146 510 -118 q 566 -218 566 -174 q 538 -291 566 -262 q 467 -319 510 -319 z "},"ì":{"ha":833,"x_min":139,"x_max":758,"o":"m 407 18 l 407 554 q 419 613 407 589 q 468 640 432 637 l 407 663 l 402 722 l 534 758 l 532 18 l 407 18 m 160 0 l 160 105 l 758 105 l 758 0 l 160 0 m 139 640 l 139 758 l 534 758 l 501 640 l 139 640 m 541 892 l 400 892 l 238 1115 l 392 1115 l 541 892 z "},"ĳ":{"ha":833,"x_min":-3,"x_max":799,"o":"m 213 0 l 213 749 l 341 758 l 339 0 l 213 0 m -3 758 l 340 758 l 340 641 l -3 641 l -3 758 m 4 103 l 533 103 l 533 0 l 4 0 l 4 103 m 608 -321 q 523 -314 560 -321 q 454 -296 485 -307 l 454 -172 q 501 -186 474 -179 q 575 -193 528 -193 q 620 -177 603 -193 q 638 -117 638 -160 l 638 735 l 765 758 l 763 -37 q 764 -72 763 -54 q 764 -111 764 -90 q 751 -214 764 -166 q 706 -291 739 -262 q 608 -321 672 -321 m 428 758 l 765 758 l 765 641 l 428 641 l 428 758 m 277 896 q 208 924 237 896 q 180 1000 180 953 q 209 1075 180 1047 q 278 1103 238 1103 q 346 1075 317 1103 q 374 1000 374 1047 q 345 924 374 953 q 277 896 316 896 m 701 896 q 633 924 661 896 q 604 1000 604 953 q 633 1075 604 1047 q 703 1103 663 1103 q 770 1075 742 1103 q 799 1000 799 1047 q 769 924 799 953 q 701 896 740 896 z "},"ī":{"ha":833,"x_min":139,"x_max":758,"o":"m 407 18 l 407 554 q 419 613 407 589 q 468 640 432 637 l 407 663 l 402 722 l 534 758 l 532 18 l 407 18 m 160 0 l 160 105 l 758 105 l 758 0 l 160 0 m 139 640 l 139 758 l 534 758 l 501 640 l 139 640 m 279 904 l 279 1017 l 652 1017 l 650 904 l 279 904 z "},"į":{"ha":833,"x_min":139,"x_max":758,"o":"m 407 18 l 407 554 q 419 613 407 589 q 468 640 432 637 l 407 663 l 402 722 l 534 758 l 532 18 l 407 18 m 160 0 l 160 105 l 758 105 l 758 0 l 160 0 m 139 640 l 139 758 l 534 758 l 501 640 l 139 640 m 465 891 q 393 920 423 891 q 364 996 364 949 q 393 1073 364 1043 q 465 1102 423 1102 q 537 1073 508 1102 q 567 996 567 1043 q 537 920 567 949 q 465 891 508 891 m 656 -297 q 544 -260 584 -297 q 503 -165 503 -224 q 544 -65 503 -109 q 662 0 585 -20 l 758 0 q 659 -68 691 -35 q 628 -137 628 -101 q 643 -179 628 -165 q 685 -193 658 -193 q 757 -177 721 -193 l 758 -276 q 718 -291 740 -284 q 656 -297 697 -297 z "},"ĩ":{"ha":833,"x_min":139,"x_max":758,"o":"m 407 18 l 407 554 q 419 613 407 589 q 468 640 432 637 l 407 663 l 402 722 l 534 758 l 532 18 l 407 18 m 160 0 l 160 105 l 758 105 l 758 0 l 160 0 m 139 640 l 139 758 l 534 758 l 501 640 l 139 640 m 569 890 q 493 909 522 890 q 445 953 465 928 q 410 997 426 978 q 369 1016 393 1016 q 320 983 333 1016 q 317 890 308 949 l 215 890 q 241 1052 201 997 q 360 1108 281 1108 q 436 1089 408 1108 q 483 1045 465 1069 q 518 1001 501 1020 q 559 982 535 982 q 609 1013 596 982 q 613 1108 622 1044 l 714 1108 q 688 943 728 997 q 569 890 648 890 z "},"j":{"ha":833,"x_min":155,"x_max":656,"o":"m 364 -321 q 257 -313 313 -321 q 155 -286 201 -305 l 155 -164 q 249 -189 199 -181 q 354 -197 299 -197 q 428 -185 399 -197 q 474 -145 458 -174 q 489 -62 489 -115 l 489 530 q 503 609 489 582 q 549 641 517 636 l 488 698 l 488 758 l 626 758 l 626 -62 q 600 -199 626 -140 q 516 -289 574 -257 q 364 -321 459 -321 m 214 641 l 214 758 l 626 758 l 599 641 l 214 641 m 555 891 q 483 920 513 891 q 453 996 453 949 q 483 1073 453 1043 q 555 1102 513 1102 q 627 1073 597 1102 q 656 996 656 1043 q 626 920 656 949 q 555 891 597 891 z "},"ȷ":{"ha":833,"x_min":159,"x_max":626,"o":"m 364 -321 q 260 -313 315 -321 q 159 -286 205 -305 l 159 -158 q 253 -181 203 -174 q 354 -188 303 -188 q 427 -177 398 -188 q 472 -139 457 -167 q 488 -58 488 -110 l 488 530 q 502 609 488 582 q 549 641 516 636 l 488 698 l 488 758 l 626 758 l 626 -63 q 600 -199 626 -141 q 516 -289 574 -257 q 364 -321 459 -321 m 217 641 l 217 758 l 626 758 l 599 641 l 217 641 z "},"k":{"ha":833,"x_min":150,"x_max":790,"o":"m 618 0 l 269 413 l 390 432 l 474 353 l 790 0 l 618 0 m 150 0 l 150 1081 l 279 1081 l 279 517 l 272 415 l 272 410 l 279 304 l 279 0 l 150 0 m 391 392 l 269 413 l 432 597 l 580 758 l 759 758 l 482 481 l 391 392 z "},"ķ":{"ha":833,"x_min":150,"x_max":790,"o":"m 618 0 l 269 413 l 390 432 l 474 353 l 790 0 l 618 0 m 150 0 l 150 1081 l 279 1081 l 279 517 l 272 415 l 272 410 l 279 304 l 279 0 l 150 0 m 391 392 l 269 413 l 432 597 l 580 758 l 759 758 l 482 481 l 391 392 m 342 -362 q 352 -292 347 -334 q 359 -206 356 -250 q 362 -130 362 -162 l 362 -89 l 494 -89 l 494 -138 q 489 -219 494 -177 q 476 -298 484 -260 q 460 -362 468 -335 l 342 -362 z "},"l":{"ha":833,"x_min":79,"x_max":747,"o":"m 535 -10 q 408 12 460 -10 q 330 83 356 34 q 303 212 303 132 l 303 892 q 316 944 303 925 q 352 965 328 963 l 79 965 l 79 1081 l 438 1081 l 437 232 q 463 135 437 159 q 556 110 489 110 q 664 122 620 110 q 747 150 708 133 l 747 26 q 653 0 709 11 q 535 -10 598 -10 z "},"ĺ":{"ha":833,"x_min":79,"x_max":747,"o":"m 519 1162 l 379 1162 l 529 1384 l 690 1384 l 519 1162 m 535 -10 q 408 12 460 -10 q 330 83 356 34 q 303 212 303 132 l 303 892 q 316 944 303 925 q 352 965 328 963 l 79 965 l 79 1081 l 438 1081 l 437 232 q 463 135 437 159 q 556 110 489 110 q 664 122 620 110 q 747 150 708 133 l 747 26 q 653 0 709 11 q 535 -10 598 -10 z "},"ľ":{"ha":833,"x_min":79,"x_max":763,"o":"m 625 827 l 640 1083 l 763 1083 l 732 827 l 625 827 m 535 -10 q 408 12 460 -10 q 330 83 356 34 q 303 212 303 132 l 303 892 q 316 944 303 925 q 352 965 328 963 l 79 965 l 79 1081 l 438 1081 l 437 232 q 463 135 437 159 q 556 110 489 110 q 664 122 620 110 q 747 150 708 133 l 747 26 q 653 0 709 11 q 535 -10 598 -10 z "},"ļ":{"ha":833,"x_min":79,"x_max":747,"o":"m 535 -10 q 408 12 460 -10 q 330 83 356 34 q 303 212 303 132 l 303 892 q 316 944 303 925 q 352 965 328 963 l 79 965 l 79 1081 l 438 1081 l 437 232 q 463 135 437 159 q 556 110 489 110 q 664 122 620 110 q 747 150 708 133 l 747 26 q 653 0 709 11 q 535 -10 598 -10 m 407 -362 q 417 -292 413 -334 q 424 -206 422 -250 q 427 -130 427 -162 l 427 -89 l 560 -89 l 560 -138 q 555 -219 560 -177 q 541 -298 549 -260 q 525 -362 533 -335 l 407 -362 z "},"ŀ":{"ha":833,"x_min":79,"x_max":835,"o":"m 723 417 q 642 450 674 417 q 610 538 610 483 q 642 624 610 591 q 723 658 674 658 q 803 624 772 658 q 835 538 835 591 q 803 450 835 483 q 723 417 772 417 m 535 -10 q 408 12 460 -10 q 330 83 356 34 q 303 212 303 132 l 303 892 q 316 944 303 925 q 352 965 328 963 l 79 965 l 79 1081 l 438 1081 l 437 232 q 463 135 437 159 q 556 110 489 110 q 664 122 620 110 q 747 150 708 133 l 747 26 q 653 0 709 11 q 535 -10 598 -10 z "},"ł":{"ha":833,"x_min":79,"x_max":747,"o":"m 202 394 l 202 528 l 551 763 l 548 628 l 202 394 m 535 -10 q 408 12 460 -10 q 330 83 356 34 q 303 212 303 132 l 303 892 q 316 944 303 925 q 352 965 328 963 l 79 965 l 79 1081 l 438 1081 l 437 232 q 463 135 437 159 q 556 110 489 110 q 664 122 620 110 q 747 150 708 133 l 747 26 q 653 0 709 11 q 535 -10 598 -10 z "},"m":{"ha":833,"x_min":55,"x_max":789,"o":"m 55 0 l 58 758 l 160 758 l 172 531 l 162 523 q 218 707 172 641 q 346 774 264 774 q 420 754 390 774 q 465 688 450 734 q 480 559 480 641 l 481 553 l 481 0 l 367 0 l 367 531 q 349 626 367 599 q 298 653 332 653 q 234 630 268 653 q 173 540 201 608 l 170 0 l 55 0 m 674 0 l 674 536 q 657 625 674 597 q 601 653 640 653 q 530 623 559 653 q 481 540 501 594 l 465 496 l 472 532 q 531 712 485 650 q 655 774 578 774 q 755 722 722 774 q 789 553 789 671 l 789 0 l 674 0 z "},"n":{"ha":833,"x_min":133,"x_max":709,"o":"m 133 0 l 133 759 l 245 759 l 258 484 l 245 531 q 324 711 260 648 q 492 774 388 774 q 653 706 597 774 q 709 510 709 638 l 709 0 l 580 0 l 580 467 q 548 609 580 565 q 446 653 517 653 q 339 619 387 653 q 263 526 291 585 l 263 0 l 133 0 z "},"ń":{"ha":833,"x_min":133,"x_max":709,"o":"m 133 0 l 133 759 l 245 759 l 258 484 l 245 531 q 324 711 260 648 q 492 774 388 774 q 653 706 597 774 q 709 510 709 638 l 709 0 l 580 0 l 580 467 q 548 609 580 565 q 446 653 517 653 q 339 619 387 653 q 263 526 291 585 l 263 0 l 133 0 m 364 892 l 513 1115 l 667 1115 l 506 892 l 364 892 z "},"ň":{"ha":833,"x_min":133,"x_max":709,"o":"m 133 0 l 133 759 l 245 759 l 258 484 l 245 531 q 324 711 260 648 q 492 774 388 774 q 653 706 597 774 q 709 510 709 638 l 709 0 l 580 0 l 580 467 q 548 609 580 565 q 446 653 517 653 q 339 619 387 653 q 263 526 291 585 l 263 0 l 133 0 m 356 884 l 203 1108 l 319 1108 l 423 971 l 526 1108 l 643 1108 l 490 884 l 356 884 z "},"ņ":{"ha":833,"x_min":133,"x_max":709,"o":"m 133 0 l 133 759 l 245 759 l 258 484 l 245 531 q 324 711 260 648 q 492 774 388 774 q 653 706 597 774 q 709 510 709 638 l 709 0 l 580 0 l 580 467 q 548 609 580 565 q 446 653 517 653 q 339 619 387 653 q 263 526 291 585 l 263 0 l 133 0 m 335 -362 q 345 -292 341 -334 q 353 -206 350 -250 q 356 -130 356 -162 l 356 -89 l 488 -89 l 488 -138 q 483 -219 488 -177 q 470 -298 478 -260 q 453 -362 462 -335 l 335 -362 z "},"ŋ":{"ha":833,"x_min":113,"x_max":702,"o":"m 547 -321 q 489 -315 513 -321 q 442 -300 464 -308 l 442 -176 q 472 -187 452 -181 q 513 -193 491 -193 q 555 -177 538 -193 q 572 -117 572 -160 l 572 473 q 558 576 572 537 q 513 634 544 616 q 429 653 481 653 q 320 619 367 653 q 242 525 272 585 l 242 0 l 113 0 l 113 758 l 222 758 l 232 572 q 276 675 246 629 q 356 747 306 720 q 477 774 406 774 q 642 708 583 774 q 701 515 701 642 l 701 -37 q 701 -72 701 -54 q 702 -111 702 -90 q 690 -214 702 -166 q 644 -291 677 -262 q 547 -321 610 -321 z "},"ñ":{"ha":833,"x_min":133,"x_max":709,"o":"m 133 0 l 133 759 l 245 759 l 258 484 l 245 531 q 324 711 260 648 q 492 774 388 774 q 653 706 597 774 q 709 510 709 638 l 709 0 l 580 0 l 580 467 q 548 609 580 565 q 446 653 517 653 q 339 619 387 653 q 263 526 291 585 l 263 0 l 133 0 m 526 890 q 451 909 479 890 q 403 953 422 928 q 367 997 384 978 q 326 1016 351 1016 q 278 983 290 1016 q 274 890 265 949 l 172 890 q 198 1052 158 997 q 318 1108 238 1108 q 394 1089 365 1108 q 441 1045 422 1069 q 476 1001 459 1020 q 517 982 493 982 q 566 1013 553 982 q 570 1108 579 1044 l 672 1108 q 645 943 685 997 q 526 890 606 890 z "},"o":{"ha":833,"x_min":86,"x_max":747,"o":"m 417 -10 q 245 35 320 -10 q 128 168 171 81 q 86 383 86 256 q 130 593 86 506 q 249 726 174 680 q 417 773 324 773 q 590 726 516 773 q 706 593 665 680 q 747 383 747 506 q 703 168 747 256 q 584 35 659 80 q 417 -10 509 -10 m 417 103 q 560 173 505 103 q 615 383 615 242 q 561 589 615 518 q 417 659 508 659 q 273 589 328 659 q 218 383 218 518 q 273 175 218 247 q 417 103 328 103 z "},"ó":{"ha":833,"x_min":86,"x_max":747,"o":"m 417 -10 q 245 35 320 -10 q 128 168 171 81 q 86 383 86 256 q 130 593 86 506 q 249 726 174 680 q 417 773 324 773 q 590 726 516 773 q 706 593 665 680 q 747 383 747 506 q 703 168 747 256 q 584 35 659 80 q 417 -10 509 -10 m 417 103 q 560 173 505 103 q 615 383 615 242 q 561 589 615 518 q 417 659 508 659 q 273 589 328 659 q 218 383 218 518 q 273 175 218 247 q 417 103 328 103 m 358 892 l 507 1115 l 661 1115 l 499 892 l 358 892 z "},"ŏ":{"ha":833,"x_min":86,"x_max":747,"o":"m 417 -10 q 245 35 320 -10 q 128 168 171 81 q 86 383 86 256 q 130 593 86 506 q 249 726 174 680 q 417 773 324 773 q 590 726 516 773 q 706 593 665 680 q 747 383 747 506 q 703 168 747 256 q 584 35 659 80 q 417 -10 509 -10 m 417 103 q 560 173 505 103 q 615 383 615 242 q 561 589 615 518 q 417 659 508 659 q 273 589 328 659 q 218 383 218 518 q 273 175 218 247 q 417 103 328 103 m 417 885 q 266 938 322 885 q 215 1099 209 990 l 322 1099 q 332 1022 319 1049 q 367 987 344 996 q 417 978 390 978 q 466 987 444 978 q 502 1023 489 997 q 511 1099 515 1049 l 618 1099 q 568 938 625 990 q 417 885 512 885 z "},"ô":{"ha":833,"x_min":86,"x_max":747,"o":"m 417 -10 q 245 35 320 -10 q 128 168 171 81 q 86 383 86 256 q 130 593 86 506 q 249 726 174 680 q 417 773 324 773 q 590 726 516 773 q 706 593 665 680 q 747 383 747 506 q 703 168 747 256 q 584 35 659 80 q 417 -10 509 -10 m 417 103 q 560 173 505 103 q 615 383 615 242 q 561 589 615 518 q 417 659 508 659 q 273 589 328 659 q 218 383 218 518 q 273 175 218 247 q 417 103 328 103 m 197 891 l 349 1115 l 484 1115 l 637 891 l 520 891 l 417 1026 l 313 891 l 197 891 z "},"ö":{"ha":833,"x_min":86,"x_max":747,"o":"m 417 -10 q 245 35 320 -10 q 128 168 171 81 q 86 383 86 256 q 130 593 86 506 q 249 726 174 680 q 417 773 324 773 q 590 726 516 773 q 706 593 665 680 q 747 383 747 506 q 703 168 747 256 q 584 35 659 80 q 417 -10 509 -10 m 417 103 q 560 173 505 103 q 615 383 615 242 q 561 589 615 518 q 417 659 508 659 q 273 589 328 659 q 218 383 218 518 q 273 175 218 247 q 417 103 328 103 m 272 888 q 209 916 235 888 q 183 989 183 944 q 209 1061 183 1033 q 272 1089 235 1089 q 334 1061 308 1089 q 360 989 360 1033 q 334 916 360 944 q 272 888 307 888 m 562 888 q 499 916 526 888 q 473 989 473 944 q 499 1061 473 1034 q 562 1089 526 1089 q 624 1061 597 1089 q 651 989 651 1033 q 624 916 651 944 q 562 888 597 888 z "},"ọ":{"ha":833,"x_min":86,"x_max":747,"o":"m 417 -10 q 245 35 320 -10 q 128 168 171 81 q 86 383 86 256 q 130 593 86 506 q 249 726 174 680 q 417 773 324 773 q 590 726 516 773 q 706 593 665 680 q 747 383 747 506 q 703 168 747 256 q 584 35 659 80 q 417 -10 509 -10 m 417 103 q 560 173 505 103 q 615 383 615 242 q 561 589 615 518 q 417 659 508 659 q 273 589 328 659 q 218 383 218 518 q 273 175 218 247 q 417 103 328 103 m 417 -319 q 346 -291 374 -319 q 318 -218 318 -262 q 346 -146 318 -174 q 417 -118 374 -118 q 487 -146 459 -118 q 515 -218 515 -174 q 487 -291 515 -262 q 417 -319 459 -319 z "},"ò":{"ha":833,"x_min":86,"x_max":747,"o":"m 417 -10 q 245 35 320 -10 q 128 168 171 81 q 86 383 86 256 q 130 593 86 506 q 249 726 174 680 q 417 773 324 773 q 590 726 516 773 q 706 593 665 680 q 747 383 747 506 q 703 168 747 256 q 584 35 659 80 q 417 -10 509 -10 m 417 103 q 560 173 505 103 q 615 383 615 242 q 561 589 615 518 q 417 659 508 659 q 273 589 328 659 q 218 383 218 518 q 273 175 218 247 q 417 103 328 103 m 492 892 l 351 892 l 190 1115 l 343 1115 l 492 892 z "},"ő":{"ha":833,"x_min":86,"x_max":774,"o":"m 417 -10 q 245 35 320 -10 q 128 168 171 81 q 86 383 86 256 q 130 593 86 506 q 249 726 174 680 q 417 773 324 773 q 590 726 516 773 q 706 593 665 680 q 747 383 747 506 q 703 168 747 256 q 584 35 659 80 q 417 -10 509 -10 m 417 103 q 560 173 505 103 q 615 383 615 242 q 561 589 615 518 q 417 659 508 659 q 273 589 328 659 q 218 383 218 518 q 273 175 218 247 q 417 103 328 103 m 488 892 l 632 1119 l 774 1119 l 618 892 l 488 892 m 231 892 l 351 1119 l 494 1119 l 357 892 l 231 892 z "},"ō":{"ha":833,"x_min":86,"x_max":747,"o":"m 417 -10 q 245 35 320 -10 q 128 168 171 81 q 86 383 86 256 q 130 593 86 506 q 249 726 174 680 q 417 773 324 773 q 590 726 516 773 q 706 593 665 680 q 747 383 747 506 q 703 168 747 256 q 584 35 659 80 q 417 -10 509 -10 m 417 103 q 560 173 505 103 q 615 383 615 242 q 561 589 615 518 q 417 659 508 659 q 273 589 328 659 q 218 383 218 518 q 273 175 218 247 q 417 103 328 103 m 231 904 l 231 1017 l 603 1017 l 601 904 l 231 904 z "},"ø":{"ha":833,"x_min":86,"x_max":747,"o":"m 417 -10 q 245 35 320 -10 q 128 168 171 81 q 86 383 86 256 q 130 593 86 506 q 249 726 174 680 q 417 773 324 773 q 590 726 516 773 q 706 593 665 680 q 747 383 747 506 q 703 168 747 256 q 584 35 659 80 q 417 -10 509 -10 m 417 103 q 560 173 505 103 q 615 383 615 242 q 561 589 615 518 q 417 659 508 659 q 273 589 328 659 q 218 383 218 518 q 273 175 218 247 q 417 103 328 103 m 111 -31 l 211 128 l 236 151 l 531 647 l 538 671 l 610 788 l 713 788 l 628 651 l 601 624 l 299 117 l 294 96 l 214 -31 l 111 -31 z "},"ǿ":{"ha":833,"x_min":86,"x_max":747,"o":"m 417 -10 q 245 35 320 -10 q 128 168 171 81 q 86 383 86 256 q 130 593 86 506 q 249 726 174 680 q 417 773 324 773 q 590 726 516 773 q 706 593 665 680 q 747 383 747 506 q 703 168 747 256 q 584 35 659 80 q 417 -10 509 -10 m 417 103 q 560 173 505 103 q 615 383 615 242 q 561 589 615 518 q 417 659 508 659 q 273 589 328 659 q 218 383 218 518 q 273 175 218 247 q 417 103 328 103 m 111 -31 l 211 128 l 236 151 l 531 647 l 538 671 l 610 788 l 713 788 l 628 651 l 601 624 l 299 117 l 294 96 l 214 -31 l 111 -31 m 358 892 l 507 1115 l 661 1115 l 499 892 l 358 892 z "},"õ":{"ha":833,"x_min":86,"x_max":747,"o":"m 417 -10 q 245 35 320 -10 q 128 168 171 81 q 86 383 86 256 q 130 593 86 506 q 249 726 174 680 q 417 773 324 773 q 590 726 516 773 q 706 593 665 680 q 747 383 747 506 q 703 168 747 256 q 584 35 659 80 q 417 -10 509 -10 m 417 103 q 560 173 505 103 q 615 383 615 242 q 561 589 615 518 q 417 659 508 659 q 273 589 328 659 q 218 383 218 518 q 273 175 218 247 q 417 103 328 103 m 520 890 q 444 909 473 890 q 397 953 416 928 q 361 997 378 978 q 320 1016 344 1016 q 272 983 284 1016 q 268 890 259 949 l 166 890 q 192 1052 152 997 q 312 1108 232 1108 q 388 1089 359 1108 q 434 1045 416 1069 q 470 1001 453 1020 q 510 982 487 982 q 560 1013 547 982 q 564 1108 573 1044 l 665 1108 q 639 943 679 997 q 520 890 599 890 z "},"œ":{"ha":833,"x_min":-37,"x_max":878,"o":"m 219 -10 q 34 91 106 -10 q -37 379 -37 192 q -3 591 -37 503 q 90 726 31 679 q 224 773 149 773 q 349 730 299 773 q 427 608 399 686 q 513 730 459 687 q 637 773 566 773 q 764 731 710 773 q 849 610 819 688 q 878 423 878 531 q 877 384 878 401 q 876 359 876 367 l 483 359 q 528 165 488 230 q 631 100 567 100 q 710 132 681 100 q 744 215 740 164 l 867 215 q 797 48 860 106 q 634 -10 733 -10 q 507 32 560 -10 q 424 154 454 75 q 343 33 394 76 q 219 -10 292 -10 m 227 103 q 328 173 289 103 q 367 382 367 242 q 330 588 367 517 q 227 659 292 659 q 128 589 166 659 q 90 383 90 518 q 127 175 90 247 q 227 103 165 103 m 484 412 q 506 448 488 440 q 548 456 524 456 l 753 456 q 720 605 753 551 q 630 659 688 659 q 524 594 562 659 q 484 412 487 530 z "},"p":{"ha":833,"x_min":123,"x_max":751,"o":"m 123 -280 l 123 758 l 250 758 l 251 656 l 251 172 l 242 135 l 251 -1 l 251 -280 l 123 -280 m 483 772 q 625 730 565 772 q 718 604 685 687 q 751 400 751 521 q 708 181 751 273 q 594 41 665 90 q 440 -8 524 -8 q 357 11 399 -8 q 283 64 315 30 q 242 141 252 97 l 202 161 l 248 209 q 284 147 258 171 q 344 113 310 124 q 410 103 378 103 q 517 137 470 103 q 592 237 565 171 q 619 401 619 303 q 575 592 619 525 q 439 660 532 660 q 367 645 406 660 q 296 600 328 631 q 251 521 264 569 l 244 567 l 251 592 q 292 685 259 644 q 376 749 326 726 q 483 772 426 772 z "},"þ":{"ha":833,"x_min":123,"x_max":751,"o":"m 440 -8 q 357 10 399 -8 q 283 63 315 29 q 242 142 252 97 l 201 142 l 251 196 q 315 126 269 149 q 410 103 361 103 q 517 137 469 103 q 591 237 564 171 q 619 399 619 303 q 576 592 619 524 q 443 660 534 660 q 368 646 408 660 q 296 600 328 631 q 251 519 264 569 l 251 594 q 293 687 259 647 q 376 750 326 727 q 483 772 426 772 q 625 729 565 772 q 718 603 685 686 q 751 400 751 520 q 708 181 751 272 q 595 41 665 90 q 440 -8 524 -8 m 123 -280 l 123 1081 l 251 1081 l 251 656 l 251 196 l 242 142 l 251 -1 l 251 -280 l 123 -280 z "},"q":{"ha":833,"x_min":99,"x_max":718,"o":"m 590 -280 l 589 624 l 591 758 l 718 758 l 718 -280 l 590 -280 m 383 -8 q 235 37 299 -8 q 135 170 172 83 q 99 381 99 257 q 139 589 99 501 q 247 725 178 677 q 406 772 316 772 q 493 752 453 772 q 561 699 533 733 q 598 620 588 665 l 638 597 l 592 545 q 557 609 582 584 q 502 647 533 635 q 440 660 471 660 q 288 587 344 660 q 232 379 232 514 q 282 175 232 249 q 422 101 332 101 q 524 133 476 101 q 589 233 571 164 l 596 192 l 590 166 q 552 77 582 117 q 479 15 523 38 q 383 -8 435 -8 z "},"r":{"ha":833,"x_min":74,"x_max":798,"o":"m 81 0 l 81 105 l 610 105 l 610 0 l 81 0 m 74 640 l 74 759 l 296 759 l 301 640 l 74 640 m 230 14 l 230 566 q 243 619 230 604 q 285 640 256 635 l 230 681 l 230 759 l 342 759 l 351 556 q 406 670 368 621 q 494 746 443 719 q 599 774 544 774 q 746 704 694 774 q 794 491 798 634 l 668 491 q 639 616 667 579 q 549 653 610 653 q 440 610 493 653 q 359 507 386 567 l 359 160 q 349 124 359 138 q 317 105 339 110 l 359 79 l 359 14 l 230 14 z "},"ŕ":{"ha":833,"x_min":74,"x_max":798,"o":"m 81 0 l 81 105 l 610 105 l 610 0 l 81 0 m 74 640 l 74 759 l 296 759 l 301 640 l 74 640 m 230 14 l 230 566 q 243 619 230 604 q 285 640 256 635 l 230 681 l 230 759 l 342 759 l 351 556 q 406 670 368 621 q 494 746 443 719 q 599 774 544 774 q 746 704 694 774 q 794 491 798 634 l 668 491 q 639 616 667 579 q 549 653 610 653 q 440 610 493 653 q 359 507 386 567 l 359 160 q 349 124 359 138 q 317 105 339 110 l 359 79 l 359 14 l 230 14 m 365 892 l 514 1115 l 668 1115 l 506 892 l 365 892 z "},"ř":{"ha":833,"x_min":74,"x_max":798,"o":"m 81 0 l 81 105 l 610 105 l 610 0 l 81 0 m 74 640 l 74 759 l 296 759 l 301 640 l 74 640 m 230 14 l 230 566 q 243 619 230 604 q 285 640 256 635 l 230 681 l 230 759 l 342 759 l 351 556 q 406 670 368 621 q 494 746 443 719 q 599 774 544 774 q 746 704 694 774 q 794 491 798 634 l 668 491 q 639 616 667 579 q 549 653 610 653 q 440 610 493 653 q 359 507 386 567 l 359 160 q 349 124 359 138 q 317 105 339 110 l 359 79 l 359 14 l 230 14 m 356 884 l 203 1108 l 320 1108 l 424 971 l 527 1108 l 644 1108 l 491 884 l 356 884 z "},"ŗ":{"ha":833,"x_min":74,"x_max":798,"o":"m 81 0 l 81 105 l 610 105 l 610 0 l 81 0 m 74 640 l 74 759 l 296 759 l 301 640 l 74 640 m 230 14 l 230 566 q 243 619 230 604 q 285 640 256 635 l 230 681 l 230 759 l 342 759 l 351 556 q 406 670 368 621 q 494 746 443 719 q 599 774 544 774 q 746 704 694 774 q 794 491 798 634 l 668 491 q 639 616 667 579 q 549 653 610 653 q 440 610 493 653 q 359 507 386 567 l 359 160 q 349 124 359 138 q 317 105 339 110 l 359 79 l 359 14 l 230 14 m 215 -362 q 225 -292 220 -334 q 232 -206 229 -250 q 235 -130 235 -162 l 235 -89 l 367 -89 l 367 -138 q 362 -219 367 -177 q 349 -298 357 -260 q 333 -362 341 -335 l 215 -362 z "},"s":{"ha":833,"x_min":115,"x_max":726,"o":"m 425 -12 q 318 0 371 -12 q 221 37 265 11 q 148 108 176 63 q 115 219 120 152 l 248 219 q 307 124 255 153 q 426 95 359 95 q 550 117 504 95 q 597 201 597 139 q 575 260 597 238 q 511 299 553 283 q 411 329 470 315 q 315 356 363 341 q 229 395 267 371 q 167 460 190 419 q 144 563 144 500 q 177 672 144 624 q 273 745 210 719 q 424 772 335 772 q 557 750 496 772 q 658 680 619 728 q 701 551 697 631 l 572 551 q 553 610 569 585 q 506 651 538 636 q 424 665 474 665 q 343 656 378 665 q 289 624 308 646 q 269 564 269 601 q 293 503 269 527 q 357 465 316 480 q 451 437 398 450 q 545 410 497 426 q 635 371 594 395 q 701 308 676 347 q 726 211 726 269 q 654 50 726 111 q 425 -12 582 -12 z "},"ś":{"ha":833,"x_min":115,"x_max":726,"o":"m 425 -12 q 318 0 371 -12 q 221 37 265 11 q 148 108 176 63 q 115 219 120 152 l 248 219 q 307 124 255 153 q 426 95 359 95 q 550 117 504 95 q 597 201 597 139 q 575 260 597 238 q 511 299 553 283 q 411 329 470 315 q 315 356 363 341 q 229 395 267 371 q 167 460 190 419 q 144 563 144 500 q 177 672 144 624 q 273 745 210 719 q 424 772 335 772 q 557 750 496 772 q 658 680 619 728 q 701 551 697 631 l 572 551 q 553 610 569 585 q 506 651 538 636 q 424 665 474 665 q 343 656 378 665 q 289 624 308 646 q 269 564 269 601 q 293 503 269 527 q 357 465 316 480 q 451 437 398 450 q 545 410 497 426 q 635 371 594 395 q 701 308 676 347 q 726 211 726 269 q 654 50 726 111 q 425 -12 582 -12 m 370 892 l 519 1115 l 674 1115 l 512 892 l 370 892 z "},"š":{"ha":833,"x_min":115,"x_max":726,"o":"m 425 -12 q 318 0 371 -12 q 221 37 265 11 q 148 108 176 63 q 115 219 120 152 l 248 219 q 307 124 255 153 q 426 95 359 95 q 550 117 504 95 q 597 201 597 139 q 575 260 597 238 q 511 299 553 283 q 411 329 470 315 q 315 356 363 341 q 229 395 267 371 q 167 460 190 419 q 144 563 144 500 q 177 672 144 624 q 273 745 210 719 q 424 772 335 772 q 557 750 496 772 q 658 680 619 728 q 701 551 697 631 l 572 551 q 553 610 569 585 q 506 651 538 636 q 424 665 474 665 q 343 656 378 665 q 289 624 308 646 q 269 564 269 601 q 293 503 269 527 q 357 465 316 480 q 451 437 398 450 q 545 410 497 426 q 635 371 594 395 q 701 308 676 347 q 726 211 726 269 q 654 50 726 111 q 425 -12 582 -12 m 362 884 l 209 1108 l 326 1108 l 429 971 l 533 1108 l 649 1108 l 497 884 l 362 884 z "},"ş":{"ha":833,"x_min":115,"x_max":726,"o":"m 425 -12 q 318 0 371 -12 q 221 37 265 11 q 148 108 176 63 q 115 219 120 152 l 248 219 q 307 124 255 153 q 426 95 359 95 q 550 117 504 95 q 597 201 597 139 q 575 260 597 238 q 511 299 553 283 q 411 329 470 315 q 315 356 363 341 q 229 395 267 371 q 167 460 190 419 q 144 563 144 500 q 177 672 144 624 q 273 745 210 719 q 424 772 335 772 q 557 750 496 772 q 658 680 619 728 q 701 551 697 631 l 572 551 q 553 610 569 585 q 506 651 538 636 q 424 665 474 665 q 343 656 378 665 q 289 624 308 646 q 269 564 269 601 q 293 503 269 527 q 357 465 316 480 q 451 437 398 450 q 545 410 497 426 q 635 371 594 395 q 701 308 676 347 q 726 211 726 269 q 654 50 726 111 q 425 -12 582 -12 m 410 -306 q 335 -300 363 -306 q 279 -281 307 -294 l 280 -182 q 321 -197 298 -191 q 376 -202 344 -202 q 430 -185 417 -202 q 443 -139 443 -168 q 423 -67 443 -99 q 355 0 402 -35 l 459 0 q 512 -41 488 -16 q 551 -98 536 -66 q 566 -167 566 -129 q 524 -268 566 -231 q 410 -306 482 -306 z "},"ș":{"ha":833,"x_min":115,"x_max":726,"o":"m 425 -12 q 318 0 371 -12 q 221 37 265 11 q 148 108 176 63 q 115 219 120 152 l 248 219 q 307 124 255 153 q 426 95 359 95 q 550 117 504 95 q 597 201 597 139 q 575 260 597 238 q 511 299 553 283 q 411 329 470 315 q 315 356 363 341 q 229 395 267 371 q 167 460 190 419 q 144 563 144 500 q 177 672 144 624 q 273 745 210 719 q 424 772 335 772 q 557 750 496 772 q 658 680 619 728 q 701 551 697 631 l 572 551 q 553 610 569 585 q 506 651 538 636 q 424 665 474 665 q 343 656 378 665 q 289 624 308 646 q 269 564 269 601 q 293 503 269 527 q 357 465 316 480 q 451 437 398 450 q 545 410 497 426 q 635 371 594 395 q 701 308 676 347 q 726 211 726 269 q 654 50 726 111 q 425 -12 582 -12 m 318 -362 q 328 -292 324 -334 q 335 -206 333 -250 q 338 -130 338 -162 l 338 -89 l 471 -89 l 471 -138 q 466 -219 471 -177 q 452 -298 460 -260 q 436 -362 444 -335 l 318 -362 z "},"ß":{"ha":833,"x_min":101,"x_max":756,"o":"m 101 0 l 101 765 q 144 959 101 885 q 259 1067 188 1033 q 417 1101 331 1101 q 576 1065 513 1101 q 668 969 638 1028 q 697 842 698 910 q 676 753 695 797 q 610 672 657 708 q 478 614 563 635 q 617 572 563 602 q 701 501 671 542 q 744 414 732 460 q 756 326 756 369 q 716 154 756 229 q 601 36 677 78 q 414 -7 524 -7 q 366 -6 390 -7 q 315 -3 342 -6 l 315 115 q 352 110 335 111 q 390 108 368 108 q 566 164 514 108 q 618 324 618 220 q 553 488 618 438 q 369 536 488 538 l 340 536 l 340 653 l 368 653 q 517 700 466 653 q 569 834 569 747 q 533 949 571 911 q 417 988 496 988 q 316 964 358 988 q 251 891 274 941 q 229 761 229 842 l 229 0 l 101 0 z "},"t":{"ha":833,"x_min":93,"x_max":733,"o":"m 501 -10 q 377 13 428 -10 q 298 84 325 35 q 270 212 270 133 l 270 546 q 276 585 270 565 q 297 622 283 606 q 335 642 311 638 l 269 728 l 272 751 l 303 1024 l 404 1024 l 404 232 q 434 134 404 158 q 535 110 465 110 q 618 116 583 110 q 680 131 653 122 q 733 150 708 140 l 733 26 q 636 0 691 11 q 501 -10 582 -10 m 93 642 l 93 758 l 668 758 l 668 642 l 93 642 z "},"ŧ":{"ha":833,"x_min":93,"x_max":733,"o":"m 94 358 l 94 474 l 667 474 l 667 358 l 94 358 m 506 -10 q 378 13 431 -10 q 298 84 326 35 q 271 212 271 133 l 271 546 q 277 585 271 565 q 297 622 283 606 q 335 642 311 638 l 271 728 l 273 751 l 306 1024 l 404 1024 l 404 232 q 435 134 404 158 q 540 110 466 110 q 645 122 600 110 q 733 150 690 133 l 733 26 q 631 -1 686 9 q 506 -10 576 -10 m 93 642 l 93 758 l 668 758 l 668 642 l 93 642 z "},"ť":{"ha":833,"x_min":93,"x_max":733,"o":"m 501 -10 q 377 13 428 -10 q 298 84 325 35 q 270 212 270 133 l 270 546 q 276 585 270 565 q 297 622 283 606 q 335 642 311 638 l 269 728 l 272 751 l 303 1024 l 404 1024 l 404 232 q 434 134 404 158 q 535 110 465 110 q 618 116 583 110 q 680 131 653 122 q 733 150 708 140 l 733 26 q 636 0 691 11 q 501 -10 582 -10 m 93 642 l 93 758 l 668 758 l 668 642 l 93 642 m 563 827 l 578 1083 l 701 1083 l 670 827 l 563 827 z "},"ţ":{"ha":833,"x_min":93,"x_max":733,"o":"m 501 -10 q 377 13 428 -10 q 298 84 325 35 q 270 212 270 133 l 270 546 q 276 585 270 565 q 297 622 283 606 q 335 642 311 638 l 269 728 l 272 751 l 303 1024 l 404 1024 l 404 232 q 434 134 404 158 q 535 110 465 110 q 618 116 583 110 q 680 131 653 122 q 733 150 708 140 l 733 26 q 636 0 691 11 q 501 -10 582 -10 m 93 642 l 93 758 l 668 758 l 668 642 l 93 642 m 508 -306 q 433 -300 461 -306 q 377 -281 405 -294 l 378 -182 q 419 -197 396 -191 q 474 -202 442 -202 q 528 -185 515 -202 q 541 -139 541 -168 q 520 -67 541 -99 q 453 0 500 -35 l 557 0 q 610 -41 585 -16 q 649 -98 634 -66 q 664 -167 664 -129 q 622 -268 664 -231 q 508 -306 580 -306 z "},"ț":{"ha":833,"x_min":93,"x_max":733,"o":"m 501 -10 q 377 13 428 -10 q 298 84 325 35 q 270 212 270 133 l 270 546 q 276 585 270 565 q 297 622 283 606 q 335 642 311 638 l 269 728 l 272 751 l 303 1024 l 404 1024 l 404 232 q 434 134 404 158 q 535 110 465 110 q 618 116 583 110 q 680 131 653 122 q 733 150 708 140 l 733 26 q 636 0 691 11 q 501 -10 582 -10 m 93 642 l 93 758 l 668 758 l 668 642 l 93 642 m 416 -362 q 426 -292 422 -334 q 433 -206 431 -250 q 436 -130 436 -162 l 436 -89 l 569 -89 l 569 -138 q 564 -219 569 -177 q 550 -298 558 -260 q 534 -362 542 -335 l 416 -362 z "},"u":{"ha":833,"x_min":126,"x_max":702,"o":"m 347 -15 q 187 51 248 -15 q 126 238 126 118 l 126 758 l 254 758 l 254 264 q 285 145 254 185 q 387 106 317 106 q 495 139 449 106 q 572 233 541 173 l 572 758 l 702 758 l 702 0 l 591 0 l 576 263 l 590 228 q 553 107 582 162 q 473 18 524 51 q 347 -15 422 -15 z "},"ú":{"ha":833,"x_min":126,"x_max":702,"o":"m 347 -15 q 187 51 248 -15 q 126 238 126 118 l 126 758 l 254 758 l 254 264 q 285 145 254 185 q 387 106 317 106 q 495 139 449 106 q 572 233 541 173 l 572 758 l 702 758 l 702 0 l 591 0 l 576 263 l 590 228 q 553 107 582 162 q 473 18 524 51 q 347 -15 422 -15 m 355 892 l 504 1115 l 658 1115 l 497 892 l 355 892 z "},"ŭ":{"ha":833,"x_min":126,"x_max":702,"o":"m 347 -15 q 187 51 248 -15 q 126 238 126 118 l 126 758 l 254 758 l 254 264 q 285 145 254 185 q 387 106 317 106 q 495 139 449 106 q 572 233 541 173 l 572 758 l 702 758 l 702 0 l 591 0 l 576 263 l 590 228 q 553 107 582 162 q 473 18 524 51 q 347 -15 422 -15 m 414 885 q 263 938 319 885 q 213 1099 206 990 l 319 1099 q 329 1022 317 1049 q 365 987 342 996 q 414 978 388 978 q 464 987 441 978 q 499 1023 486 997 q 508 1099 512 1049 l 615 1099 q 566 938 622 990 q 414 885 509 885 z "},"û":{"ha":833,"x_min":126,"x_max":702,"o":"m 347 -15 q 187 51 248 -15 q 126 238 126 118 l 126 758 l 254 758 l 254 264 q 285 145 254 185 q 387 106 317 106 q 495 139 449 106 q 572 233 541 173 l 572 758 l 702 758 l 702 0 l 591 0 l 576 263 l 590 228 q 553 107 582 162 q 473 18 524 51 q 347 -15 422 -15 m 194 891 l 347 1115 l 481 1115 l 634 891 l 517 891 l 414 1026 l 310 891 l 194 891 z "},"ü":{"ha":833,"x_min":126,"x_max":702,"o":"m 347 -15 q 187 51 248 -15 q 126 238 126 118 l 126 758 l 254 758 l 254 264 q 285 145 254 185 q 387 106 317 106 q 495 139 449 106 q 572 233 541 173 l 572 758 l 702 758 l 702 0 l 591 0 l 576 263 l 590 228 q 553 107 582 162 q 473 18 524 51 q 347 -15 422 -15 m 269 888 q 206 916 233 888 q 180 989 180 944 q 206 1061 180 1033 q 269 1089 233 1089 q 331 1061 305 1089 q 358 989 358 1033 q 331 916 358 944 q 269 888 304 888 m 559 888 q 497 916 523 888 q 470 989 470 944 q 497 1061 470 1034 q 559 1089 523 1089 q 621 1061 594 1089 q 648 989 648 1033 q 621 916 648 944 q 559 888 594 888 z "},"ụ":{"ha":833,"x_min":126,"x_max":702,"o":"m 347 -15 q 187 51 248 -15 q 126 238 126 118 l 126 758 l 254 758 l 254 264 q 285 145 254 185 q 387 106 317 106 q 495 139 449 106 q 572 233 541 173 l 572 758 l 702 758 l 702 0 l 591 0 l 576 263 l 590 228 q 553 107 582 162 q 473 18 524 51 q 347 -15 422 -15 m 414 -319 q 343 -291 372 -319 q 315 -218 315 -262 q 343 -146 315 -174 q 414 -118 372 -118 q 484 -146 456 -118 q 513 -218 513 -174 q 484 -291 513 -262 q 414 -319 456 -319 z "},"ù":{"ha":833,"x_min":126,"x_max":702,"o":"m 347 -15 q 187 51 248 -15 q 126 238 126 118 l 126 758 l 254 758 l 254 264 q 285 145 254 185 q 387 106 317 106 q 495 139 449 106 q 572 233 541 173 l 572 758 l 702 758 l 702 0 l 591 0 l 576 263 l 590 228 q 553 107 582 162 q 473 18 524 51 q 347 -15 422 -15 m 490 892 l 349 892 l 187 1115 l 340 1115 l 490 892 z "},"ű":{"ha":833,"x_min":126,"x_max":771,"o":"m 347 -15 q 187 51 248 -15 q 126 238 126 118 l 126 758 l 254 758 l 254 264 q 285 145 254 185 q 387 106 317 106 q 495 139 449 106 q 572 233 541 173 l 572 758 l 702 758 l 702 0 l 591 0 l 576 263 l 590 228 q 553 107 582 162 q 473 18 524 51 q 347 -15 422 -15 m 485 892 l 629 1119 l 771 1119 l 615 892 l 485 892 m 228 892 l 348 1119 l 492 1119 l 354 892 l 228 892 z "},"ū":{"ha":833,"x_min":126,"x_max":702,"o":"m 347 -15 q 187 51 248 -15 q 126 238 126 118 l 126 758 l 254 758 l 254 264 q 285 145 254 185 q 387 106 317 106 q 495 139 449 106 q 572 233 541 173 l 572 758 l 702 758 l 702 0 l 591 0 l 576 263 l 590 228 q 553 107 582 162 q 473 18 524 51 q 347 -15 422 -15 m 228 904 l 228 1017 l 601 1017 l 599 904 l 228 904 z "},"ų":{"ha":833,"x_min":126,"x_max":702,"o":"m 347 -15 q 187 51 248 -15 q 126 238 126 118 l 126 758 l 254 758 l 254 264 q 285 145 254 185 q 387 106 317 106 q 495 139 449 106 q 572 233 541 173 l 572 758 l 702 758 l 702 0 l 591 0 l 576 263 l 590 228 q 553 107 582 162 q 473 18 524 51 q 347 -15 422 -15 m 599 -297 q 487 -260 527 -297 q 447 -165 447 -224 q 488 -65 447 -109 q 605 0 528 -20 l 701 0 q 602 -68 634 -35 q 571 -137 571 -101 q 586 -179 571 -165 q 628 -193 601 -193 q 700 -177 664 -193 l 701 -276 q 661 -291 683 -284 q 599 -297 640 -297 z "},"ů":{"ha":833,"x_min":126,"x_max":702,"o":"m 347 -15 q 187 51 248 -15 q 126 238 126 118 l 126 758 l 254 758 l 254 264 q 285 145 254 185 q 387 106 317 106 q 495 139 449 106 q 572 233 541 173 l 572 758 l 702 758 l 702 0 l 591 0 l 576 263 l 590 228 q 553 107 582 162 q 473 18 524 51 q 347 -15 422 -15 m 415 876 q 290 921 337 876 q 244 1040 244 965 q 290 1159 244 1115 q 415 1203 337 1203 q 539 1159 493 1203 q 585 1040 585 1115 q 539 921 585 965 q 415 876 493 876 m 415 958 q 473 980 451 958 q 494 1040 494 1002 q 473 1100 494 1078 q 415 1122 451 1122 q 357 1100 378 1122 q 336 1040 336 1078 q 357 980 336 1002 q 415 958 378 958 z "},"ũ":{"ha":833,"x_min":126,"x_max":702,"o":"m 347 -15 q 187 51 248 -15 q 126 238 126 118 l 126 758 l 254 758 l 254 264 q 285 145 254 185 q 387 106 317 106 q 495 139 449 106 q 572 233 541 173 l 572 758 l 702 758 l 702 0 l 591 0 l 576 263 l 590 228 q 553 107 582 162 q 473 18 524 51 q 347 -15 422 -15 m 517 890 q 442 909 470 890 q 394 953 413 928 q 358 997 375 978 q 317 1016 342 1016 q 269 983 281 1016 q 265 890 256 949 l 163 890 q 189 1052 149 997 q 309 1108 229 1108 q 385 1089 356 1108 q 432 1045 413 1069 q 467 1001 450 1020 q 508 982 484 982 q 557 1013 544 982 q 561 1108 570 1044 l 663 1108 q 636 943 676 997 q 517 890 597 890 z "},"v":{"ha":833,"x_min":60,"x_max":773,"o":"m 340 0 l 60 758 l 210 758 l 357 294 l 410 125 l 424 125 l 478 295 l 624 758 l 773 758 l 494 0 l 340 0 z "},"w":{"ha":833,"x_min":-5,"x_max":838,"o":"m 167 0 l -5 758 l 124 758 l 186 392 l 231 113 l 235 113 l 278 363 l 339 662 l 495 662 l 554 363 l 598 107 l 603 108 l 644 392 l 710 758 l 838 758 l 667 0 l 533 0 l 457 353 l 420 578 l 414 578 l 376 352 l 301 0 l 167 0 z "},"ẃ":{"ha":833,"x_min":-5,"x_max":838,"o":"m 167 0 l -5 758 l 124 758 l 186 392 l 231 113 l 235 113 l 278 363 l 339 662 l 495 662 l 554 363 l 598 107 l 603 108 l 644 392 l 710 758 l 838 758 l 667 0 l 533 0 l 457 353 l 420 578 l 414 578 l 376 352 l 301 0 l 167 0 m 358 892 l 508 1115 l 662 1115 l 500 892 l 358 892 z "},"ŵ":{"ha":833,"x_min":-5,"x_max":838,"o":"m 167 0 l -5 758 l 124 758 l 186 392 l 231 113 l 235 113 l 278 363 l 339 662 l 495 662 l 554 363 l 598 107 l 603 108 l 644 392 l 710 758 l 838 758 l 667 0 l 533 0 l 457 353 l 420 578 l 414 578 l 376 352 l 301 0 l 167 0 m 197 891 l 350 1115 l 485 1115 l 638 891 l 521 891 l 417 1026 l 314 891 l 197 891 z "},"ẅ":{"ha":833,"x_min":-5,"x_max":838,"o":"m 167 0 l -5 758 l 124 758 l 186 392 l 231 113 l 235 113 l 278 363 l 339 662 l 495 662 l 554 363 l 598 107 l 603 108 l 644 392 l 710 758 l 838 758 l 667 0 l 533 0 l 457 353 l 420 578 l 414 578 l 376 352 l 301 0 l 167 0 m 272 888 q 210 916 236 888 q 183 989 183 944 q 210 1061 183 1033 q 272 1089 236 1089 q 335 1061 308 1089 q 361 989 361 1033 q 334 916 361 944 q 272 888 308 888 m 563 888 q 500 916 526 888 q 474 989 474 944 q 500 1061 474 1034 q 563 1089 526 1089 q 625 1061 598 1089 q 651 989 651 1033 q 624 916 651 944 q 563 888 597 888 z "},"ẁ":{"ha":833,"x_min":-5,"x_max":838,"o":"m 167 0 l -5 758 l 124 758 l 186 392 l 231 113 l 235 113 l 278 363 l 339 662 l 495 662 l 554 363 l 598 107 l 603 108 l 644 392 l 710 758 l 838 758 l 667 0 l 533 0 l 457 353 l 420 578 l 414 578 l 376 352 l 301 0 l 167 0 m 493 892 l 352 892 l 190 1115 l 344 1115 l 493 892 z "},"x":{"ha":833,"x_min":72,"x_max":762,"o":"m 72 0 l 362 419 l 363 337 l 79 758 l 225 758 l 372 529 l 417 450 l 460 528 l 606 758 l 756 758 l 466 337 l 467 419 l 762 0 l 613 0 l 458 231 l 413 303 l 369 228 l 222 0 l 72 0 z "},"y":{"ha":833,"x_min":87,"x_max":781,"o":"m 152 -299 l 152 -178 l 212 -178 q 294 -165 265 -178 q 339 -130 324 -153 q 363 -76 353 -107 q 382 -24 374 -42 q 406 0 390 -7 l 363 0 l 87 758 l 233 758 l 338 418 l 435 131 l 440 131 l 532 418 l 636 758 l 781 758 l 510 0 q 462 -124 485 -69 q 409 -218 440 -179 q 332 -278 378 -258 q 212 -299 285 -299 l 152 -299 z "},"ý":{"ha":833,"x_min":87,"x_max":781,"o":"m 152 -299 l 152 -178 l 212 -178 q 294 -165 265 -178 q 339 -130 324 -153 q 363 -76 353 -107 q 382 -24 374 -42 q 406 0 390 -7 l 363 0 l 87 758 l 233 758 l 338 418 l 435 131 l 440 131 l 532 418 l 636 758 l 781 758 l 510 0 q 462 -124 485 -69 q 409 -218 440 -179 q 332 -278 378 -258 q 212 -299 285 -299 l 152 -299 m 376 892 l 525 1115 l 679 1115 l 517 892 l 376 892 z "},"ŷ":{"ha":833,"x_min":87,"x_max":781,"o":"m 152 -299 l 152 -178 l 212 -178 q 294 -165 265 -178 q 339 -130 324 -153 q 363 -76 353 -107 q 382 -24 374 -42 q 406 0 390 -7 l 363 0 l 87 758 l 233 758 l 338 418 l 435 131 l 440 131 l 532 418 l 636 758 l 781 758 l 510 0 q 462 -124 485 -69 q 409 -218 440 -179 q 332 -278 378 -258 q 212 -299 285 -299 l 152 -299 m 215 891 l 367 1115 l 502 1115 l 655 891 l 538 891 l 435 1026 l 331 891 l 215 891 z "},"ÿ":{"ha":833,"x_min":87,"x_max":781,"o":"m 152 -299 l 152 -178 l 212 -178 q 294 -165 265 -178 q 339 -130 324 -153 q 363 -76 353 -107 q 382 -24 374 -42 q 406 0 390 -7 l 363 0 l 87 758 l 233 758 l 338 418 l 435 131 l 440 131 l 532 418 l 636 758 l 781 758 l 510 0 q 462 -124 485 -69 q 409 -218 440 -179 q 332 -278 378 -258 q 212 -299 285 -299 l 152 -299 m 290 888 q 227 916 253 888 q 201 989 201 944 q 227 1061 201 1033 q 290 1089 253 1089 q 352 1061 326 1089 q 378 989 378 1033 q 352 916 378 944 q 290 888 325 888 m 580 888 q 517 916 544 888 q 491 989 491 944 q 517 1061 491 1034 q 580 1089 544 1089 q 642 1061 615 1089 q 669 989 669 1033 q 642 916 669 944 q 580 888 615 888 z "},"ỳ":{"ha":833,"x_min":87,"x_max":781,"o":"m 152 -299 l 152 -178 l 212 -178 q 294 -165 265 -178 q 339 -130 324 -153 q 363 -76 353 -107 q 382 -24 374 -42 q 406 0 390 -7 l 363 0 l 87 758 l 233 758 l 338 418 l 435 131 l 440 131 l 532 418 l 636 758 l 781 758 l 510 0 q 462 -124 485 -69 q 409 -218 440 -179 q 332 -278 378 -258 q 212 -299 285 -299 l 152 -299 m 510 892 l 369 892 l 208 1115 l 361 1115 l 510 892 z "},"ȳ":{"ha":833,"x_min":87,"x_max":781,"o":"m 152 -299 l 152 -178 l 212 -178 q 294 -165 265 -178 q 339 -130 324 -153 q 363 -76 353 -107 q 382 -24 374 -42 q 406 0 390 -7 l 363 0 l 87 758 l 233 758 l 338 418 l 435 131 l 440 131 l 532 418 l 636 758 l 781 758 l 510 0 q 462 -124 485 -69 q 409 -218 440 -179 q 332 -278 378 -258 q 212 -299 285 -299 l 152 -299 m 249 904 l 249 1017 l 622 1017 l 619 904 l 249 904 z "},"ỹ":{"ha":833,"x_min":87,"x_max":781,"o":"m 152 -299 l 152 -178 l 212 -178 q 294 -165 265 -178 q 339 -130 324 -153 q 363 -76 353 -107 q 382 -24 374 -42 q 406 0 390 -7 l 363 0 l 87 758 l 233 758 l 338 418 l 435 131 l 440 131 l 532 418 l 636 758 l 781 758 l 510 0 q 462 -124 485 -69 q 409 -218 440 -179 q 332 -278 378 -258 q 212 -299 285 -299 l 152 -299 m 538 890 q 463 909 491 890 q 415 953 434 928 q 379 997 396 978 q 338 1016 363 1016 q 290 983 302 1016 q 286 890 277 949 l 184 890 q 210 1052 170 997 q 330 1108 250 1108 q 406 1089 377 1108 q 452 1045 434 1069 q 488 1001 471 1020 q 528 982 505 982 q 578 1013 565 982 q 582 1108 591 1044 l 683 1108 q 657 943 697 997 q 538 890 617 890 z "},"z":{"ha":833,"x_min":97,"x_max":764,"o":"m 97 0 l 480 548 q 536 619 510 592 q 591 662 561 646 l 606 657 q 522 652 565 655 q 440 649 479 649 l 135 649 l 135 758 l 764 758 l 382 203 q 326 133 354 163 q 267 85 298 103 l 261 101 q 338 107 299 103 q 413 110 377 110 l 750 110 l 750 0 l 97 0 z "},"ź":{"ha":833,"x_min":97,"x_max":764,"o":"m 97 0 l 480 548 q 536 619 510 592 q 591 662 561 646 l 606 657 q 522 652 565 655 q 440 649 479 649 l 135 649 l 135 758 l 764 758 l 382 203 q 326 133 354 163 q 267 85 298 103 l 261 101 q 338 107 299 103 q 413 110 377 110 l 750 110 l 750 0 l 97 0 m 374 892 l 524 1115 l 678 1115 l 516 892 l 374 892 z "},"ž":{"ha":833,"x_min":97,"x_max":764,"o":"m 97 0 l 480 548 q 536 619 510 592 q 591 662 561 646 l 606 657 q 522 652 565 655 q 440 649 479 649 l 135 649 l 135 758 l 764 758 l 382 203 q 326 133 354 163 q 267 85 298 103 l 261 101 q 338 107 299 103 q 413 110 377 110 l 750 110 l 750 0 l 97 0 m 366 884 l 213 1108 l 330 1108 l 433 971 l 537 1108 l 653 1108 l 501 884 l 366 884 z "},"ż":{"ha":833,"x_min":97,"x_max":764,"o":"m 97 0 l 480 548 q 536 619 510 592 q 591 662 561 646 l 606 657 q 522 652 565 655 q 440 649 479 649 l 135 649 l 135 758 l 764 758 l 382 203 q 326 133 354 163 q 267 85 298 103 l 261 101 q 338 107 299 103 q 413 110 377 110 l 750 110 l 750 0 l 97 0 m 433 891 q 361 920 391 891 q 332 996 332 949 q 361 1073 332 1043 q 433 1102 391 1102 q 505 1073 476 1102 q 535 996 535 1043 q 505 920 535 949 q 433 891 476 891 z "},"ﬁ":{"ha":833,"x_min":-35,"x_max":900,"o":"m 72 0 l 72 575 q 81 617 72 597 q 106 642 90 636 l 72 727 l 72 848 q 103 995 72 937 q 187 1083 135 1054 q 303 1112 240 1112 q 357 1110 336 1112 q 393 1106 378 1108 l 393 981 q 360 990 380 987 q 310 992 340 992 q 247 978 274 992 q 206 928 220 964 q 192 827 192 892 l 192 0 l 72 0 m -35 642 l -35 758 l 353 758 l 353 642 l -35 642 m 601 0 l 601 749 l 724 753 l 722 0 l 601 0 m 404 758 l 722 758 l 722 652 l 404 652 l 404 758 m 412 103 l 900 103 l 900 0 l 412 0 l 412 103 m 659 891 q 587 920 617 891 q 558 996 558 949 q 587 1073 558 1043 q 659 1102 617 1102 q 731 1073 701 1102 q 760 996 760 1043 q 731 920 760 949 q 659 891 701 891 z "},"ﬂ":{"ha":833,"x_min":-36,"x_max":833,"o":"m 708 -10 q 615 2 651 -10 q 556 40 578 14 q 526 109 535 67 q 517 212 517 151 l 517 896 q 530 947 517 928 q 566 969 542 965 l 492 969 q 432 975 461 969 q 373 986 403 981 q 309 992 344 992 q 247 978 274 992 q 205 928 220 964 q 190 827 190 892 l 190 0 l 71 0 l 71 575 q 79 617 71 597 q 103 642 88 636 l 71 727 l 71 848 q 102 995 71 937 q 185 1083 133 1054 q 302 1112 238 1112 q 357 1109 333 1112 q 404 1102 382 1106 q 448 1093 426 1097 q 494 1085 469 1088 q 549 1083 519 1083 l 651 1083 l 649 232 q 665 135 649 159 q 720 110 680 110 q 784 117 758 110 q 833 140 810 124 l 833 17 q 778 -3 811 3 q 708 -10 745 -10 m -36 642 l -36 758 l 351 758 l 351 642 l -36 642 z "},"ª":{"ha":833,"x_min":155,"x_max":674,"o":"m 359 417 q 209 463 263 417 q 155 582 155 508 q 200 697 155 658 q 328 752 244 735 q 406 763 363 758 q 491 770 450 767 q 558 774 533 773 l 558 804 q 527 899 558 870 q 426 928 497 928 q 355 919 388 928 q 304 883 323 909 q 285 806 285 856 l 173 806 q 197 933 166 883 q 288 1006 227 983 q 433 1030 349 1030 q 554 1011 499 1030 q 641 947 608 993 q 674 817 674 901 l 674 424 l 556 424 l 558 556 q 493 457 544 496 q 359 417 442 417 m 392 506 q 467 520 432 506 q 527 555 503 533 q 558 598 551 576 l 558 709 q 486 701 530 706 q 413 689 442 695 q 316 654 349 676 q 283 592 283 632 q 313 531 283 556 q 392 506 342 506 z "},"º":{"ha":833,"x_min":133,"x_max":703,"o":"m 415 417 q 208 496 283 417 q 133 726 133 576 q 169 889 133 821 q 269 994 206 958 q 417 1031 333 1031 q 629 950 555 1031 q 703 726 703 868 q 666 557 703 626 q 564 452 629 488 q 415 417 499 417 m 417 519 q 536 569 492 519 q 581 726 581 619 q 538 878 581 827 q 415 928 495 928 q 299 877 342 928 q 255 726 255 826 q 298 572 255 624 q 417 519 342 519 z "},"₀":{"ha":833,"x_min":108,"x_max":726,"o":"m 417 -315 q 186 -234 264 -315 q 108 18 108 -153 q 185 267 108 189 q 417 344 262 344 q 649 267 572 344 q 726 18 726 189 q 648 -235 726 -155 q 417 -315 570 -315 m 417 -220 q 564 -165 516 -220 q 611 18 611 -109 q 564 197 611 143 q 417 250 516 250 q 270 197 317 250 q 222 18 222 143 q 270 -165 222 -109 q 417 -220 318 -220 z "},"₁":{"ha":833,"x_min":117,"x_max":720,"o":"m 399 -276 l 399 149 q 401 199 399 174 q 408 260 403 224 l 410 338 l 517 338 l 517 -276 l 399 -276 m 155 -308 l 155 -215 l 720 -215 l 720 -308 l 155 -308 m 117 161 l 117 260 q 207 252 163 251 q 292 264 252 253 q 362 293 331 274 q 410 338 392 312 l 408 255 q 353 189 399 215 q 244 153 307 162 q 117 161 181 145 z "},"₂":{"ha":833,"x_min":133,"x_max":699,"o":"m 133 -308 q 186 -257 161 -281 q 239 -208 211 -233 q 304 -151 267 -183 q 393 -72 341 -118 q 484 9 449 -24 q 539 65 519 42 q 566 108 558 88 q 574 149 574 127 q 535 225 574 199 q 428 251 496 251 q 306 214 349 251 q 269 106 263 176 l 163 106 q 222 280 150 215 q 430 344 294 344 q 616 294 549 344 q 683 157 683 243 q 671 84 683 118 q 626 11 658 49 q 533 -80 594 -28 q 457 -144 488 -117 q 405 -189 426 -170 q 369 -220 383 -207 q 342 -243 354 -233 q 382 -221 360 -228 q 456 -215 403 -215 l 699 -215 l 699 -308 l 133 -308 z "},"₃":{"ha":833,"x_min":112,"x_max":715,"o":"m 418 -315 q 193 -260 274 -315 q 117 -111 112 -206 l 233 -111 q 279 -197 231 -169 q 416 -224 326 -224 q 549 -199 499 -224 q 599 -121 599 -174 q 551 -40 599 -63 q 413 -16 503 -16 l 318 -16 l 318 67 l 414 67 q 523 95 480 67 q 565 168 565 124 q 526 236 565 217 q 416 254 486 254 q 295 229 335 254 q 260 149 256 204 l 144 149 q 212 295 142 245 q 417 345 281 345 q 609 301 538 345 q 681 176 681 258 q 636 80 681 115 q 513 35 592 44 q 662 -11 610 29 q 715 -124 715 -52 q 634 -264 715 -212 q 418 -315 553 -315 z "},"₄":{"ha":833,"x_min":111,"x_max":744,"o":"m 111 -202 l 383 344 l 517 344 l 291 -91 l 274 -116 l 744 -116 l 743 -202 l 111 -202 m 523 -308 l 524 -147 l 565 -116 q 533 -99 542 -116 q 523 -44 523 -83 l 523 83 l 641 85 l 641 -308 l 523 -308 z "},"₅":{"ha":833,"x_min":117,"x_max":717,"o":"m 417 -315 q 257 -289 326 -315 q 153 -217 189 -262 q 124 -113 117 -171 l 237 -113 q 285 -191 235 -160 q 421 -223 335 -223 q 555 -190 508 -223 q 601 -99 601 -156 q 555 -5 601 -34 q 419 24 508 24 q 318 13 368 24 q 231 -21 268 1 l 140 6 l 197 338 l 675 338 l 675 244 l 298 244 l 241 28 q 321 89 265 67 q 455 110 377 110 q 648 58 579 110 q 717 -92 717 5 q 636 -255 717 -195 q 417 -315 556 -315 z "},"₆":{"ha":833,"x_min":124,"x_max":722,"o":"m 424 -315 q 266 -282 334 -315 q 161 -191 199 -250 q 124 -53 124 -132 q 143 54 124 1 q 197 157 162 107 q 282 253 232 208 q 395 338 333 299 l 564 338 q 428 255 487 297 q 328 167 369 212 q 265 77 287 123 q 240 -13 243 32 l 236 -4 q 322 90 256 53 q 474 126 388 126 q 658 68 594 126 q 722 -81 722 10 q 683 -201 722 -149 q 575 -284 643 -254 q 424 -315 508 -315 m 426 -221 q 556 -184 507 -221 q 606 -83 606 -148 q 564 8 606 -24 q 445 40 522 40 q 330 26 383 40 q 244 -19 277 12 q 242 -38 243 -22 q 241 -67 241 -54 q 289 -183 241 -144 q 426 -221 338 -221 z "},"₇":{"ha":833,"x_min":105,"x_max":720,"o":"m 238 -308 l 531 187 q 580 235 550 219 q 657 249 610 251 l 666 244 l 105 244 l 105 338 l 720 338 l 376 -308 l 238 -308 z "},"₈":{"ha":833,"x_min":115,"x_max":718,"o":"m 417 -315 q 198 -267 281 -315 q 115 -129 115 -219 q 168 -24 115 -65 q 324 23 220 17 q 197 70 245 30 q 149 172 149 111 q 182 261 149 222 q 275 323 215 300 q 417 345 335 345 q 559 323 499 345 q 652 261 619 300 q 685 172 685 222 q 636 70 685 110 q 510 22 588 29 q 666 -25 614 16 q 718 -129 718 -65 q 681 -230 718 -189 q 576 -293 644 -272 q 417 -315 508 -315 m 417 -227 q 553 -201 504 -227 q 602 -124 602 -175 q 556 -49 602 -78 q 417 -20 510 -20 q 277 -49 322 -20 q 231 -124 231 -78 q 281 -201 231 -176 q 417 -227 331 -227 m 417 62 q 526 92 483 62 q 570 171 570 122 q 530 235 570 212 q 417 259 489 259 q 303 235 344 259 q 263 171 263 211 q 306 91 263 121 q 417 62 349 62 z "},"₉":{"ha":833,"x_min":115,"x_max":714,"o":"m 273 -308 q 408 -224 349 -267 q 509 -136 467 -181 q 573 -46 551 -92 q 599 44 596 0 l 604 37 q 518 -60 583 -22 q 368 -99 453 -99 q 183 -40 251 -99 q 115 112 115 19 q 154 232 115 179 q 260 314 193 284 q 413 344 327 344 q 572 312 504 344 q 676 221 639 280 q 714 81 714 162 q 695 -23 714 30 q 641 -127 676 -76 q 557 -225 606 -178 q 446 -308 508 -271 l 273 -308 m 399 -13 q 510 2 458 -13 q 594 50 562 18 q 597 69 596 53 q 598 97 598 85 q 549 213 598 174 q 411 252 500 252 q 282 215 331 252 q 232 115 232 178 q 274 21 233 55 q 399 -13 315 -13 z "},"⁰":{"ha":833,"x_min":108,"x_max":726,"o":"m 417 588 q 186 669 264 588 q 108 921 108 749 q 185 1169 108 1092 q 417 1247 262 1247 q 649 1169 572 1247 q 726 921 726 1092 q 648 668 726 748 q 417 588 570 588 m 417 683 q 564 738 516 683 q 611 921 611 794 q 564 1099 611 1046 q 417 1153 516 1153 q 270 1099 317 1153 q 222 921 222 1046 q 270 738 222 794 q 417 683 318 683 z "},"¹":{"ha":833,"x_min":117,"x_max":720,"o":"m 399 626 l 399 1051 q 401 1101 399 1076 q 408 1163 403 1126 l 410 1240 l 517 1240 l 517 626 l 399 626 m 155 595 l 155 688 l 720 688 l 720 595 l 155 595 m 117 1064 l 117 1163 q 207 1155 163 1153 q 292 1167 252 1156 q 362 1196 331 1177 q 410 1240 392 1215 l 408 1158 q 353 1091 399 1118 q 244 1056 307 1065 q 117 1064 181 1048 z "},"²":{"ha":833,"x_min":133,"x_max":699,"o":"m 133 594 q 186 646 161 622 q 239 694 211 669 q 304 752 267 719 q 393 831 341 785 q 484 912 449 879 q 539 968 519 944 q 566 1010 558 991 q 574 1052 574 1030 q 535 1128 574 1101 q 428 1154 496 1154 q 306 1116 349 1154 q 269 1009 263 1078 l 163 1009 q 222 1182 150 1117 q 430 1247 294 1247 q 616 1197 549 1247 q 683 1060 683 1146 q 671 986 683 1021 q 626 914 658 952 q 533 823 594 875 q 457 759 488 785 q 405 714 426 733 q 369 683 383 696 q 342 660 354 670 q 382 682 360 675 q 456 688 403 688 l 699 688 l 699 594 l 133 594 z "},"³":{"ha":833,"x_min":112,"x_max":715,"o":"m 418 588 q 193 643 274 588 q 117 792 112 697 l 233 792 q 279 706 231 734 q 416 678 326 678 q 549 704 499 679 q 599 782 599 729 q 551 863 599 840 q 413 887 503 887 l 318 887 l 318 969 l 414 969 q 523 998 480 969 q 565 1071 565 1027 q 526 1139 565 1120 q 416 1157 486 1157 q 295 1132 335 1157 q 260 1051 256 1107 l 144 1051 q 212 1198 142 1148 q 417 1248 281 1248 q 609 1204 538 1248 q 681 1078 681 1160 q 636 982 681 1018 q 513 938 592 947 q 662 891 610 932 q 715 778 715 851 q 634 639 715 690 q 418 588 553 588 z "},"⁴":{"ha":833,"x_min":111,"x_max":744,"o":"m 111 701 l 383 1247 l 517 1247 l 291 812 l 274 787 l 744 787 l 743 701 l 111 701 m 523 595 l 524 756 l 565 787 q 533 803 542 787 q 523 858 523 820 l 523 986 l 641 988 l 641 595 l 523 595 z "},"⁵":{"ha":833,"x_min":117,"x_max":717,"o":"m 417 588 q 257 614 326 588 q 153 686 189 640 q 124 790 117 732 l 237 790 q 285 711 235 743 q 421 680 335 680 q 555 713 508 680 q 601 804 601 747 q 555 898 601 869 q 419 927 508 927 q 318 916 368 927 q 231 882 268 904 l 140 909 l 197 1240 l 675 1240 l 675 1147 l 298 1147 l 241 931 q 321 991 265 969 q 455 1013 377 1013 q 648 960 579 1013 q 717 810 717 908 q 636 648 717 708 q 417 588 556 588 z "},"⁶":{"ha":833,"x_min":124,"x_max":722,"o":"m 424 588 q 266 620 334 588 q 161 712 199 653 q 124 850 124 771 q 143 957 124 903 q 197 1060 162 1010 q 282 1156 232 1110 q 395 1240 333 1202 l 564 1240 q 428 1157 487 1200 q 328 1070 369 1115 q 265 980 287 1026 q 240 890 243 935 l 236 899 q 322 993 256 956 q 474 1029 388 1029 q 658 971 594 1029 q 722 822 722 913 q 683 701 722 754 q 575 618 643 649 q 424 588 508 588 m 426 682 q 556 718 507 682 q 606 819 606 755 q 564 911 606 879 q 445 942 522 942 q 330 928 383 942 q 244 884 277 915 q 242 865 243 881 q 241 836 241 849 q 289 720 241 758 q 426 682 338 682 z "},"⁷":{"ha":833,"x_min":105,"x_max":720,"o":"m 238 595 l 531 1090 q 580 1138 550 1122 q 657 1152 610 1153 l 666 1147 l 105 1147 l 105 1240 l 720 1240 l 376 595 l 238 595 z "},"⁸":{"ha":833,"x_min":115,"x_max":718,"o":"m 417 588 q 198 636 281 588 q 115 774 115 683 q 168 878 115 838 q 324 926 220 919 q 197 973 245 933 q 149 1075 149 1014 q 182 1164 149 1125 q 275 1225 215 1203 q 417 1248 335 1248 q 559 1225 499 1248 q 652 1164 619 1203 q 685 1075 685 1125 q 636 973 685 1013 q 510 925 588 932 q 666 878 614 919 q 718 774 718 838 q 681 673 718 714 q 576 610 644 631 q 417 588 508 588 m 417 676 q 553 702 504 676 q 602 778 602 728 q 556 853 602 824 q 417 883 510 883 q 277 853 322 883 q 231 778 231 824 q 281 701 231 727 q 417 676 331 676 m 417 965 q 526 995 483 965 q 570 1074 570 1025 q 530 1138 570 1115 q 417 1162 489 1162 q 303 1138 344 1162 q 263 1074 263 1114 q 306 994 263 1024 q 417 965 349 965 z "},"⁹":{"ha":833,"x_min":115,"x_max":714,"o":"m 273 595 q 408 678 349 635 q 509 766 467 722 q 573 857 551 811 q 599 947 596 903 l 604 940 q 518 842 583 881 q 368 804 453 804 q 183 863 251 804 q 115 1015 115 922 q 154 1134 115 1082 q 260 1217 193 1187 q 413 1247 327 1247 q 572 1215 504 1247 q 676 1124 639 1183 q 714 983 714 1065 q 695 880 714 933 q 641 775 676 826 q 557 678 606 724 q 446 595 508 632 l 273 595 m 399 890 q 510 905 458 890 q 594 953 562 921 q 597 972 596 956 q 598 1000 598 988 q 549 1116 598 1077 q 411 1155 500 1155 q 282 1118 331 1155 q 232 1017 232 1081 q 274 924 233 958 q 399 890 315 890 z "},"⁄":{"ha":833,"x_min":100,"x_max":733,"o":"m 100 0 l 626 1010 l 733 1010 l 208 0 l 100 0 z "},"½":{"ha":833,"x_min":129,"x_max":700,"o":"m 395 604 l 395 1005 q 397 1052 395 1029 q 403 1110 399 1076 l 406 1183 l 508 1183 l 508 604 l 395 604 m 167 574 l 167 663 l 700 663 l 700 574 l 167 574 m 129 1017 l 129 1110 q 242 1103 187 1098 q 340 1130 297 1109 q 406 1183 383 1151 l 403 1107 q 351 1044 394 1069 q 249 1010 308 1018 q 129 1017 189 1002 m 135 -183 q 188 -135 163 -157 q 241 -89 213 -112 q 305 -34 268 -65 q 392 40 341 -3 q 482 116 447 85 q 536 168 517 147 q 564 209 556 190 q 572 249 572 227 q 533 319 572 295 q 427 343 494 343 q 305 308 347 343 q 270 208 263 273 l 164 208 q 222 371 151 310 q 429 433 294 433 q 614 385 547 433 q 681 256 681 337 q 668 187 681 219 q 622 119 655 155 q 528 33 589 83 q 448 -32 479 -7 q 398 -73 417 -58 q 366 -100 378 -89 q 340 -122 353 -110 q 378 -101 357 -108 q 453 -94 400 -94 l 696 -94 l 696 -183 l 135 -183 z "},"¼":{"ha":833,"x_min":122,"x_max":719,"o":"m 395 604 l 395 1005 q 397 1052 395 1029 q 403 1110 399 1076 l 406 1183 l 508 1183 l 508 604 l 395 604 m 167 574 l 167 663 l 700 663 l 700 574 l 167 574 m 129 1017 l 129 1110 q 242 1103 187 1098 q 340 1130 297 1109 q 406 1183 383 1151 l 403 1107 q 351 1044 394 1069 q 249 1010 308 1018 q 129 1017 189 1002 m 122 -83 l 391 433 l 519 433 l 292 22 l 276 -1 l 719 -1 l 719 -83 l 122 -83 m 510 -183 l 511 -31 l 551 -1 q 520 14 529 -1 q 510 67 510 30 l 510 187 l 622 188 l 622 -183 l 510 -183 z "},"¾":{"ha":833,"x_min":122,"x_max":719,"o":"m 415 567 q 201 619 277 567 q 131 760 126 670 l 241 760 q 284 679 240 705 q 413 654 328 653 q 538 677 491 654 q 585 749 585 699 q 540 826 585 803 q 409 849 494 849 l 320 849 l 320 927 l 410 927 q 513 954 473 927 q 553 1023 553 981 q 516 1086 553 1069 q 413 1103 478 1103 q 301 1080 339 1103 q 269 1004 264 1056 l 158 1004 q 222 1142 157 1095 q 414 1190 287 1190 q 595 1149 528 1190 q 663 1031 663 1108 q 620 939 663 973 q 504 897 578 905 q 646 853 597 892 q 694 746 694 814 q 618 615 694 662 q 415 567 542 567 m 122 -83 l 391 433 l 519 433 l 292 22 l 276 -1 l 719 -1 l 719 -83 l 122 -83 m 510 -183 l 511 -31 l 551 -1 q 520 14 529 -1 q 510 67 510 30 l 510 187 l 622 188 l 622 -183 l 510 -183 z "},".":{"ha":833,"x_min":304,"x_max":529,"o":"m 417 -20 q 336 13 368 -20 q 304 100 304 46 q 336 187 304 153 q 417 220 368 220 q 497 187 465 220 q 529 100 529 153 q 497 13 529 46 q 417 -20 465 -20 z "},",":{"ha":833,"x_min":338,"x_max":531,"o":"m 340 -381 l 340 -261 l 361 -261 q 385 -246 374 -261 q 403 -193 397 -231 q 410 -92 410 -156 q 419 -31 410 -53 q 469 0 428 -9 l 338 0 l 338 213 l 531 213 l 531 -74 q 514 -240 531 -172 q 459 -344 497 -308 q 356 -381 421 -381 l 340 -381 z "},":":{"ha":833,"x_min":304,"x_max":529,"o":"m 417 -20 q 336 13 368 -20 q 304 100 304 46 q 336 187 304 153 q 417 220 368 220 q 497 187 465 220 q 529 100 529 153 q 497 13 529 46 q 417 -20 465 -20 m 417 492 q 336 525 368 492 q 304 612 304 558 q 336 699 304 665 q 417 732 368 732 q 497 699 465 732 q 529 612 529 665 q 497 525 529 558 q 417 492 465 492 z "},";":{"ha":833,"x_min":311,"x_max":536,"o":"m 424 492 q 343 525 375 492 q 311 612 311 558 q 343 699 311 665 q 424 732 375 732 q 504 699 472 732 q 536 612 536 665 q 504 525 536 558 q 424 492 472 492 m 340 -381 l 340 -261 l 361 -261 q 385 -246 374 -261 q 403 -193 397 -231 q 410 -92 410 -156 q 419 -31 410 -53 q 469 0 428 -9 l 338 0 l 338 213 l 531 213 l 531 -74 q 514 -240 531 -172 q 459 -344 497 -308 q 356 -381 421 -381 l 340 -381 z "},"…":{"ha":833,"x_min":33,"x_max":801,"o":"m 133 -20 q 55 7 78 -20 q 33 100 33 35 q 55 193 33 165 q 133 220 78 220 q 209 193 187 220 q 232 100 232 165 q 209 7 232 35 q 133 -20 187 -20 m 701 -20 q 624 7 647 -20 q 601 100 601 35 q 624 193 601 165 q 701 220 647 220 q 778 193 756 220 q 801 100 801 165 q 778 7 801 35 q 701 -20 756 -20 m 417 -20 q 339 7 362 -20 q 317 100 317 35 q 339 193 317 165 q 417 220 362 220 q 494 193 472 220 q 517 100 517 165 q 494 7 517 35 q 417 -20 472 -20 z "},"!":{"ha":833,"x_min":304,"x_max":529,"o":"m 368 367 l 340 838 l 326 1181 l 506 1181 l 492 838 l 465 367 l 368 367 m 417 -20 q 336 13 368 -20 q 304 100 304 46 q 336 187 304 153 q 417 220 368 220 q 497 187 465 220 q 529 100 529 153 q 497 13 529 46 q 417 -20 465 -20 z "},"¡":{"ha":833,"x_min":304,"x_max":529,"o":"m 368 784 l 465 784 l 492 313 l 506 -29 l 326 -29 l 340 313 l 368 784 m 417 1172 q 497 1139 465 1172 q 529 1051 529 1106 q 497 965 529 998 q 417 931 465 931 q 336 965 368 931 q 304 1051 304 998 q 336 1139 304 1106 q 417 1172 368 1172 z "},"?":{"ha":833,"x_min":74,"x_max":748,"o":"m 349 367 q 341 418 344 384 q 338 476 338 451 q 357 564 338 526 q 407 634 376 603 q 471 695 437 666 q 535 754 505 724 q 584 819 565 784 q 603 899 603 855 q 584 978 603 940 q 524 1042 564 1017 q 424 1067 485 1067 q 290 1033 337 1067 q 227 937 242 999 q 221 794 213 876 l 85 795 q 86 941 74 871 q 137 1067 98 1012 q 247 1155 176 1123 q 422 1188 317 1188 q 573 1163 510 1188 q 673 1098 635 1138 q 730 1009 712 1057 q 748 915 748 961 q 727 796 748 845 q 673 710 706 747 q 603 645 640 674 q 533 589 566 617 q 479 526 500 560 q 458 445 458 492 q 459 398 458 413 q 461 367 460 382 l 349 367 m 417 -20 q 337 13 369 -20 q 305 97 305 45 q 337 180 305 148 q 417 213 369 213 q 497 180 465 213 q 528 97 528 148 q 497 13 528 45 q 417 -20 465 -20 z "},"¿":{"ha":833,"x_min":90,"x_max":764,"o":"m 489 779 q 497 729 494 763 q 499 670 499 695 q 480 583 499 621 q 431 513 461 544 q 367 452 401 481 q 302 393 333 423 q 253 327 272 363 q 234 247 234 292 q 254 169 234 208 q 313 105 274 130 q 414 79 353 79 q 548 114 501 79 q 610 210 595 148 q 617 352 626 272 l 753 351 q 752 205 764 276 q 700 79 740 135 q 591 -9 661 24 q 415 -41 521 -41 q 265 -16 327 -41 q 164 49 203 8 q 108 138 126 90 q 90 231 90 185 q 110 351 90 301 q 164 436 131 400 q 234 501 197 472 q 305 558 272 530 q 358 620 338 586 q 379 701 379 655 q 378 749 379 733 q 376 779 378 765 l 489 779 m 421 1167 q 501 1134 469 1167 q 533 1050 533 1101 q 501 966 533 999 q 421 934 469 934 q 341 966 373 934 q 309 1050 309 999 q 341 1134 309 1101 q 421 1167 373 1167 z "},"·":{"ha":833,"x_min":304,"x_max":529,"o":"m 417 417 q 336 450 368 417 q 304 538 304 483 q 336 624 304 591 q 417 658 368 658 q 497 624 465 658 q 529 538 529 591 q 497 450 529 483 q 417 417 465 417 z "},"•":{"ha":833,"x_min":285,"x_max":549,"o":"m 417 390 q 322 430 360 390 q 285 528 285 469 q 322 627 285 588 q 417 666 360 666 q 511 627 474 666 q 549 528 549 588 q 512 430 549 469 q 417 390 474 390 z "},"*":{"ha":833,"x_min":47,"x_max":786,"o":"m 269 308 l 138 403 l 377 635 l 47 683 l 98 838 l 392 681 l 334 1010 l 497 1010 l 441 681 l 735 838 l 786 683 l 456 635 l 697 403 l 564 308 l 417 606 l 269 308 z "},"#":{"ha":833,"x_min":42,"x_max":792,"o":"m 390 14 l 613 989 l 727 989 l 505 14 l 390 14 m 42 245 l 42 342 l 718 342 l 718 245 l 42 245 m 106 14 l 328 989 l 442 989 l 221 14 l 106 14 m 107 640 l 107 737 l 792 737 l 792 640 l 107 640 z "},"/":{"ha":833,"x_min":128,"x_max":705,"o":"m 128 -135 l 576 1174 l 705 1174 l 258 -135 l 128 -135 z "},"\\":{"ha":833,"x_min":128,"x_max":705,"o":"m 705 -135 l 576 -135 l 128 1174 l 258 1174 l 705 -135 z "},"(":{"ha":833,"x_min":199,"x_max":663,"o":"m 508 -174 q 375 -51 433 -125 q 278 112 317 22 q 219 299 239 201 q 199 492 199 396 q 219 682 199 585 q 278 869 239 779 q 375 1034 317 960 q 508 1157 433 1108 l 663 1157 q 523 1020 584 1095 q 420 859 462 944 q 357 680 378 773 q 336 492 336 588 q 374 235 336 357 q 484 9 411 113 q 663 -174 557 -94 l 508 -174 z "},")":{"ha":833,"x_min":199,"x_max":663,"o":"m 199 -174 q 378 9 305 -94 q 488 235 451 113 q 526 492 526 357 q 504 680 526 588 q 441 859 483 773 q 339 1020 400 944 q 199 1157 278 1095 l 353 1157 q 486 1034 428 1108 q 583 869 544 960 q 643 682 623 779 q 663 492 663 585 q 643 299 663 396 q 583 112 623 201 q 486 -51 544 22 q 353 -174 428 -125 l 199 -174 z "},"{":{"ha":833,"x_min":146,"x_max":670,"o":"m 446 -178 q 360 -162 401 -178 q 291 -116 319 -147 q 253 -39 262 -85 q 262 69 244 8 l 331 304 q 335 372 344 347 q 294 416 326 397 q 263 431 279 425 q 220 440 247 436 q 146 449 194 444 l 146 546 q 204 552 181 549 q 247 559 227 555 q 288 572 266 563 q 337 608 324 585 q 331 685 349 630 l 262 915 q 253 1019 244 974 q 291 1097 262 1065 q 360 1145 319 1128 q 446 1161 401 1161 l 670 1161 l 670 1051 l 501 1051 q 390 1014 419 1051 q 386 900 360 976 l 463 670 q 469 586 479 622 q 415 529 458 551 q 291 495 372 507 q 416 464 373 485 q 469 409 458 442 q 463 326 479 376 l 386 83 q 377 -2 369 31 q 415 -52 384 -36 q 501 -68 447 -68 l 670 -68 l 670 -178 l 446 -178 z "},"}":{"ha":833,"x_min":163,"x_max":688,"o":"m 388 -178 l 163 -178 l 163 -68 l 333 -68 q 418 -52 387 -68 q 457 -2 449 -36 q 447 83 464 31 l 370 326 q 365 409 355 376 q 418 464 375 442 q 542 495 460 485 q 418 529 461 507 q 365 586 375 551 q 371 670 354 622 l 447 900 q 443 1014 473 976 q 333 1051 414 1051 l 163 1051 l 163 1161 l 388 1161 q 473 1145 433 1161 q 543 1097 514 1128 q 581 1019 572 1065 q 572 915 590 974 l 502 685 q 497 608 485 630 q 545 572 509 585 q 587 559 567 563 q 630 552 606 555 q 688 546 653 549 l 688 449 q 613 440 640 444 q 570 431 586 436 q 540 416 554 425 q 499 372 508 397 q 502 304 490 347 l 572 69 q 581 -39 590 8 q 543 -116 572 -85 q 473 -162 514 -147 q 388 -178 433 -178 z "},"[":{"ha":833,"x_min":178,"x_max":645,"o":"m 178 -172 l 178 1154 l 645 1154 l 645 1046 l 250 1046 l 304 1093 l 304 -110 l 250 -62 l 645 -62 l 645 -172 l 178 -172 z "},"]":{"ha":833,"x_min":188,"x_max":655,"o":"m 655 -172 l 188 -172 l 188 -62 l 583 -62 l 529 -110 l 529 1093 l 583 1046 l 188 1046 l 188 1154 l 655 1154 l 655 -172 z "},"-":{"ha":833,"x_min":152,"x_max":681,"o":"m 152 443 l 152 553 l 681 553 l 681 443 l 152 443 z "},"­":{"ha":833,"x_min":152,"x_max":681,"o":"m 152 443 l 152 553 l 681 553 l 681 443 l 152 443 z "},"–":{"ha":833,"x_min":83,"x_max":750,"o":"m 83 446 l 83 551 l 750 551 l 750 446 l 83 446 z "},"—":{"ha":833,"x_min":0,"x_max":833,"o":"m 0 446 l 0 551 l 833 551 l 832 446 l 0 446 z "},"_":{"ha":833,"x_min":-3,"x_max":836,"o":"m -3 -138 l -3 -35 l 836 -35 l 836 -138 l -3 -138 z "},"‚":{"ha":833,"x_min":339,"x_max":527,"o":"m 342 -356 l 342 -239 l 370 -239 q 400 -227 390 -239 q 414 -185 410 -216 q 417 -95 417 -153 q 425 -28 418 -47 q 466 -1 432 -9 l 339 -1 l 339 203 l 527 203 l 527 -62 q 490 -286 527 -215 q 368 -356 452 -356 l 342 -356 z "},"„":{"ha":833,"x_min":180,"x_max":657,"o":"m 183 -348 l 183 -231 l 211 -231 q 241 -219 231 -231 q 255 -179 251 -208 q 259 -95 259 -149 q 266 -28 259 -47 q 307 -1 274 -9 l 180 -1 l 180 203 l 369 203 l 369 -53 q 352 -220 369 -155 q 301 -317 336 -285 q 210 -348 266 -348 l 183 -348 m 472 -348 l 472 -231 l 500 -231 q 529 -219 519 -231 q 543 -179 539 -208 q 547 -95 547 -149 q 555 -28 547 -47 q 596 -1 562 -9 l 469 -1 l 469 203 l 657 203 l 657 -53 q 641 -220 657 -155 q 589 -317 624 -285 q 498 -348 554 -348 l 472 -348 z "},"“":{"ha":833,"x_min":177,"x_max":654,"o":"m 651 1081 l 651 963 l 623 963 q 594 952 604 963 q 580 912 583 941 q 575 828 576 883 q 568 761 575 780 q 527 734 560 742 l 654 734 l 654 530 l 465 530 l 465 786 q 482 953 465 888 q 533 1049 498 1018 q 624 1081 569 1081 l 651 1081 m 363 1081 l 363 963 l 334 963 q 305 952 315 963 q 291 912 295 941 q 287 828 288 883 q 280 761 287 780 q 238 734 272 742 l 365 734 l 365 530 l 177 530 l 177 786 q 193 953 177 888 q 245 1049 210 1018 q 336 1081 281 1081 l 363 1081 z "},"”":{"ha":833,"x_min":180,"x_max":657,"o":"m 183 530 l 183 647 l 211 647 q 241 658 231 647 q 255 699 251 669 q 259 783 259 728 q 266 850 259 831 q 307 876 274 869 l 180 876 l 180 1081 l 369 1081 l 369 824 q 352 658 369 723 q 301 561 336 592 q 210 530 266 530 l 183 530 m 472 530 l 472 647 l 500 647 q 529 658 519 647 q 543 699 539 669 q 547 783 547 728 q 555 850 547 831 q 596 876 562 869 l 469 876 l 469 1081 l 657 1081 l 657 824 q 641 658 657 723 q 589 561 624 592 q 498 530 554 530 l 472 530 z "},"‘":{"ha":833,"x_min":306,"x_max":494,"o":"m 491 1080 l 491 963 l 463 963 q 434 951 444 963 q 420 909 424 940 q 416 819 416 878 q 408 752 415 771 q 367 725 401 733 l 494 725 l 494 521 l 306 521 l 306 786 q 344 1009 306 939 q 465 1080 381 1080 l 491 1080 z "},"’":{"ha":833,"x_min":339,"x_max":527,"o":"m 342 522 l 342 639 l 370 639 q 400 650 390 639 q 414 693 410 662 q 417 783 417 724 q 425 850 418 831 q 466 876 432 869 l 339 876 l 339 1081 l 527 1081 l 527 815 q 490 592 527 663 q 368 522 452 522 l 342 522 z "},"«":{"ha":833,"x_min":106,"x_max":722,"o":"m 288 119 l 106 381 l 106 388 l 288 649 l 433 649 l 298 458 q 261 411 276 428 q 208 384 245 394 q 261 358 245 375 q 298 310 276 341 l 433 119 l 288 119 m 577 119 l 395 381 l 395 388 l 577 649 l 722 649 l 587 458 q 550 411 565 428 q 497 384 534 394 q 550 358 534 375 q 587 310 565 341 l 722 119 l 577 119 z "},"»":{"ha":833,"x_min":108,"x_max":726,"o":"m 108 119 l 242 310 q 280 358 264 341 q 332 384 295 375 q 280 411 295 394 q 242 458 265 428 l 108 649 l 252 649 l 434 388 l 434 381 l 252 119 l 108 119 m 399 119 l 534 310 q 572 358 556 341 q 624 384 588 375 q 572 411 588 394 q 534 458 556 428 l 399 649 l 544 649 l 726 388 l 726 381 l 544 119 l 399 119 z "},"‹":{"ha":833,"x_min":242,"x_max":569,"o":"m 424 119 l 242 381 l 242 388 l 424 649 l 569 649 l 434 458 q 397 411 413 428 q 344 384 381 394 q 397 358 381 375 q 434 310 413 341 l 569 119 l 424 119 z "},"›":{"ha":833,"x_min":265,"x_max":592,"o":"m 265 119 l 400 310 q 437 358 421 341 q 490 384 453 375 q 437 411 453 394 q 400 458 422 428 l 265 649 l 409 649 l 592 388 l 592 381 l 409 119 l 265 119 z "},"\"":{"ha":833,"x_min":181,"x_max":652,"o":"m 206 505 l 181 1081 l 335 1081 l 310 505 l 206 505 m 523 505 l 498 1081 l 652 1081 l 627 505 l 523 505 z "},"'":{"ha":833,"x_min":340,"x_max":494,"o":"m 365 505 l 340 1081 l 494 1081 l 469 505 l 365 505 z "}," ":{"ha":833,"x_min":0,"x_max":0,"o":""}," ":{"ha":833,"x_min":0,"x_max":0,"o":""},"​":{"ha":0,"x_min":0,"x_max":0,"o":""},"\r":{"ha":833,"x_min":0,"x_max":0,"o":""},"¢":{"ha":833,"x_min":101,"x_max":732,"o":"m 440 -12 q 261 36 337 -12 q 143 172 185 84 q 101 379 101 260 q 144 593 101 505 q 262 726 187 681 q 434 772 338 772 q 595 732 529 772 q 696 625 661 692 q 732 479 731 558 l 603 479 q 592 545 602 513 q 561 603 582 577 q 509 644 541 629 q 431 660 477 660 q 281 586 331 660 q 232 383 232 513 q 286 173 232 246 q 444 101 340 101 q 529 116 495 101 q 581 158 563 132 q 603 215 599 184 l 728 215 q 689 98 726 149 q 586 17 651 47 q 440 -12 522 -12 m 375 730 l 375 865 l 495 865 l 495 730 l 375 730 m 375 -106 l 375 29 l 495 29 l 495 -106 l 375 -106 z "},"¤":{"ha":833,"x_min":109,"x_max":724,"o":"m 417 252 q 281 288 342 252 q 184 385 220 324 q 149 522 149 447 q 184 660 149 600 q 280 756 219 721 q 417 791 340 791 q 553 756 492 791 q 649 659 614 720 q 685 522 685 599 q 650 383 685 444 q 555 287 615 322 q 417 252 494 252 m 417 367 q 520 412 481 367 q 560 522 560 456 q 519 631 560 588 q 417 675 479 675 q 311 632 349 675 q 274 522 274 588 q 313 413 274 458 q 417 367 352 367 m 201 192 l 109 283 l 258 431 l 349 340 l 201 192 m 633 192 l 485 340 l 576 431 l 724 283 l 633 192 m 258 604 l 110 752 l 201 842 l 349 694 l 258 604 m 576 604 l 485 695 l 633 842 l 724 752 l 576 604 z "},"$":{"ha":833,"x_min":101,"x_max":752,"o":"m 372 -137 l 372 18 l 490 18 l 490 -137 l 372 -137 m 373 992 l 373 1144 l 490 1144 l 490 992 l 373 992 m 432 1 q 263 35 337 1 q 146 136 188 69 q 101 306 103 204 l 222 306 q 253 199 224 241 q 330 136 282 156 q 438 115 378 115 q 543 135 501 115 q 605 189 585 155 q 626 264 626 222 q 601 343 626 311 q 528 400 577 375 q 402 451 478 425 q 257 520 319 481 q 162 615 196 560 q 128 749 128 671 q 166 893 128 835 q 273 982 204 952 q 431 1012 341 1012 q 642 943 572 1012 q 729 742 713 874 l 608 742 q 583 823 601 788 q 527 877 565 858 q 425 897 490 897 q 297 861 344 897 q 250 753 250 825 q 266 679 250 711 q 327 619 283 647 q 456 557 372 590 q 573 509 519 532 q 666 456 626 486 q 728 382 706 426 q 751 272 751 338 q 668 72 752 144 q 432 1 583 1 z "},"€":{"ha":833,"x_min":3,"x_max":781,"o":"m 460 -19 q 269 43 351 -19 q 143 224 188 104 q 98 517 98 343 q 142 796 98 682 q 269 969 187 910 q 467 1028 351 1028 q 628 991 558 1028 q 739 883 699 953 q 781 715 780 813 l 650 715 q 624 819 648 776 q 559 886 599 863 q 465 909 518 909 q 294 812 358 909 q 231 518 231 715 q 261 276 231 368 q 344 143 291 185 q 464 101 397 101 q 567 130 526 101 q 627 197 607 158 q 649 263 647 235 l 781 263 q 739 124 777 189 q 630 20 700 60 q 460 -19 560 -19 m 3 326 l 3 435 l 498 435 l 498 326 l 3 326 m 25 562 l 25 671 l 526 671 l 526 562 l 25 562 z "},"£":{"ha":833,"x_min":63,"x_max":769,"o":"m 63 0 l 63 113 q 170 188 128 142 q 234 285 213 233 q 255 386 255 337 q 242 461 255 428 q 211 523 230 494 q 174 584 193 553 q 143 655 156 615 q 131 747 131 694 q 166 891 131 828 q 274 992 202 955 q 458 1028 347 1028 q 619 993 551 1028 q 723 893 687 958 q 760 740 760 828 q 759 719 760 731 q 757 690 758 706 l 626 690 q 628 711 628 701 q 628 735 628 722 q 611 823 628 783 q 556 888 594 863 q 455 912 518 912 q 345 891 388 912 q 281 833 302 870 q 260 749 260 797 q 277 651 260 694 q 316 571 294 609 q 354 491 338 533 q 371 395 371 449 q 341 260 371 316 q 271 171 310 204 q 203 132 243 147 q 131 113 163 116 l 63 0 m 63 0 l 63 113 l 769 113 l 769 0 l 63 0 m 113 397 l 113 501 l 644 501 l 644 397 l 113 397 z "},"¥":{"ha":833,"x_min":31,"x_max":803,"o":"m 349 424 l 31 1010 l 174 1010 l 329 706 l 411 530 l 422 530 l 504 705 l 659 1010 l 803 1010 l 484 424 l 349 424 m 352 0 l 352 479 l 481 479 l 481 0 l 352 0 m 117 419 l 117 524 l 717 524 l 717 419 l 117 419 m 117 153 l 117 258 l 717 258 l 717 153 l 117 153 z "},"∕":{"ha":833,"x_min":128,"x_max":705,"o":"m 128 -135 l 576 1174 l 705 1174 l 258 -135 l 128 -135 z "},"+":{"ha":833,"x_min":77,"x_max":756,"o":"m 352 163 l 352 390 q 362 437 352 418 q 396 462 372 456 l 352 501 l 352 576 l 352 877 l 483 877 l 483 163 l 352 163 m 77 462 l 77 580 l 756 580 l 756 462 l 77 462 z "},"−":{"ha":833,"x_min":106,"x_max":728,"o":"m 106 460 l 106 581 l 728 581 l 728 460 l 106 460 z "},"×":{"ha":833,"x_min":162,"x_max":680,"o":"m 247 247 l 162 336 l 358 530 l 407 578 l 594 783 l 679 695 l 478 496 l 437 455 l 247 247 m 594 247 l 406 454 l 357 503 l 163 694 l 249 783 l 434 578 l 481 534 l 680 337 l 594 247 z "},"÷":{"ha":833,"x_min":122,"x_max":712,"o":"m 122 460 l 122 581 l 712 581 l 712 460 l 122 460 m 417 658 q 352 685 379 658 q 325 755 325 713 q 352 823 325 796 q 417 849 379 849 q 482 823 455 849 q 509 755 509 796 q 482 685 509 713 q 417 658 455 658 m 417 193 q 352 220 379 193 q 325 289 325 247 q 352 358 325 331 q 417 385 379 385 q 482 358 455 385 q 509 289 509 331 q 482 220 509 247 q 417 193 455 193 z "},"=":{"ha":833,"x_min":90,"x_max":744,"o":"m 90 297 l 90 414 l 744 414 l 744 297 l 90 297 m 90 616 l 90 733 l 744 733 l 744 616 l 90 616 z "},">":{"ha":833,"x_min":163,"x_max":726,"o":"m 163 114 l 163 257 l 476 435 l 609 506 l 609 510 l 476 581 l 163 759 l 163 902 l 726 576 l 726 440 l 163 114 z "},"<":{"ha":833,"x_min":108,"x_max":670,"o":"m 670 114 l 108 440 l 108 576 l 670 902 l 670 759 l 358 581 l 224 510 l 224 506 l 358 435 l 670 257 l 670 114 z "},"±":{"ha":833,"x_min":77,"x_max":756,"o":"m 110 43 l 110 164 l 732 164 l 732 43 l 110 43 m 352 163 l 352 390 q 362 437 352 418 q 396 462 372 456 l 352 501 l 352 576 l 352 877 l 483 877 l 483 163 l 352 163 m 77 462 l 77 580 l 756 580 l 756 462 l 77 462 z "},"≈":{"ha":833,"x_min":84,"x_max":757,"o":"m 569 170 q 488 189 522 170 q 428 236 454 208 q 380 292 403 264 q 332 339 357 320 q 274 358 307 358 q 219 333 238 359 q 197 264 201 306 q 200 173 194 222 l 92 173 q 91 296 84 241 q 121 391 99 351 q 180 453 143 431 q 267 474 217 474 q 355 455 319 474 q 416 408 390 436 q 463 352 442 380 q 507 305 485 324 q 559 285 530 285 q 618 313 599 285 q 640 386 638 340 q 628 484 642 431 l 739 484 q 751 354 757 412 q 720 255 745 296 q 657 192 696 214 q 569 170 618 170 m 569 519 q 488 539 522 519 q 428 585 454 558 q 380 641 403 613 q 332 689 357 669 q 274 708 307 708 q 219 682 238 708 q 197 613 201 656 q 200 522 194 571 l 92 522 q 91 645 84 590 q 121 741 99 701 q 180 802 143 781 q 267 824 217 824 q 355 805 319 824 q 416 757 390 785 q 463 701 442 729 q 507 654 485 673 q 559 635 530 635 q 618 662 599 635 q 640 735 638 690 q 628 833 642 781 l 739 833 q 751 703 757 761 q 720 604 745 645 q 657 541 696 563 q 569 519 618 519 z "},"~":{"ha":833,"x_min":84,"x_max":757,"o":"m 569 344 q 488 363 522 344 q 428 410 454 382 q 380 466 403 438 q 332 513 357 494 q 274 532 307 532 q 219 506 238 533 q 197 438 201 480 q 200 347 194 395 l 92 347 q 91 470 84 415 q 121 565 99 525 q 180 626 143 605 q 267 648 217 648 q 355 629 319 648 q 416 582 390 610 q 463 525 442 553 q 507 478 485 497 q 559 459 530 459 q 618 486 599 459 q 640 559 638 514 q 628 658 642 605 l 739 658 q 751 527 757 585 q 720 428 745 469 q 657 366 696 388 q 569 344 618 344 z "},"¬":{"ha":833,"x_min":132,"x_max":701,"o":"m 585 242 l 585 390 q 596 441 585 425 q 644 463 608 458 l 132 463 l 132 583 l 701 583 l 701 242 l 585 242 z "},"^":{"ha":833,"x_min":117,"x_max":717,"o":"m 117 378 l 350 1010 l 484 1010 l 717 378 l 578 378 l 476 712 l 419 876 l 415 876 l 358 712 l 256 378 l 117 378 z "},"∞":{"ha":833,"x_min":1,"x_max":833,"o":"m 199 291 q 56 352 112 291 q 1 515 1 413 q 25 634 1 581 q 90 716 49 686 q 185 747 132 747 q 270 726 229 747 q 348 670 311 706 q 413 591 384 635 l 426 569 q 480 681 447 640 q 552 741 512 722 q 634 759 592 759 q 777 698 722 759 q 833 535 833 638 q 809 417 833 468 q 743 337 785 366 q 648 308 701 308 q 524 348 583 308 q 421 454 465 388 l 407 475 q 353 365 386 406 q 281 308 321 325 q 199 291 242 291 m 222 397 q 287 408 255 397 q 347 441 319 418 q 388 501 374 464 l 370 525 q 285 610 328 581 q 190 639 242 639 q 119 605 145 639 q 92 514 92 571 q 131 424 92 451 q 222 397 169 397 m 644 410 q 713 445 689 410 q 737 536 737 479 q 700 627 737 600 q 610 654 664 654 q 539 641 573 654 q 481 605 506 628 q 444 549 456 581 l 463 525 q 548 439 506 468 q 644 410 590 410 z "},"µ":{"ha":833,"x_min":126,"x_max":703,"o":"m 417 -17 q 348 -3 377 -17 q 299 34 318 10 q 268 87 279 58 q 253 149 257 117 l 126 238 l 126 758 l 256 758 l 256 290 q 264 223 256 256 q 292 163 272 190 q 343 121 311 137 q 423 106 376 106 q 489 126 457 106 q 543 176 520 146 q 574 239 567 207 l 574 758 l 703 758 l 703 0 l 592 0 l 578 234 l 585 199 q 532 35 576 88 q 417 -17 488 -17 m 126 -225 l 126 238 l 256 290 l 255 -225 l 126 -225 z "},"%":{"ha":833,"x_min":8,"x_max":825,"o":"m 183 0 l 577 1010 l 648 1010 l 254 0 l 183 0 m 196 588 q 264 632 240 588 q 288 757 288 675 q 263 881 288 838 q 194 924 239 924 q 127 881 150 924 q 103 757 103 838 q 127 632 103 675 q 196 588 151 588 m 194 499 q 56 566 103 499 q 8 760 8 633 q 57 953 8 886 q 196 1019 105 1019 q 334 953 286 1019 q 382 760 382 886 q 333 566 382 633 q 194 499 285 499 m 640 81 q 708 124 684 81 q 731 249 731 167 q 707 373 731 330 q 637 416 683 416 q 570 373 594 416 q 547 249 547 330 q 571 124 547 167 q 640 81 595 81 m 637 -10 q 499 58 547 -10 q 451 253 451 126 q 500 445 451 378 q 640 512 549 512 q 777 445 730 512 q 825 253 825 378 q 777 58 825 126 q 637 -10 728 -10 z "},"@":{"ha":833,"x_min":18,"x_max":815,"o":"m 426 -174 q 117 -40 215 -174 q 18 377 18 95 q 121 825 18 681 q 444 969 224 969 q 725 852 635 969 q 815 489 815 735 q 764 186 815 284 q 600 88 712 88 q 518 128 542 88 q 501 253 494 169 q 504 286 502 265 q 510 340 506 308 l 506 340 q 447 155 483 215 q 360 94 411 94 q 251 157 287 94 q 216 350 216 220 q 273 617 216 531 q 447 703 329 703 q 502 695 478 703 q 545 672 526 688 l 614 672 q 589 371 597 471 q 581 264 581 272 q 616 194 581 194 q 702 266 674 194 q 731 488 731 338 q 661 781 731 686 q 444 875 591 875 q 188 753 271 875 q 105 375 105 631 q 185 32 105 143 q 433 -80 265 -80 q 618 -21 541 -80 l 622 -115 q 426 -174 549 -174 m 381 207 q 475 293 444 207 q 509 556 506 378 q 444 595 489 595 q 353 536 383 595 q 324 356 324 478 q 381 207 324 207 z "},"&":{"ha":833,"x_min":72,"x_max":816,"o":"m 393 -13 q 253 10 313 -13 q 152 73 192 33 q 92 162 113 113 q 72 265 72 212 q 106 406 72 351 q 195 490 140 461 q 313 526 250 519 l 378 540 q 464 598 435 558 q 503 686 493 637 q 514 785 514 735 q 502 850 514 819 q 465 898 491 880 q 397 917 440 917 q 325 897 351 917 q 286 845 298 877 q 274 778 274 814 q 299 670 274 717 q 376 565 324 624 l 403 529 l 639 228 l 668 196 l 816 0 l 681 0 l 605 101 l 578 134 l 310 492 l 281 526 q 222 602 250 562 q 176 686 194 642 q 158 777 158 730 q 190 908 158 852 q 276 996 222 965 q 397 1027 330 1027 q 516 999 463 1027 q 599 917 568 970 q 629 788 629 863 q 609 682 629 734 q 535 589 588 631 q 387 523 483 547 l 321 513 q 244 465 274 499 q 202 385 215 431 q 189 291 189 340 q 213 198 189 240 q 283 129 236 155 q 398 103 330 103 q 485 114 449 103 q 548 143 522 124 q 592 185 574 161 l 625 224 q 648 280 640 252 q 659 344 656 307 q 662 438 663 381 l 765 438 q 757 324 765 378 q 730 224 748 270 q 683 139 712 178 l 660 115 q 552 19 621 52 q 393 -13 484 -13 z "},"¶":{"ha":833,"x_min":56,"x_max":734,"o":"m 397 0 l 397 288 q 403 350 397 327 q 427 384 410 373 q 473 399 444 395 l 368 399 q 203 439 273 399 q 94 553 133 480 q 56 724 56 626 q 131 935 56 860 q 342 1010 206 1010 l 513 1010 l 513 0 l 397 0 m 618 0 l 618 1010 l 734 1010 l 734 0 l 618 0 z "},"§":{"ha":833,"x_min":105,"x_max":726,"o":"m 417 -12 q 266 12 335 -12 q 153 87 197 36 q 105 219 110 138 l 239 219 q 295 124 251 151 q 418 97 340 97 q 506 107 465 97 q 570 140 546 117 q 594 203 594 163 q 570 263 594 242 q 505 296 547 283 q 409 323 463 308 q 310 354 358 337 q 224 395 262 372 q 163 454 185 419 q 140 537 140 488 q 199 656 140 611 q 369 701 257 701 l 410 692 q 340 677 372 692 q 289 634 308 662 q 270 568 270 606 q 294 501 270 526 q 358 461 317 476 q 449 431 399 445 q 539 406 491 419 q 629 369 587 392 q 699 308 672 346 q 726 210 726 270 q 686 91 726 141 q 577 15 647 41 q 417 -12 508 -12 m 464 413 l 440 426 q 544 463 505 426 q 584 553 584 499 q 562 616 584 595 q 501 649 540 637 q 415 674 463 660 q 283 722 343 694 q 187 795 223 750 q 151 910 151 840 q 182 1020 151 972 q 273 1095 213 1068 q 421 1122 333 1122 q 554 1100 494 1122 q 652 1028 614 1078 q 698 898 690 979 l 568 898 q 543 963 561 938 q 493 1001 524 989 q 417 1014 463 1014 q 317 989 354 1014 q 281 913 281 965 q 301 852 281 876 q 361 814 322 829 q 456 782 400 798 q 539 757 494 771 q 623 721 583 743 q 689 665 663 699 q 714 578 714 631 q 682 486 714 523 q 594 431 650 449 q 464 413 538 413 z "},"©":{"ha":833,"x_min":26,"x_max":808,"o":"m 417 185 q 126 293 227 185 q 26 604 26 401 q 126 910 26 804 q 417 1017 227 1017 q 708 910 607 1017 q 808 604 808 804 q 708 293 808 401 q 417 185 607 185 m 417 251 q 653 342 571 251 q 735 603 735 433 q 653 861 735 772 q 417 950 572 950 q 181 861 263 950 q 99 603 99 772 q 181 342 99 433 q 417 251 263 251 m 422 358 q 268 424 320 358 q 217 601 217 490 q 270 777 217 713 q 422 840 323 840 q 566 790 519 840 q 612 663 613 740 l 501 663 q 482 726 501 706 q 422 747 463 747 q 348 712 371 747 q 324 603 324 677 q 349 489 324 524 q 426 453 373 454 q 479 471 455 453 q 503 531 503 489 l 612 531 q 558 406 611 454 q 422 358 505 358 z "},"®":{"ha":833,"x_min":26,"x_max":808,"o":"m 256 367 l 256 828 l 356 828 l 355 367 l 256 367 m 505 367 l 423 534 l 349 534 l 327 538 l 336 607 l 336 615 l 416 615 q 475 633 456 615 q 493 685 493 651 q 473 734 493 722 q 426 747 453 747 l 355 747 l 328 777 l 328 828 q 357 828 342 828 q 393 828 373 828 q 441 828 414 828 q 553 794 513 828 q 595 694 594 760 q 578 620 595 654 q 532 566 561 587 q 463 546 502 546 l 443 557 q 483 555 466 557 q 513 547 501 553 q 531 531 525 542 l 622 367 l 505 367 m 417 185 q 126 293 227 185 q 26 604 26 401 q 126 910 26 804 q 417 1017 227 1017 q 708 910 607 1017 q 808 604 808 804 q 708 293 808 401 q 417 185 607 185 m 417 251 q 653 342 571 251 q 735 603 735 433 q 653 861 735 772 q 417 950 572 950 q 181 861 263 950 q 99 603 99 772 q 181 342 99 433 q 417 251 263 251 z "},"™":{"ha":833,"x_min":21,"x_max":802,"o":"m 385 624 l 385 1010 l 526 1010 l 583 820 l 594 771 l 605 820 l 660 1010 l 802 1010 l 802 624 l 717 624 l 717 826 l 721 951 l 719 951 l 691 841 l 628 674 l 559 674 l 496 841 l 467 951 l 466 951 l 470 826 l 470 624 l 385 624 m 127 624 l 127 992 l 217 992 l 217 624 l 127 624 m 21 919 l 21 1010 l 322 1010 l 322 919 l 21 919 z "},"°":{"ha":833,"x_min":207,"x_max":628,"o":"m 417 664 q 264 721 320 664 q 207 874 207 778 q 264 1027 207 971 q 418 1084 322 1084 q 571 1027 515 1084 q 628 874 628 971 q 571 721 628 778 q 417 664 514 664 m 417 751 q 499 785 469 751 q 530 874 530 818 q 499 964 530 931 q 417 997 469 997 q 335 964 365 997 q 304 874 304 931 q 335 785 304 818 q 417 751 365 751 z "},"|":{"ha":833,"x_min":358,"x_max":476,"o":"m 358 -176 l 358 1181 l 476 1181 l 476 -176 l 358 -176 z "},"¦":{"ha":833,"x_min":358,"x_max":476,"o":"m 358 596 l 358 1181 l 476 1181 l 476 596 l 358 596 m 358 -176 l 358 392 l 476 392 l 476 -176 l 358 -176 z "},"†":{"ha":833,"x_min":173,"x_max":660,"o":"m 363 106 l 356 1116 l 477 1116 l 470 106 l 363 106 m 173 864 l 660 864 l 660 747 l 173 747 l 173 864 z "},"‡":{"ha":833,"x_min":173,"x_max":660,"o":"m 363 106 l 356 1116 l 476 1116 l 469 106 l 363 106 m 173 899 l 660 899 l 660 780 l 173 780 l 173 899 m 173 586 l 660 586 l 660 467 l 173 467 l 173 586 z "},"℮":{"ha":833,"x_min":30,"x_max":803,"o":"m 417 0 q 216 63 303 0 q 80 239 129 125 q 30 507 30 352 q 80 774 30 660 q 216 952 129 888 q 417 1016 303 1016 q 692 882 588 1016 q 803 494 796 747 l 188 494 q 177 490 181 494 q 173 467 173 486 l 173 219 q 190 169 173 199 q 240 110 208 140 q 317 60 272 80 q 417 40 362 40 q 555 76 490 40 q 661 201 619 113 l 733 201 q 642 85 688 129 q 543 20 597 40 q 417 0 489 0 m 188 525 l 642 525 q 656 530 653 525 q 659 549 659 535 l 659 792 q 621 889 659 847 q 527 956 583 931 q 415 981 471 981 q 291 951 346 981 q 205 880 236 922 q 173 803 173 839 l 173 538 q 188 525 173 525 z "},"̈":{"ha":0,"x_min":183,"x_max":651,"o":"m 272 888 q 209 916 235 888 q 183 989 183 944 q 209 1061 183 1033 q 272 1089 235 1089 q 334 1061 308 1089 q 360 989 360 1033 q 334 916 360 944 q 272 888 307 888 m 562 888 q 499 916 526 888 q 473 989 473 944 q 499 1061 473 1034 q 562 1089 526 1089 q 624 1061 597 1089 q 651 989 651 1033 q 624 916 651 944 q 562 888 597 888 z "},"̇":{"ha":0,"x_min":315,"x_max":518,"o":"m 417 891 q 345 920 374 891 q 315 996 315 949 q 345 1073 315 1043 q 417 1102 374 1102 q 489 1073 459 1102 q 518 996 518 1043 q 489 920 518 949 q 417 891 459 891 z "},"̀":{"ha":0,"x_min":174,"x_max":477,"o":"m 477 892 l 336 892 l 174 1115 l 328 1115 l 477 892 z "},"́":{"ha":0,"x_min":342,"x_max":646,"o":"m 342 892 l 492 1115 l 646 1115 l 484 892 l 342 892 z "},"̋":{"ha":0,"x_min":231,"x_max":774,"o":"m 488 892 l 632 1119 l 774 1119 l 618 892 l 488 892 m 231 892 l 351 1119 l 494 1119 l 357 892 l 231 892 z "},"̂":{"ha":0,"x_min":197,"x_max":637,"o":"m 197 891 l 349 1115 l 484 1115 l 637 891 l 520 891 l 417 1026 l 313 891 l 197 891 z "},"̌":{"ha":0,"x_min":197,"x_max":637,"o":"m 349 884 l 197 1108 l 313 1108 l 417 971 l 520 1108 l 637 1108 l 484 884 l 349 884 z "},"̆":{"ha":0,"x_min":209,"x_max":625,"o":"m 417 885 q 266 938 322 885 q 215 1099 209 990 l 322 1099 q 332 1022 319 1049 q 367 987 344 996 q 417 978 390 978 q 466 987 444 978 q 502 1023 489 997 q 511 1099 515 1049 l 618 1099 q 568 938 625 990 q 417 885 512 885 z "},"̊":{"ha":0,"x_min":247,"x_max":588,"o":"m 418 876 q 294 921 340 876 q 247 1040 247 965 q 294 1159 247 1115 q 418 1203 340 1203 q 542 1159 497 1203 q 588 1040 588 1115 q 542 921 588 965 q 418 876 497 876 m 418 958 q 476 980 455 958 q 497 1040 497 1002 q 476 1100 497 1078 q 418 1122 455 1122 q 361 1100 382 1122 q 340 1040 340 1078 q 361 980 340 1002 q 418 958 382 958 z "},"̃":{"ha":0,"x_min":152,"x_max":679,"o":"m 520 890 q 444 909 473 890 q 397 953 416 928 q 361 997 378 978 q 320 1016 344 1016 q 272 983 284 1016 q 268 890 259 949 l 166 890 q 192 1052 152 997 q 312 1108 232 1108 q 388 1089 359 1108 q 434 1045 416 1069 q 470 1001 453 1020 q 510 982 487 982 q 560 1013 547 982 q 564 1108 573 1044 l 665 1108 q 639 943 679 997 q 520 890 599 890 z "},"̄":{"ha":0,"x_min":231,"x_max":603,"o":"m 231 904 l 231 1017 l 603 1017 l 601 904 l 231 904 z "},"̒":{"ha":0,"x_min":131,"x_max":297,"o":"m 131 884 l 131 915 q 138 983 131 945 q 157 1056 145 1021 q 181 1109 168 1090 l 297 1109 q 278 1020 286 1072 q 271 910 271 967 l 271 884 l 131 884 z "},"̣":{"ha":0,"x_min":318,"x_max":515,"o":"m 417 -319 q 346 -291 374 -319 q 318 -218 318 -262 q 346 -146 318 -174 q 417 -118 374 -118 q 487 -146 459 -118 q 515 -218 515 -174 q 487 -291 515 -262 q 417 -319 459 -319 z "},"̦":{"ha":0,"x_min":331,"x_max":484,"o":"m 331 -362 q 341 -292 337 -334 q 349 -206 346 -250 q 351 -130 351 -162 l 351 -89 l 484 -89 l 484 -138 q 479 -219 484 -177 q 466 -298 474 -260 q 449 -362 458 -335 l 331 -362 z "},"̧":{"ha":0,"x_min":310,"x_max":597,"o":"m 441 -306 q 366 -300 394 -306 q 310 -281 338 -294 l 311 -182 q 352 -197 329 -191 q 407 -202 375 -202 q 461 -185 449 -202 q 474 -139 474 -168 q 454 -67 474 -99 q 386 0 433 -35 l 490 0 q 543 -41 519 -16 q 582 -98 567 -66 q 597 -167 597 -129 q 555 -268 597 -231 q 441 -306 513 -306 z "},"̨":{"ha":0,"x_min":269,"x_max":524,"o":"m 421 -297 q 309 -260 349 -297 q 269 -165 269 -224 q 310 -65 269 -109 q 427 0 351 -20 l 524 0 q 425 -68 456 -35 q 393 -137 393 -101 q 408 -179 393 -165 q 450 -193 424 -193 q 522 -177 486 -193 l 523 -276 q 484 -291 506 -284 q 421 -297 462 -297 z "},"̭":{"ha":0,"x_min":201,"x_max":633,"o":"m 201 -291 l 350 -69 l 484 -69 l 633 -291 l 515 -291 l 417 -150 l 319 -291 l 201 -291 z "},"̱":{"ha":0,"x_min":224,"x_max":609,"o":"m 224 -219 l 224 -89 l 609 -89 l 607 -219 l 224 -219 z "},"˙":{"ha":833,"x_min":315,"x_max":518,"o":"m 417 891 q 345 920 374 891 q 315 996 315 949 q 345 1073 315 1043 q 417 1102 374 1102 q 489 1073 459 1102 q 518 996 518 1043 q 489 920 518 949 q 417 891 459 891 z "},"¨":{"ha":833,"x_min":183,"x_max":651,"o":"m 272 888 q 209 916 235 888 q 183 989 183 944 q 209 1061 183 1033 q 272 1089 235 1089 q 334 1061 308 1089 q 360 989 360 1033 q 334 916 360 944 q 272 888 307 888 m 562 888 q 499 916 526 888 q 473 989 473 944 q 499 1061 473 1034 q 562 1089 526 1089 q 624 1061 597 1089 q 651 989 651 1033 q 624 916 651 944 q 562 888 597 888 z "},"`":{"ha":833,"x_min":219,"x_max":572,"o":"m 451 828 l 219 1266 l 356 1266 l 572 828 l 451 828 z "},"´":{"ha":833,"x_min":273,"x_max":626,"o":"m 394 828 l 273 828 l 488 1266 l 626 1266 l 394 828 z "},"˝":{"ha":833,"x_min":256,"x_max":799,"o":"m 514 892 l 658 1119 l 799 1119 l 644 892 l 514 892 m 256 892 l 376 1119 l 520 1119 l 383 892 l 256 892 z "},"ˆ":{"ha":833,"x_min":262,"x_max":702,"o":"m 262 891 l 415 1115 l 549 1115 l 702 891 l 585 891 l 482 1026 l 378 891 l 262 891 z "},"ˇ":{"ha":833,"x_min":270,"x_max":710,"o":"m 423 884 l 270 1108 l 387 1108 l 490 971 l 594 1108 l 710 1108 l 558 884 l 423 884 z "},"˘":{"ha":833,"x_min":297,"x_max":713,"o":"m 505 885 q 354 938 410 885 q 303 1099 297 990 l 410 1099 q 420 1022 408 1049 q 456 987 433 996 q 505 978 478 978 q 555 987 532 978 q 590 1023 577 997 q 599 1099 603 1049 l 706 1099 q 657 938 713 990 q 505 885 600 885 z "},"˚":{"ha":833,"x_min":373,"x_max":714,"o":"m 544 876 q 419 921 466 876 q 373 1040 373 965 q 419 1159 373 1115 q 544 1203 466 1203 q 668 1159 622 1203 q 714 1040 714 1115 q 668 921 714 965 q 544 876 622 876 m 544 958 q 602 980 581 958 q 623 1040 623 1002 q 602 1100 623 1078 q 544 1122 581 1122 q 486 1100 508 1122 q 465 1040 465 1078 q 486 980 465 1002 q 544 958 508 958 z "},"˜":{"ha":833,"x_min":201,"x_max":728,"o":"m 569 890 q 494 909 522 890 q 446 953 465 928 q 410 997 427 978 q 369 1016 394 1016 q 321 983 333 1016 q 317 890 308 949 l 215 890 q 241 1052 201 997 q 361 1108 281 1108 q 437 1089 408 1108 q 484 1045 465 1069 q 519 1001 502 1020 q 560 982 536 982 q 609 1013 597 982 q 613 1108 622 1044 l 715 1108 q 689 943 728 997 q 569 890 649 890 z "},"¯":{"ha":833,"x_min":325,"x_max":698,"o":"m 325 904 l 325 1017 l 698 1017 l 696 904 l 325 904 z "},"¸":{"ha":833,"x_min":485,"x_max":772,"o":"m 615 -306 q 541 -300 569 -306 q 485 -281 513 -294 l 485 -182 q 526 -197 503 -191 q 581 -202 549 -202 q 636 -185 623 -202 q 649 -139 649 -168 q 628 -67 649 -99 q 560 0 608 -35 l 665 0 q 717 -41 693 -16 q 757 -98 742 -66 q 772 -167 772 -129 q 730 -268 772 -231 q 615 -306 688 -306 z "},"˛":{"ha":833,"x_min":499,"x_max":754,"o":"m 651 -297 q 540 -260 580 -297 q 499 -165 499 -224 q 540 -65 499 -109 q 658 0 581 -20 l 754 0 q 655 -68 687 -35 q 624 -137 624 -101 q 639 -179 624 -165 q 681 -193 654 -193 q 753 -177 717 -193 l 753 -276 q 714 -291 736 -284 q 651 -297 692 -297 z "}}}
